<svg width="28" height="24" viewBox="0 0 28 24" fill="none" xmlns="http://www.w3.org/2000/svg">
<path fill-rule="evenodd" clip-rule="evenodd" d="M27.3334 4C27.3334 1.79086 25.5426 0 23.3334 0H4.66674C2.45761 0 0.666748 1.79086 0.666748 4V7.33333H6.00008C8.57741 7.33333 10.6667 9.42267 10.6667 12C10.6667 14.5773 8.57741 16.6667 6.00008 16.6667H0.666748V20C0.666748 22.2091 2.45761 24 4.66675 24H23.3334C25.5426 24 27.3334 22.2091 27.3334 20V4ZM6.00008 9.33333C7.47284 9.33333 8.66675 10.5272 8.66675 12C8.66675 13.4728 7.47284 14.6667 6.00008 14.6667H0.666748V9.33333H6.00008Z" fill="#0AB3FA"/>
</svg>
