<svg width="68" height="24" viewBox="0 0 68 24" fill="none" xmlns="http://www.w3.org/2000/svg">
<path d="M18.0047 13.2692H18.2714C19.0078 13.2692 19.6047 13.8662 19.6047 14.6025V16.1359C19.6047 16.7987 20.142 17.3359 20.8047 17.3359C21.4675 17.3359 22.0047 16.7995 22.0047 16.1367V9.22059C22.0047 8.86697 21.7758 8.56227 21.5258 8.31223L18.6714 5.33594M12.0047 6.00254H16.0047C16.7411 6.00254 17.338 6.59949 17.338 7.33587V18.0015H10.6714V7.33587C10.6714 6.59949 11.2683 6.00254 12.0047 6.00254ZM22.0047 9.33587C22.0047 10.0722 21.4078 10.6692 20.6714 10.6692C19.935 10.6692 19.3381 10.0722 19.3381 9.33587C19.3381 8.59949 19.935 8.00254 20.6714 8.00254C21.4078 8.00254 22.0047 8.59949 22.0047 9.33587Z" stroke="#B3B4B7"/>
<path d="M12 13.9941H16" stroke="#B3B4B7"/>
<path d="M12 15.9941H16" stroke="#B3B4B7"/>
<path d="M12 12.1611H16" stroke="#B3B4B7"/>
<path d="M33.036 15.412C32.596 15.404 32.168 15.368 31.752 15.304C31.336 15.232 31 15.136 30.744 15.016V13.996C31.016 14.124 31.364 14.236 31.788 14.332C32.212 14.428 32.628 14.48 33.036 14.488V12.064C32.644 11.952 32.3 11.832 32.004 11.704C31.716 11.568 31.48 11.416 31.296 11.248C31.112 11.08 30.972 10.888 30.876 10.672C30.788 10.448 30.744 10.192 30.744 9.904C30.744 9.512 30.836 9.176 31.02 8.896C31.212 8.616 31.48 8.396 31.824 8.236C32.168 8.068 32.572 7.972 33.036 7.948V6.892H33.804V7.936C34.228 7.944 34.612 7.992 34.956 8.08C35.308 8.16 35.628 8.26 35.916 8.38L35.592 9.268C35.336 9.164 35.052 9.076 34.74 9.004C34.436 8.924 34.124 8.872 33.804 8.848V11.26C34.332 11.412 34.772 11.576 35.124 11.752C35.476 11.92 35.74 12.132 35.916 12.388C36.1 12.636 36.192 12.96 36.192 13.36C36.192 13.92 35.984 14.376 35.568 14.728C35.152 15.072 34.564 15.284 33.804 15.364V16.696H33.036V15.412ZM33.804 14.428C34.276 14.38 34.62 14.272 34.836 14.104C35.052 13.928 35.16 13.704 35.16 13.432C35.16 13.232 35.12 13.068 35.04 12.94C34.96 12.804 34.82 12.688 34.62 12.592C34.428 12.496 34.156 12.404 33.804 12.316V14.428ZM33.036 8.872C32.748 8.888 32.512 8.94 32.328 9.028C32.144 9.108 32.004 9.216 31.908 9.352C31.82 9.488 31.776 9.644 31.776 9.82C31.776 10.028 31.812 10.208 31.884 10.36C31.964 10.504 32.096 10.628 32.28 10.732C32.464 10.828 32.716 10.916 33.036 10.996V8.872ZM38.0432 14.68C38.5712 15.544 39.4232 16.072 40.5872 16.072C42.3152 16.072 43.5032 14.872 43.5032 13.252C43.5032 11.536 42.3392 10.444 40.6832 10.444C39.5552 10.444 38.7152 10.996 38.3432 11.824C38.2952 11.932 38.2832 12.004 38.2712 12.052C38.2592 11.848 38.2592 11.764 38.2592 11.644C38.2592 9.748 39.0632 8.416 40.5272 8.416C41.5472 8.416 42.1472 8.992 42.3392 9.844H43.3472C43.1432 8.44 42.0992 7.528 40.5752 7.528C38.5712 7.528 37.3832 9.196 37.3832 11.836C37.3832 12.94 37.6232 13.948 38.0432 14.68ZM42.4952 13.252C42.4952 14.38 41.7392 15.184 40.5752 15.184C39.4232 15.184 38.6552 14.404 38.6552 13.276C38.6552 12.124 39.4472 11.332 40.6112 11.332C41.7752 11.332 42.4952 12.136 42.4952 13.252ZM44.1458 15.4C44.1458 15.808 44.4338 16.072 44.8298 16.072C45.2258 16.072 45.5138 15.808 45.5138 15.4C45.5138 14.992 45.2258 14.728 44.8298 14.728C44.4338 14.728 44.1458 14.992 44.1458 15.4ZM50.5263 11.632C51.3303 11.416 51.8823 10.804 51.8823 9.748C51.8823 8.428 50.7903 7.528 49.0623 7.528C47.4063 7.528 46.2543 8.548 46.2423 10.024H47.2383C47.2503 9.064 48.0183 8.428 49.0743 8.428C50.0823 8.428 50.8503 8.956 50.8503 9.808C50.8503 10.66 50.2263 11.284 48.9783 11.284H48.3183V12.16H49.0383C50.3463 12.16 51.0663 12.724 51.0663 13.6C51.0663 14.56 50.2263 15.172 49.1343 15.172C47.9463 15.172 47.0823 14.512 47.0703 13.408H46.0743C46.0743 15.076 47.2503 16.072 49.0743 16.072C50.8983 16.072 52.0983 15.1 52.0983 13.672C52.0983 12.388 51.2943 11.776 50.5263 11.632ZM52.738 13.948H57.142V16H58.15V13.948H59.506V13.024H58.15V7.6H57.022L52.738 13.048V13.948ZM57.142 8.836V13.024H53.866L57.142 8.836Z" fill="#B3B4B7"/>
</svg>
