<svg width="32" height="32" viewBox="0 0 32 32" fill="none" xmlns="http://www.w3.org/2000/svg">
<g clip-path="url(#clip0_26_555)">
<path d="M8.05 15C8.30289 13.0707 9.25022 11.2998 10.7147 10.0186C12.1791 8.73747 14.0603 8.03395 16.0061 8.03977C17.9518 8.04559 19.8288 8.76034 21.2855 10.0502C22.7423 11.3401 23.679 13.1167 23.9204 15.0475C24.1617 16.9782 23.6911 18.9307 22.5967 20.5395C21.5023 22.1483 19.859 23.3031 17.9746 23.7877C16.0901 24.2723 14.0936 24.0534 12.3589 23.1722C10.6241 22.2909 9.27 20.8077 8.55 19M8.05 24V19H13.05" stroke="#808287" stroke-width="1.5" stroke-linecap="round" stroke-linejoin="round"/>
<path d="M23.9212 15.0474C24.1625 16.9781 23.6919 18.9306 22.5975 20.5394C21.503 22.1482 19.8598 23.303 17.9753 23.7876C16.0909 24.2722 14.0944 24.0533 12.3597 23.1721C10.6249 22.2908 9.27078 20.8076 8.55078 18.9999M8.05078 23.9999V18.9999H13.0508" stroke="white" stroke-width="1.5" stroke-linecap="round" stroke-linejoin="round"/>
</g>
<defs>
<clipPath id="clip0_26_555">
<rect width="24" height="24" fill="white" transform="translate(4 4)"/>
</clipPath>
</defs>
</svg>
