<svg width="32" height="32" viewBox="0 0 32 32" fill="none" xmlns="http://www.w3.org/2000/svg">
<path d="M7 10.25C6.80109 10.25 6.61032 10.329 6.46967 10.4697C6.32902 10.6103 6.25 10.8011 6.25 11C6.25 11.1989 6.32902 11.3897 6.46967 11.5303C6.61032 11.671 6.80109 11.75 7 11.75V10.25ZM7 20.25C6.80109 20.25 6.61032 20.329 6.46967 20.4697C6.32902 20.6103 6.25 20.8011 6.25 21C6.25 21.1989 6.32902 21.3897 6.46967 21.5303C6.61032 21.671 6.80109 21.75 7 21.75V20.25ZM13 21.75C13.1989 21.75 13.3897 21.671 13.5303 21.5303C13.671 21.3897 13.75 21.1989 13.75 21C13.75 20.8011 13.671 20.6103 13.5303 20.4697C13.3897 20.329 13.1989 20.25 13 20.25V21.75ZM25 21.75C25.1989 21.75 25.3897 21.671 25.5303 21.5303C25.671 21.3897 25.75 21.1989 25.75 21C25.75 20.8011 25.671 20.6103 25.5303 20.4697C25.3897 20.329 25.1989 20.25 25 20.25V21.75ZM19 10.25C18.8011 10.25 18.6103 10.329 18.4697 10.4697C18.329 10.6103 18.25 10.8011 18.25 11C18.25 11.1989 18.329 11.3897 18.4697 11.5303C18.6103 11.671 18.8011 11.75 19 11.75V10.25ZM25 11.75C25.1989 11.75 25.3897 11.671 25.5303 11.5303C25.671 11.3897 25.75 11.1989 25.75 11C25.75 10.8011 25.671 10.6103 25.5303 10.4697C25.3897 10.329 25.1989 10.25 25 10.25V11.75ZM7 11.75H10V10.25H7V11.75ZM7 21.75H13V20.25H7V21.75ZM22 21.75H25V20.25H22V21.75ZM19 11.75H25V10.25H19V11.75ZM21.25 21C21.25 21.5967 21.0129 22.169 20.591 22.591C20.169 23.0129 19.5967 23.25 19 23.25V24.75C19.9946 24.75 20.9484 24.3549 21.6517 23.6517C22.3549 22.9484 22.75 21.9946 22.75 21H21.25ZM19 23.25C18.4033 23.25 17.831 23.0129 17.409 22.591C16.9871 22.169 16.75 21.5967 16.75 21H15.25C15.25 21.9946 15.6451 22.9484 16.3483 23.6517C17.0516 24.3549 18.0054 24.75 19 24.75V23.25ZM16.75 21C16.75 20.4033 16.9871 19.831 17.409 19.409C17.831 18.9871 18.4033 18.75 19 18.75V17.25C18.0054 17.25 17.0516 17.6451 16.3483 18.3483C15.6451 19.0516 15.25 20.0054 15.25 21H16.75ZM19 18.75C19.5967 18.75 20.169 18.9871 20.591 19.409C21.0129 19.831 21.25 20.4033 21.25 21H22.75C22.75 20.0054 22.3549 19.0516 21.6517 18.3483C20.9484 17.6451 19.9946 17.25 19 17.25V18.75ZM15.25 11C15.25 11.5967 15.0129 12.169 14.591 12.591C14.169 13.0129 13.5967 13.25 13 13.25V14.75C13.9946 14.75 14.9484 14.3549 15.6517 13.6517C16.3549 12.9484 16.75 11.9946 16.75 11H15.25ZM13 13.25C12.4033 13.25 11.831 13.0129 11.409 12.591C10.9871 12.169 10.75 11.5967 10.75 11H9.25C9.25 11.9946 9.64509 12.9484 10.3483 13.6517C11.0516 14.3549 12.0054 14.75 13 14.75V13.25ZM10.75 11C10.75 10.4033 10.9871 9.83097 11.409 9.40901C11.831 8.98705 12.4033 8.75 13 8.75V7.25C12.0054 7.25 11.0516 7.64509 10.3483 8.34835C9.64509 9.05161 9.25 10.0054 9.25 11H10.75ZM13 8.75C13.5967 8.75 14.169 8.98705 14.591 9.40901C15.0129 9.83097 15.25 10.4033 15.25 11H16.75C16.75 10.0054 16.3549 9.05161 15.6517 8.34835C14.9484 7.64509 13.9946 7.25 13 7.25V8.75Z" fill="white"/>
</svg>
