<svg width="18" height="18" viewBox="0 0 18 18" fill="none" xmlns="http://www.w3.org/2000/svg">
<path d="M10.875 6C10.4608 6 10.125 6.33579 10.125 6.75C10.125 7.16421 10.4608 7.5 10.875 7.5V6ZM12.9573 7.16459L12.2865 7.5V7.5L12.9573 7.16459ZM12.8292 8.58541C13.0144 8.95589 13.4649 9.10606 13.8354 8.92082C14.2059 8.73558 14.3561 8.28507 14.1708 7.91459L12.8292 8.58541ZM13.0022 7.53619L13.4134 6.90896L12.159 6.08657L11.7478 6.71381L13.0022 7.53619ZM10.3233 10.2546L9.69608 9.84345L10.3233 10.2546ZM9.05447 10.2318L8.41286 10.6202L9.05447 10.2318ZM7.62334 7.86755L6.98173 8.25592V8.25592L7.62334 7.86755ZM6.32283 7.89765L5.66394 7.53938V7.53938L6.32283 7.89765ZM3.84111 10.8917C3.64324 11.2556 3.77783 11.711 4.14173 11.9089C4.50562 12.1068 4.96103 11.9722 5.15889 11.6083L3.84111 10.8917ZM10.875 7.5H12.2865V6H10.875V7.5ZM12.2865 7.5L12.8292 8.58541L14.1708 7.91459L13.6281 6.82918L12.2865 7.5ZM12.2865 7.5L12.2865 7.5L13.6281 6.82918C13.374 6.321 12.8546 6 12.2865 6V7.5ZM11.7478 6.71381L9.69608 9.84345L10.9505 10.6658L13.0022 7.53619L11.7478 6.71381ZM9.69608 9.84345L8.26495 7.47917L6.98173 8.25592L8.41286 10.6202L9.69608 9.84345ZM5.66394 7.53938L3.84111 10.8917L5.15889 11.6083L6.98173 8.25592L5.66394 7.53938ZM8.26495 7.47917C7.66533 6.48858 6.21708 6.52211 5.66394 7.53938L6.98173 8.25592L6.98173 8.25592L8.26495 7.47917ZM9.69608 9.84345V9.84345L8.41286 10.6202C8.98438 11.5644 10.3455 11.5888 10.9505 10.6658L9.69608 9.84345Z" fill="#BFE3B4"/>
</svg>
