<svg width="25" height="24" viewBox="0 0 25 24" fill="none" xmlns="http://www.w3.org/2000/svg">
<path d="M13.9697 4.53033C14.2626 4.82322 14.7374 4.82322 15.0303 4.53033C15.3232 4.23744 15.3232 3.76256 15.0303 3.46967L13.9697 4.53033ZM9.96967 3.46967C9.67678 3.76256 9.67678 4.23744 9.96967 4.53033C10.2626 4.82322 10.7374 4.82322 11.0303 4.53033L9.96967 3.46967ZM15.0303 3.46967L13.7374 2.17678L12.6768 3.23744L13.9697 4.53033L15.0303 3.46967ZM11.2626 2.17678L9.96967 3.46967L11.0303 4.53033L12.3232 3.23744L11.2626 2.17678ZM13.7374 2.17678C13.054 1.49336 11.946 1.49336 11.2626 2.17678L12.3232 3.23744C12.4209 3.13981 12.5791 3.13981 12.6768 3.23744L13.7374 2.17678Z" fill="white"/>
<path d="M13.25 3C13.25 2.58579 12.9142 2.25 12.5 2.25C12.0858 2.25 11.75 2.58579 11.75 3H13.25ZM11.75 11C11.75 11.4142 12.0858 11.75 12.5 11.75C12.9142 11.75 13.25 11.4142 13.25 11H11.75ZM16.5 5.25C16.0858 5.25 15.75 5.58579 15.75 6C15.75 6.41421 16.0858 6.75 16.5 6.75V5.25ZM8.5 6.75C8.91421 6.75 9.25 6.41421 9.25 6C9.25 5.58579 8.91421 5.25 8.5 5.25V6.75ZM11.75 3V11H13.25L13.25 3H11.75ZM8.5 14.75H16.5V13.25H8.5V14.75ZM16.5 21.25H8.5V22.75H16.5V21.25ZM19.75 18C19.75 19.7949 18.2949 21.25 16.5 21.25V22.75C19.1234 22.75 21.25 20.6234 21.25 18H19.75ZM16.5 14.75C18.2949 14.75 19.75 16.2051 19.75 18H21.25C21.25 15.3766 19.1234 13.25 16.5 13.25V14.75ZM5.25 18C5.25 16.2051 6.70507 14.75 8.5 14.75V13.25C5.87665 13.25 3.75 15.3766 3.75 18H5.25ZM3.75 18C3.75 20.6234 5.87665 22.75 8.5 22.75V21.25C6.70507 21.25 5.25 19.7949 5.25 18H3.75ZM5.25 18L5.25 10H3.75L3.75 18H5.25ZM19.75 10V18H21.25V10H19.75ZM16.5 6.75C18.2949 6.75 19.75 8.20507 19.75 10H21.25C21.25 7.37665 19.1234 5.25 16.5 5.25V6.75ZM5.25 10C5.25 8.20507 6.70507 6.75 8.5 6.75V5.25C5.87665 5.25 3.75 7.37665 3.75 10H5.25Z" fill="white"/>
</svg>
