<svg width="2154" height="2154" viewBox="0 0 2154 2154" fill="none" xmlns="http://www.w3.org/2000/svg">
<g clip-path="url(#clip0_144_524)">
<path d="M1000.53 1.46652C980.922 3.19985 967.583 7.33318 962.247 13.1998C960.113 15.4665 959.846 17.3332 960.513 23.8665C960.913 28.2665 962.514 34.5332 964.248 37.9999C968.383 46.3999 984.257 62.5332 1004.13 78.7999C1026.94 97.4665 1031.21 99.0665 1039.35 91.8665C1045.22 86.7999 1048.15 79.0665 1055.62 49.5999C1064.03 16.5332 1063.63 7.19985 1053.49 1.99985C1049.22 -0.266818 1022.67 -0.533485 1000.53 1.46652Z" fill="#5EE8CE"/>
<path d="M1109.65 2.79986C1102.98 4.1332 1095.64 8.5332 1089.64 14.9332C1081.77 23.3332 1067.23 54.6665 1058.02 83.3332C1053.76 96.6665 1052.82 101.067 1052.96 110C1052.96 123.333 1056.02 129.2 1069.5 141.733C1077.1 149.067 1079.77 150.667 1085.9 152C1095.24 154.133 1100.58 152.533 1109.12 144.667C1115.79 138.8 1128.46 123.067 1133.53 114.4C1139.13 104.8 1141.53 87.4665 1141.53 56.6665C1141.53 28.1332 1140.6 20.3999 1135.79 11.0665C1132.46 4.66653 1120.19 0.799862 1109.65 2.79986Z" fill="#5EE8CE"/>
<path d="M1180.88 8.13334C1172.74 11.2 1168.74 15.4667 1164.34 26.1333C1159.14 38.4 1156.74 50.2667 1155.54 69.4667C1154.47 85.0667 1155.94 92.4 1160.21 94.6667C1165.01 97.2 1173.55 94.6667 1182.08 88.1333C1186.62 84.6667 1194.09 78.9333 1198.89 75.3333C1203.69 71.7333 1212.5 64.2667 1218.5 58.8C1231.57 47.0667 1236.24 39.0667 1236.24 28.4C1236.24 19.4667 1234.11 17.4667 1219.03 11.8667C1206.23 7.2 1188.22 5.46667 1180.88 8.13334Z" fill="#5EE8CE"/>
<path d="M866.069 18.5332C844.059 23.8666 829.252 28.7999 824.049 32.2666C818.447 36.1332 815.379 41.3332 810.576 55.0666C807.375 63.9999 806.708 68.2666 806.708 77.9999C806.841 92.6666 809.509 108.8 813.244 116.533C819.647 129.467 845.126 148.133 880.075 165.2C896.35 173.067 899.018 174 907.822 174.4L917.559 174.933L922.495 169.733C928.498 163.467 935.434 147.467 938.503 133.467C941.437 118.933 941.571 77.4666 938.503 64.3999C933.3 41.9999 921.561 22.5332 910.49 17.9999C900.351 13.8666 884.477 14.1332 866.069 18.5332Z" fill="#5EE8CE"/>
<path d="M1282.93 18.5333C1278.39 19.7333 1276.53 24.1333 1274.93 38.1333C1272.92 55.8666 1273.32 72 1276.26 98.1333C1282.4 151.467 1289.47 193.867 1295.73 213.467C1298.67 222.667 1299.74 224.667 1304.54 228C1314.01 234.8 1326.68 232.667 1339.76 222C1348.56 214.8 1349.89 210.533 1350.16 189.467C1350.29 172.267 1350.03 170.4 1345.36 154C1342.69 144.4 1338.55 128.533 1336.29 118.667C1328.02 83.3333 1322.81 67.6 1313.48 48.8C1301.34 24.4 1292.67 15.8666 1282.93 18.5333Z" fill="#5EE8CE"/>
<path d="M1333.75 38.1332C1330.82 40.2665 1330.68 40.9332 1331.48 50.6665C1332.69 65.3332 1335.35 73.3332 1341.09 79.0665C1347.23 85.1998 1353.23 87.1998 1363.1 86.2665C1372.44 85.4665 1384.58 79.0665 1393.38 70.6665C1398.32 65.8665 1399.12 64.3998 1398.72 60.2665C1398.32 55.7332 1397.65 55.0665 1387.64 49.7332C1367.1 38.7998 1340.69 33.0665 1333.75 38.1332Z" fill="#5EE8CE"/>
<path d="M766.556 47.3332C755.751 49.1999 745.746 52.9332 742.945 56.2666C740.41 59.3332 742.145 64.3999 747.747 70.1332C756.818 79.4666 773.226 83.8666 781.229 79.1999C789.1 74.5332 795.903 55.1999 792.168 48.1332C790.834 45.7332 789.5 45.3332 783.631 45.4666C779.762 45.5999 772.159 46.3999 766.556 47.3332Z" fill="#5EE8CE"/>
<path d="M1249.45 55.0667C1238.77 61.6001 1227.17 70.4001 1225.57 73.2001C1223.3 77.4667 1224.1 80.9334 1227.7 83.8667C1230.64 86.1334 1233.17 86.6667 1241.71 86.6667C1250.91 86.6667 1252.51 86.2667 1256.12 83.2001C1263.45 77.0667 1266.92 58.6667 1261.59 53.3334C1258.12 49.8667 1257.98 49.8667 1249.45 55.0667Z" fill="#5EE8CE"/>
<path d="M687.319 76.2667C684.251 79.8667 683.851 81.4667 684.251 86.6667C685.052 94.1334 695.723 116.667 698.525 116.667C701.593 116.667 702.927 108.4 702.393 93.0667C701.993 82.8001 701.192 78.0001 699.592 75.4667C696.39 70.6667 691.721 70.9334 687.319 76.2667Z" fill="#5EE8CE"/>
<path d="M1427.66 76.1334C1410.86 80 1381.37 93.0667 1369.64 101.867C1362.83 106.933 1355.36 118.533 1353.36 126.933C1348.69 147.067 1363.37 183.067 1379.64 191.733C1382.18 193.067 1386.98 193.867 1392.58 193.867C1401.12 193.867 1401.78 193.6 1412.86 186.267C1419.13 182.133 1424.73 178.667 1425.4 178.667C1427.4 178.667 1439.54 167.733 1443.4 162.533C1451.27 151.867 1462.61 116.8 1463.95 99.0667C1464.88 86.2667 1463.55 82 1457.28 77.6C1453.54 75.2 1451.14 74.6667 1442.87 74.8C1437.4 74.9334 1430.6 75.4667 1427.66 76.1334Z" fill="#5EE8CE"/>
<path d="M963.181 77.3333C959.579 78.8 957.978 87.3333 959.846 96.6666C962.78 112.533 977.054 155.467 987.725 181.333C999.597 210.267 1000.8 212.4 1004.8 214.933C1013.34 220.133 1020.81 217.333 1040.02 201.333C1058.16 186.4 1061.49 181.6 1061.49 171.067C1061.36 149.867 1046.15 130.8 1003.47 98.7999C972.251 75.3333 970.517 74.4 963.181 77.3333Z" fill="#5EE8CE"/>
<path d="M734.274 80.5335C729.339 85.4668 739.077 108 758.019 135.2C771.892 155.2 778.828 162.533 786.032 165.333C791.368 167.333 796.97 166.933 797.904 164.533C800.305 158.133 796.97 137.733 791.368 125.6C788.7 119.6 784.164 114.267 770.425 101.067C749.481 80.5335 739.744 75.0668 734.274 80.5335Z" fill="#5EE8CE"/>
<path d="M1483.82 94.9333C1476.75 107.067 1470.48 125.467 1458.34 169.333C1440.2 235.333 1439.27 239.2 1437 255.067C1432.73 285.2 1436.07 302.667 1446.07 302.667C1451.14 302.667 1465.41 294.8 1471.15 288.8C1477.69 282.133 1508.77 231.2 1517.7 212.8C1525.71 196.267 1531.04 180.133 1531.04 172.8C1531.04 161.867 1527.04 145.067 1520.51 128.4C1511.83 106.667 1507.03 98.2666 1500.1 93.3333C1492.09 87.5999 1487.96 87.9999 1483.82 94.9333Z" fill="#5EE8CE"/>
<path d="M645.3 92.9333C632.094 95.0666 580.87 119.733 570.598 128.8C564.062 134.8 563.929 135.067 563.929 142.667C563.929 149.467 564.329 150.8 568.064 154.4C575.534 161.733 631.027 187.733 658.373 196.533C682.517 204.4 692.789 205.867 698.391 201.867C701.059 200.133 701.326 198.667 701.326 189.333C701.326 172.267 694.789 149.867 681.984 123.333C671.579 101.867 658.373 90.9333 645.3 92.9333Z" fill="#5EE8CE"/>
<path d="M1212.5 95.2C1198.62 98.6666 1173.14 113.2 1146.2 133.067C1125.52 148.267 1116.45 156.667 1109.11 167.2C1103.65 175.333 1098.31 189.467 1099.38 193.2C1099.78 194.4 1100.31 197.6 1100.71 200.4C1101.78 206.8 1105.65 214.4 1110.18 218.667C1113.38 221.733 1114.98 222 1127.92 222.4C1151 223.2 1163.54 219.2 1187.02 203.6C1198.09 196.267 1219.03 176.933 1231.44 162.667C1239.84 153.067 1250.38 137.467 1253.58 129.867C1257.05 121.733 1257.05 111.333 1253.58 105.6C1247.98 96.5333 1227.7 91.3333 1212.5 95.2Z" fill="#5EE8CE"/>
<path d="M1533.98 109.067C1533.05 109.733 1531.98 112.933 1531.58 116.133C1530.91 121.067 1531.84 125.067 1536.65 138.133C1539.98 146.8 1543.72 158.133 1545.05 163.333C1548.12 174.933 1563.46 214.8 1567.73 222C1572 229.2 1582.53 239.733 1588.8 242.933C1595.47 246.267 1604.95 247.333 1611.75 245.467C1619.22 243.467 1630.96 232.667 1636.03 223.067C1644.83 206.667 1647.76 187.733 1643.63 174.267C1639.09 159.333 1620.29 143.733 1585.34 125.867C1556.52 111.2 1539.45 105.6 1533.98 109.067Z" fill="#5EE8CE"/>
<path d="M717.733 115.6C715.599 118.8 715.332 122.933 715.332 152.667C715.332 188.267 715.866 193.333 724.136 237.333C726.404 249.467 729.072 261.333 730.139 263.867C736.675 279.467 750.682 289.333 766.556 289.333C778.161 289.333 783.63 285.733 788.966 275.067C792.568 267.6 792.701 266.533 792.701 247.333C792.701 229.067 792.434 226.4 788.966 216.533C777.628 183.067 732.273 112 722.269 112C721.068 112 718.934 113.6 717.733 115.6Z" fill="#5EE8CE"/>
<path d="M824.983 155.333C816.312 158.4 811.243 164.667 809.242 175.2C808.042 182.267 811.243 241.067 813.244 246C815.379 251.333 820.714 256.8 827.784 260.933C832.853 263.867 834.588 264.267 841.124 263.6C850.462 262.533 875.273 255.867 886.212 251.2C895.149 247.467 905.954 237.6 910.623 228.667C914.091 222.133 914.091 220.667 910.623 211.467C904.62 195.867 883.944 178.533 852.729 163.067C833.654 153.6 831.653 152.933 824.983 155.333Z" fill="#5EE8CE"/>
<path d="M509.637 158.8C499.365 162 490.828 168.4 486.559 176C483.758 181.067 483.225 183.733 483.225 192.667C483.358 212.533 488.16 218.267 503.101 216.933C519.642 215.333 555.658 202 560.327 195.733C562.862 192.4 562.862 191.6 561.394 186.4C559.127 179.067 544.853 164.8 534.582 159.6C525.911 155.333 520.975 155.2 509.637 158.8Z" fill="#5EE8CE"/>
<path d="M950.642 159.067C946.906 161.6 945.572 164 941.571 176C937.702 188 937.035 191.867 937.035 202.667C936.902 224.933 943.438 233.333 959.579 231.6C972.652 230.267 982.79 221.733 982.79 212.133C982.79 201.2 969.85 166.667 963.181 159.733C958.912 155.2 956.511 155.067 950.642 159.067Z" fill="#5EE8CE"/>
<path d="M1245.98 174.133C1234.24 180.133 1219.57 191.467 1210.23 201.467C1200.76 211.867 1198.62 216 1199.16 223.733L1199.56 230L1206.89 232.667C1212.9 234.8 1217.7 235.333 1234.24 235.333C1256.12 235.333 1262.39 234 1268.66 228.267C1275.86 221.467 1278.53 201.067 1274.13 184.667C1269.99 168.533 1262.12 165.6 1245.98 174.133Z" fill="#5EE8CE"/>
<path d="M1661.77 176C1654.7 183.067 1661.24 190.133 1683.65 199.2C1686.58 200.4 1693.52 202.533 1698.99 204C1707.93 206.267 1709.39 206.267 1711.13 204.667C1714.06 201.733 1710.59 196.8 1699.66 188.4C1681.11 174.133 1667.91 169.867 1661.77 176Z" fill="#5EE8CE"/>
<path d="M1063.23 196.667C1053.76 207.067 1046.82 218.267 1046.42 223.467L1046.15 227.333H1061.49C1084.44 227.333 1092.17 224.4 1092.17 215.6C1092.17 207.2 1084.57 191.867 1079.1 189.333C1073.5 186.8 1071.1 187.867 1063.23 196.667Z" fill="#5EE8CE"/>
<path d="M596.877 196.133C591.408 199.333 589.94 205.067 589.94 224.267C589.94 240.8 590.207 242.8 592.742 246.267C595.143 249.333 596.61 250 600.745 249.733C608.616 249.467 619.287 244.933 636.095 234.8C653.57 224.267 656.638 220.667 652.369 214.8C647.434 208.267 630.092 200.4 612.217 196.667C600.879 194.267 600.078 194.267 596.877 196.133Z" fill="#5EE8CE"/>
<path d="M448.141 209.467C442.539 211.067 419.861 224.933 406.122 235.067C393.716 244.267 365.436 268.933 361.301 274.133C357.699 278.667 358.099 284 362.101 285.467C364.369 286.267 370.905 283.6 392.115 273.2C426.798 256 441.738 247.2 451.876 237.733C464.549 226.133 467.217 217.867 460.547 211.333C457.079 207.733 455.078 207.467 448.141 209.467Z" fill="#5EE8CE"/>
<path d="M1397.65 211.467C1381.11 216.4 1372.7 220.267 1349.76 233.867C1334.02 243.2 1328.82 246.933 1327.22 250.267C1324.01 256.933 1327.08 260.4 1338.55 263.067C1343.49 264.267 1353.36 266.533 1360.3 268.133C1377.91 272.4 1398.72 272.533 1406.32 268.4C1418.86 261.733 1423.39 251.067 1423.53 227.6C1423.66 213.467 1423.39 211.6 1421.13 209.867C1417.39 207.2 1410.72 207.6 1397.65 211.467Z" fill="#5EE8CE"/>
<path d="M1662.44 216.133C1654.43 223.2 1653.77 225.733 1653.77 246.533C1653.77 264.8 1654.7 272.667 1661.9 318C1666.31 344.933 1670.58 354.8 1678.85 356.4C1684.98 357.733 1699.39 354.533 1708.99 349.733C1730.6 338.8 1744.74 328.933 1768.09 307.733C1787.43 290.267 1789.56 286.667 1787.16 276.4C1785.83 270 1784.36 267.867 1775.42 258.8C1756.75 240 1733.14 227.467 1696.05 216.667C1675.51 210.667 1668.84 210.533 1662.44 216.133Z" fill="#5EE8CE"/>
<path d="M1533.05 217.333C1528.64 219.067 1523.17 225.333 1518.1 234.533C1515.44 239.467 1511.44 246.267 1509.3 250C1505.83 255.733 1491.96 281.067 1486.09 292.267C1481.82 300.4 1482.22 311.2 1486.89 312.667C1490.23 313.733 1504.37 308 1515.97 300.933C1520.91 297.867 1526.78 294.4 1528.91 293.333C1538.91 288.133 1551.05 270.933 1553.05 259.067C1554.39 250.933 1547.85 222 1543.98 219.067C1541.45 216.933 1535.98 216.133 1533.05 217.333Z" fill="#5EE8CE"/>
<path d="M526.578 226.4C522.576 227.867 512.705 231.867 504.568 235.6C496.564 239.2 486.96 243.333 483.358 244.667C475.755 247.467 467.617 254.4 465.216 260C462.148 267.333 464.549 272.8 474.954 283.733C484.559 293.6 514.439 319.867 524.577 327.333C527.512 329.467 533.648 334.4 538.184 338.267C546.054 344.933 554.591 348.667 559.66 347.733C560.861 347.467 563.128 344.933 564.596 342C566.997 337.067 567.264 334.133 567.13 303.333C567.13 266.133 565.129 250 559.127 237.733C553.257 225.733 541.252 221.467 526.578 226.4Z" fill="#5EE8CE"/>
<path d="M667.977 237.867C650.769 242.667 622.489 261.733 607.282 278.8C592.876 294.933 589.407 304.933 589.407 330C589.407 349.067 590.741 355.867 595.277 359.733C598.478 362.533 599.812 362.8 605.148 362C613.685 360.8 633.694 354.133 643.299 349.6C654.504 344.133 693.589 322.133 700.392 317.467C707.996 312.267 717.066 302.267 718.134 298C720.001 290.667 714.132 261.333 708.929 251.2C702.526 238.8 685.052 233.2 667.977 237.867Z" fill="#5EE8CE"/>
<path d="M1589.07 275.867C1568.93 283.867 1561.73 287.6 1545.05 298.4C1523.57 312.4 1519.17 316.8 1519.04 325.2C1519.04 331.333 1522.91 337.2 1531.98 344.133C1546.65 355.467 1572.13 369.467 1586.27 373.867C1595.87 376.933 1606.41 376.267 1611.88 372.4C1616.42 369.2 1627.22 350.133 1631.09 338.8C1634.83 327.733 1639.09 302.4 1639.09 291.733C1639.09 281.067 1635.89 273.467 1630.42 270.933C1628.56 270 1622.02 269.333 1616.02 269.467C1606.15 269.467 1603.48 270.133 1589.07 275.867Z" fill="#5EE8CE"/>
<path d="M419.862 280.933C408.256 282.667 391.982 287.6 383.712 291.733C364.903 301.333 364.636 313.467 383.045 322.933C391.982 327.467 442.139 345.067 462.548 350.8C483.625 356.8 498.965 358.667 503.901 356C506.569 354.533 506.835 353.733 506.168 347.733C505.235 340 500.299 328.8 494.963 322C487.226 312.133 462.281 291.733 452.143 287.2C443.873 283.333 429.066 279.6 424.531 280.133C423.864 280.267 421.729 280.533 419.862 280.933Z" fill="#5EE8CE"/>
<path d="M1804.37 300.4C1797.43 305.066 1792.1 314.8 1791.43 324C1790.5 337.466 1792.9 341.866 1804.5 347.066C1809.44 349.333 1814.11 349.866 1832.52 350.4C1857.86 351.066 1859.2 350.666 1859.2 341.2C1859.2 335.333 1857.33 332.933 1838.65 313.6C1822.78 297.2 1814.11 293.866 1804.37 300.4Z" fill="#5EE8CE"/>
<path d="M315.547 324.133C304.608 329.867 270.859 366 264.323 379.067C257.92 391.733 258.854 403.867 266.857 409.867C280.063 419.867 329.953 434 361.435 436.8C382.911 438.667 393.183 434.8 393.183 424.933C393.183 419.333 383.578 390 378.376 379.6C369.705 362.667 356.366 341.6 349.429 334.4C337.557 322 326.085 318.4 315.547 324.133Z" fill="#5EE8CE"/>
<path d="M1766.22 325.466C1759.55 328.8 1746.88 339.733 1734.34 353.2C1718.87 369.733 1717.53 373.733 1726.34 377.866C1735.94 382.4 1751.81 379.066 1761.15 370.533C1765.82 366.133 1767.69 362.933 1771.56 352.266C1774.09 345.2 1776.49 338.133 1776.89 336.666C1779.03 328 1779.03 326.8 1777.03 324.8C1774.36 322 1772.89 322.133 1766.22 325.466Z" fill="#5EE8CE"/>
<path d="M401.586 349.333C395.05 352 392.649 362.133 395.183 376.667C397.985 392.8 403.054 408.8 413.459 435.333C425.731 466.533 433.068 481.2 439.204 486.4C443.339 490.133 444.94 490.667 451.343 490.667C460.414 490.667 463.882 488.8 472.82 479.733C480.957 471.467 485.492 462.133 492.562 439.333C501.233 410.8 500.432 388.533 490.161 380.8C487.76 378.933 478.422 374.4 469.218 370.667C460.014 366.8 446.007 361.067 437.87 357.733C425.197 352.4 410.257 348 405.855 348.133C405.188 348.133 403.187 348.667 401.586 349.333Z" fill="#5EE8CE"/>
<path d="M1642.03 358.667C1630.42 370.133 1625.35 378.267 1625.22 386C1624.95 396 1630.16 398.533 1639.36 392.933C1647.63 387.867 1649.77 384 1652.7 367.867C1655.24 353.467 1655.24 349.333 1652.57 349.333C1651.9 349.333 1647.1 353.467 1642.03 358.667Z" fill="#5EE8CE"/>
<path d="M1802.5 362.533C1788.5 368.933 1784.9 376.4 1769.95 429.867C1759.82 465.6 1769.15 480.4 1794.5 468.8C1802.64 465.067 1842.66 439.333 1861.86 425.6C1888.94 406 1897.88 396.667 1897.88 387.867C1897.88 381.733 1895.75 379.867 1883.21 374.933C1870.13 369.733 1861.06 367.2 1847.19 364.8C1840.92 363.733 1832.65 362.133 1828.65 361.333C1818.11 359.333 1808.51 359.733 1802.5 362.533Z" fill="#5EE8CE"/>
<path d="M528.312 368.667C524.71 371.2 522.043 379.333 518.574 397.867C515.239 416 515.106 427.733 518.041 428.933C523.243 430.933 534.448 422.533 544.987 409.067C552.723 399.067 554.591 394.8 554.591 387.733C554.591 382.667 553.791 380.533 550.589 376.8C546.587 372.267 536.983 366.667 533.114 366.667C532.047 366.667 529.913 367.6 528.312 368.667Z" fill="#5EE8CE"/>
<path d="M1721.13 394.267C1670.04 400.667 1639.23 407.867 1636.96 413.867C1633.76 422.4 1685.52 475.867 1704.46 483.467C1708.19 485.067 1713.93 486 1719.67 486C1728.74 486 1728.74 486 1733.8 480.267C1743.68 469.2 1753.55 439.467 1754.75 417.467C1755.68 402.267 1753.68 395.733 1747.94 394.133C1745.01 393.333 1727.8 393.333 1721.13 394.267Z" fill="#5EE8CE"/>
<path d="M1905.62 418.533C1901.48 419.867 1893.35 423.6 1887.61 426.667C1873.6 434.4 1817.71 470.8 1808.51 478.267C1801.44 484 1792.5 494 1792.5 496.133C1792.5 496.667 1792.23 498 1791.83 498.933C1789.96 503.867 1809.04 515.6 1825.58 519.6C1831.58 521.067 1840.79 521.867 1853.86 521.867C1872.4 522 1873.47 521.867 1880.81 518.267C1894.68 511.467 1907.35 493.867 1917.76 467.2C1923.76 452 1926.69 441.867 1927.9 433.333C1928.83 426.267 1925.36 419.467 1919.76 417.333C1915.36 415.6 1914.69 415.733 1905.62 418.533Z" fill="#5EE8CE"/>
<path d="M225.371 437.467C213.766 443.2 200.96 457.333 188.954 477.733C183.752 486.667 178.149 496.133 176.549 498.667C167.344 513.467 162.009 532.4 163.743 543.6C165.21 552.533 167.478 556.667 175.215 564.4C186.82 575.867 205.896 579.067 220.569 571.867C228.706 568 261.388 531.867 266.057 521.733C274.861 502.533 273.127 486 259.387 458C254.585 448.4 249.249 439.067 247.381 436.933C242.579 432 236.043 432.133 225.371 437.467Z" fill="#5EE8CE"/>
<path d="M1943.5 444.8C1937.63 448.933 1927.23 474.667 1927.23 485.2C1927.23 489.2 1930.7 495.6 1933.76 497.333C1938.43 499.733 1958.04 503.867 1969.38 504.8C1983.12 505.867 1984.59 505.067 1984.59 495.467C1984.59 486.667 1980.45 477.733 1968.45 461.067C1955.24 442.667 1950.71 439.733 1943.5 444.8Z" fill="#5EE8CE"/>
<path d="M292.603 446.667C283.398 447.867 282.064 450.133 282.998 462.667C283.398 468.133 285.266 477.467 287.133 483.2C293.003 501.2 304.742 522.267 310.611 525.333C314.213 527.333 321.816 527.333 328.886 525.467C334.089 524 369.838 501.2 376.508 495.067C377.976 493.733 383.978 488.933 389.981 484.4C400.92 476 404.788 470.533 403.321 465.6C401.453 460 372.773 450.4 350.896 448.133C334.622 446.267 301.273 445.467 292.603 446.667Z" fill="#5EE8CE"/>
<path d="M400.119 504C384.645 508.667 355.699 525.467 339.825 538.933C328.486 548.533 323.55 557.333 323.417 568C323.417 575.2 323.817 576.4 328.886 583.067C341.559 599.467 355.298 604 369.305 596.533C384.112 588.533 402.254 566.8 420.662 534.8C426.265 524.933 427.065 522.667 427.199 515.867C427.199 509.6 426.665 507.467 424.264 505.2C420.262 501.2 410.791 500.667 400.119 504Z" fill="#5EE8CE"/>
<path d="M1746.61 514.933C1745.41 516.533 1744.48 519.6 1744.48 521.6C1744.48 530 1764.49 562.933 1792.1 600C1821.98 640.133 1832.92 643.067 1847.19 614.667C1861.73 585.6 1867.2 568.533 1864.8 559.333C1862.53 550.933 1839.85 536.8 1816.38 528.933C1785.3 518.667 1760.62 512 1753.28 512C1749.95 512 1748.08 512.8 1746.61 514.933Z" fill="#5EE8CE"/>
<path d="M1933.9 518.4C1919.62 522.267 1914.16 526.933 1900.95 547.333C1878.67 581.333 1875.34 587.333 1864.67 612.667C1861.46 620 1857.73 628.933 1856.13 632.533C1851.73 642.533 1852.26 655.867 1857.33 663.067C1862.53 670.267 1868.67 673.333 1878.01 673.333C1887.08 673.333 1894.55 670.8 1917.22 660C1969.91 635.2 2006.2 613.733 2017.27 601.067C2026.07 591.067 2029.28 582.4 2029.28 569.333C2029.28 558.8 2028.88 557.333 2025.14 551.6C2017.67 540 2001.26 530.133 1975.25 521.333C1959.24 516 1946.17 515.067 1933.9 518.4Z" fill="#5EE8CE"/>
<path d="M273.661 543.333C266.057 547.867 250.983 566.4 249.916 572.667C248.049 582.667 257.386 588.933 276.062 590.267C296.871 591.6 303.408 587.467 302.074 573.6C301.407 565.2 294.203 546.4 290.202 542.4C286.867 539.067 280.197 539.333 273.661 543.333Z" fill="#5EE8CE"/>
<path d="M138.931 565.333C130.794 568.533 116.387 596 116.387 608.133C116.387 612.533 117.188 615.333 118.922 617.2C123.457 622.267 136.396 629.2 145.467 631.6C152.938 633.6 155.339 633.733 161.875 632.267C171.88 630.267 175.748 626.667 175.748 619.333C175.748 612.4 173.881 606.8 165.61 590C158.807 576 153.604 569.067 147.602 565.867C143.333 563.733 142.799 563.733 138.931 565.333Z" fill="#5EE8CE"/>
<path d="M224.304 598.8C221.369 599.467 215.633 602 211.632 604.4C201.494 610.4 199.092 615.733 199.226 631.333C199.359 641.467 200.026 645.067 203.628 654.133C211.498 674.4 223.237 687.6 236.977 691.467C249.649 695.2 281.131 692.933 300.606 686.933C314.479 682.533 336.756 663.2 344.093 648.933C348.629 640.133 350.763 629.467 348.762 625.467C345.427 618.4 330.353 612.267 302.874 606.8C256.319 597.333 238.711 595.6 224.304 598.8Z" fill="#5EE8CE"/>
<path d="M2030.48 617.333C2026.74 619.466 2021.14 624 2018.07 627.466C2012.2 634.133 1980.99 685.333 1975.52 697.2C1967.91 713.866 1971.38 732.133 1983.39 739.066C1990.59 743.2 2012.87 751.2 2025.27 754.133C2030.48 755.333 2039.41 756.4 2045.42 756.4C2055.15 756.666 2056.75 756.266 2062.76 752.666C2068.23 749.333 2070.09 747.066 2074.23 738.8C2079.97 727.2 2081.97 717.066 2081.97 700.533C2081.83 686.133 2080.9 681.333 2073.16 660C2066.76 642.4 2064.63 638.266 2056.22 627.066C2046.88 614.4 2039.95 611.866 2030.48 617.333Z" fill="#5EE8CE"/>
<path d="M114.92 643.866C95.8447 648.8 83.3055 664 73.0341 694.4C66.7645 713.066 67.9651 722.4 77.0359 727.066C80.9044 729.066 83.5723 729.333 92.3764 728.666C129.994 725.733 166.811 717.6 187.087 708C196.425 703.6 198.426 700.266 198.426 690C198.426 683.333 193.49 675.2 184.819 667.2C175.615 658.666 169.746 655.333 153.738 649.333C138.398 643.466 124.124 641.466 114.92 643.866Z" fill="#5EE8CE"/>
<path d="M1960.58 654.533C1957.24 655.867 1945.24 661.733 1933.9 667.733C1905.62 682.667 1899.75 689.6 1908.29 697.733C1913.49 702.667 1927.63 708.267 1937.37 708.933C1949.91 710 1958.84 704.267 1969.91 688.133C1980.32 672.8 1984.05 661.067 1980.59 654.533C1978.72 651.2 1968.98 651.2 1960.58 654.533Z" fill="#5EE8CE"/>
<path d="M1854.79 691.6C1851.46 695.333 1851.99 704 1856 714.4C1857.86 719.333 1860 725.067 1860.8 727.067C1864.4 736.4 1873.2 736.533 1881.61 727.333C1896.01 711.867 1894.41 704.533 1874.8 695.333C1862 689.2 1857.73 688.4 1854.79 691.6Z" fill="#5EE8CE"/>
<path d="M258.453 705.6C245.781 706.933 234.175 709.2 199.092 717.467C140.932 731.2 118.255 742 111.718 759.333C109.718 764.667 109.584 777.067 111.585 783.067C113.453 788.8 120.523 795.333 128.926 799.2C133.862 801.333 137.731 801.867 148.402 801.867C162.542 801.733 169.345 799.867 197.091 788.267C225.371 776.267 283.798 740.4 294.337 728.4C303.407 718.133 301.273 708.667 289.134 705.333C283.932 704 274.727 704 258.453 705.6Z" fill="#5EE8CE"/>
<path d="M2090.77 720.266C2088.1 724.4 2086.5 731.333 2084.1 748.666C2076.63 801.2 2073.03 865.6 2077.03 874.933C2078.63 878.8 2080.23 880.133 2084.5 881.466C2091.57 883.6 2096.37 881.6 2103.71 873.333C2115.32 860.266 2123.99 842.133 2125.85 826.666C2127.05 817.866 2125.99 797.733 2123.85 786.666C2120.25 767.333 2107.18 728.133 2102.11 721.333C2098.77 716.8 2093.44 716.266 2090.77 720.266Z" fill="#5EE8CE"/>
<path d="M1902.55 724.4C1896.41 727.2 1884.81 738.4 1881.47 744.533C1879.07 748.933 1878.54 752.267 1878.54 762C1878.54 781.2 1882.41 788.533 1896.95 796.533C1916.96 807.6 1942.3 811.733 1964.45 807.6C1977.38 805.067 1985.52 800.4 1994.46 790.533C2003.93 780 2003.4 773.733 1991.93 761.467C1984.32 753.333 1974.18 747.2 1945.9 734C1926.96 725.067 1922.69 723.6 1915.22 723.067C1909.62 722.8 1905.08 723.2 1902.55 724.4Z" fill="#5EE8CE"/>
<path d="M71.2996 756.533C57.2931 761.733 49.6896 770.4 40.3519 792C27.9461 820.933 26.6122 828.8 32.3482 841.067C41.5525 861.067 67.031 886.667 77.4358 886.667C90.2417 886.667 96.6447 858.667 97.9787 797.333L98.6456 764.666L93.9768 760.133C90.1083 756.533 87.8406 755.466 82.7716 755.066C79.3033 754.8 74.1009 755.466 71.2996 756.533Z" fill="#5EE8CE"/>
<path d="M267.791 765.333C263.789 766.533 246.581 774.533 233.775 780.933C216.301 789.733 198.025 803.2 192.823 810.933C184.019 823.867 191.756 834.933 214.566 842.533C227.239 846.667 235.376 847.333 243.913 844.933C261.255 839.867 269.925 825.6 275.795 792.8C278.996 775.2 279.13 768.8 276.328 766.133C274.061 763.867 272.86 763.733 267.791 765.333Z" fill="#5EE8CE"/>
<path d="M2042.88 776.667C2033.01 779.333 2017.94 786.933 2007.67 794.4C1998.99 800.8 1995.26 805.467 1995.26 810.133C1995.26 813.467 2005.93 823.867 2013.13 827.2C2021.54 831.333 2034.88 834 2041.01 832.8C2047.42 831.6 2056.09 824.933 2059.02 819.067C2065.69 805.867 2069.16 778.933 2064.63 776C2061.82 774.267 2050.49 774.533 2042.88 776.667Z" fill="#5EE8CE"/>
<path d="M132.128 820C121.59 821.467 117.054 825.067 111.318 836.267C103.848 850.933 100.647 865.467 101.314 881.867C101.847 894.267 102.247 896.133 107.183 906.667C120.389 934.133 143.867 958.8 179.083 982.4C199.492 996 207.763 1000 215.233 1000C218.968 1000 223.103 999.2 224.437 998.133C227.639 995.867 228.973 984.4 227.505 972.267C224.838 950.133 197.225 870.4 186.153 852.933C181.084 845.067 172.146 836.933 158.007 827.6C146.134 819.6 142.666 818.667 132.128 820Z" fill="#5EE8CE"/>
<path d="M1900.68 820.933C1892.55 824.933 1892.28 830.533 1899.22 848C1900.82 852 1903.08 857.733 1904.15 860.667C1913.35 885.733 1929.23 908.667 1946.84 922.267C1966.58 937.467 1976.72 941.333 1996.19 941.333C2013.67 941.333 2016.6 939.467 2032.34 918.667C2042.75 904.933 2045.55 898.267 2046.88 883.867C2047.42 877.333 2047.15 874.133 2045.55 871.067C2042.61 865.6 2030.08 854.267 2020.87 848.933C2011.53 843.6 1975.52 829.2 1961.91 825.333C1938.7 818.933 1909.22 816.8 1900.68 820.933Z" fill="#5EE8CE"/>
<path d="M221.636 854.933C217.367 856.933 215.5 862.133 214.7 873.333C214.033 885.733 216.434 895.867 223.904 911.867C229.24 923.333 234.709 930.667 238.044 930.667C240.978 930.667 243.38 924.933 245.647 912.533C248.048 898.533 248.449 882.933 246.314 875.6C244.847 870 231.507 855.333 227.105 854.133C225.638 853.867 223.103 854.133 221.636 854.933Z" fill="#5EE8CE"/>
<path d="M2123.99 872.266C2116.12 875.066 2095.44 893.6 2091.97 900.8C2090.1 904.8 2090.1 905.733 2091.84 909.066C2096.24 917.6 2125.32 939.066 2138.39 943.466C2146.26 946.133 2150.93 945.066 2152.8 940.266C2154.93 935.066 2153.33 912.666 2149.87 896.133C2146.13 878.533 2141.46 871.466 2133.32 871.066C2130.39 870.933 2126.25 871.466 2123.99 872.266Z" fill="#5EE8CE"/>
<path d="M27.5463 881.867C21.5435 887.867 17.8084 897.2 17.2748 907.467C16.7413 916.667 16.8746 917.067 20.6097 919.733C26.6125 924 40.3522 929.867 56.6264 935.2C74.6348 940.933 83.8391 942.267 91.0424 939.733C103.715 935.6 97.5788 925.2 66.7645 898.533C52.8914 886.667 39.8186 878.667 33.9492 878.667C32.0817 878.667 29.2804 880.133 27.5463 881.867Z" fill="#5EE8CE"/>
<path d="M2061.02 927.867C2057.96 929.333 2050.89 934.8 2045.42 940.133C2032.61 952.533 2024.61 967.067 2024.61 978.133C2024.61 985.067 2025.01 985.867 2031.01 992.267C2046.75 1009.33 2078.36 1033.2 2097.04 1042.13C2113.85 1050 2136.66 1051.33 2148.8 1044.93C2153.33 1042.53 2154.8 1040.53 2157.47 1034.13C2160.14 1027.47 2160.67 1024 2160.67 1011.33C2160.67 994.533 2158.94 983.067 2155.33 976C2148.26 962.133 2108.51 933.867 2087.7 928C2076.36 924.667 2068.23 924.667 2061.02 927.867Z" fill="#5EE8CE"/>
<path d="M1938.57 953.067C1933.9 956.4 1932.56 961.333 1932.56 975.867C1932.56 1008 1937.1 1038.53 1944.57 1055.73C1947.9 1063.33 1959.64 1075.33 1967.65 1079.07C1977.78 1084 1990.86 1080.27 1997.79 1070.53C2007.67 1057.07 2011.93 1028.93 2006.87 1011.73C2003.93 1002.27 1991.66 985.6 1979.65 974.933C1970.31 966.667 1956.17 956.4 1951.91 954.8C1947.24 952.933 1939.9 952 1938.57 953.067Z" fill="#5EE8CE"/>
<path d="M36.7505 954.8C27.2794 956.133 22.6106 958.533 17.4082 964.533C11.1386 971.6 7.80369 982.267 6.86993 997.733C5.66937 1016.8 9.00425 1026.67 18.7421 1033.87C27.0126 1040 54.0919 1035.47 76.3689 1024.27C88.5078 1018.27 131.194 989.867 134.529 985.6C138.131 980.933 137.731 979.333 132.128 973.467C123.858 964.933 97.7121 957.333 67.5648 954.667C50.4902 953.2 47.5555 953.2 36.7505 954.8Z" fill="#5EE8CE"/>
<path d="M136.397 1002.53C129.994 1004.8 124.925 1007.47 108.517 1017.07C98.2455 1022.93 77.0356 1043.73 77.0356 1047.73C77.0356 1052.13 86.5067 1061.6 95.711 1066.53C106.916 1072.53 124.524 1078.27 164.41 1089.2C201.894 1099.33 212.965 1100.8 225.104 1096.93C234.042 1094.13 236.443 1090 236.31 1077.6C236.176 1065.07 233.508 1057.07 225.371 1044.67C219.635 1035.73 198.425 1013.33 195.757 1013.33C195.09 1013.33 192.022 1011.6 188.821 1009.6C174.548 1000.27 151.203 997.067 136.397 1002.53Z" fill="#5EE8CE"/>
<path d="M2030.21 1023.6C2027.68 1027.33 2022.87 1040.8 2021.27 1048.93C2020.21 1054.53 2022.47 1061.47 2026.61 1065.33C2030.74 1069.2 2039.55 1069.33 2057.16 1066.13C2082.77 1061.2 2083.57 1053.47 2060.62 1034C2043.15 1019.33 2035.15 1016.67 2030.21 1023.6Z" fill="#5EE8CE"/>
<path d="M12.4725 1062.67C1.53408 1066.13 -1.00043 1073.87 0.0667348 1101.07C1.26729 1136.13 5.80273 1146.8 32.0816 1176.27C47.1553 1193.2 61.6953 1201.33 71.8334 1198.67C77.436 1197.07 87.9742 1186.53 95.4443 1174.67C97.9789 1170.67 102.914 1163.07 106.383 1158C113.986 1146.8 117.988 1138.93 124.124 1124C129.994 1109.33 130.661 1106.67 129.06 1101.33C127.459 1095.6 123.057 1091.07 116.387 1088C104.248 1082.4 65.4304 1067.73 55.9593 1065.2C44.6207 1062.13 18.7421 1060.53 12.4725 1062.67Z" fill="#5EE8CE"/>
<path d="M2094.64 1076.67C2071.56 1079.33 2034.48 1085.07 2025.94 1087.47C2009.53 1091.87 2007.93 1093.73 2012.6 1103.2C2015.4 1109.2 2021.41 1114 2030.74 1118C2041.41 1122.53 2062.49 1129.33 2076.36 1132.8C2088.77 1135.87 2092.51 1136.13 2104.64 1135.6C2140.39 1133.87 2166.01 1116.93 2166.01 1095.07C2166.01 1089.47 2160 1082.53 2151.73 1078.53C2146.4 1076 2142.93 1075.47 2128.12 1075.2C2118.52 1074.93 2103.44 1075.6 2094.64 1076.67Z" fill="#5EE8CE"/>
<path d="M1947.64 1109.87C1945.1 1111.07 1942.04 1114.27 1939.9 1118C1936.3 1124.13 1936.17 1124.4 1936.97 1141.07C1938.03 1163.47 1942.3 1185.2 1947.9 1196C1954.71 1209.2 1984.19 1206.4 2019 1189.2C2038.88 1179.47 2045.95 1173.2 2045.95 1165.47C2045.95 1158.8 2041.55 1152.4 2033.41 1147.33C2029.94 1145.07 2020.61 1139.2 2012.87 1134.27C1994.99 1122.93 1979.12 1114.13 1971.25 1111.6C1961.64 1108.4 1952.44 1107.73 1947.64 1109.87Z" fill="#5EE8CE"/>
<path d="M154.005 1110.4C148.269 1111.87 140.932 1118.53 137.998 1125.2C135.73 1130.13 135.196 1133.87 135.33 1144C135.33 1159.33 138.531 1169.6 147.202 1183.07C155.739 1196.27 177.482 1218.27 185.753 1222.13C199.226 1228.53 213.766 1225.2 226.839 1212.93C240.712 1199.87 244.047 1167.73 233.108 1151.73C231.374 1149.33 225.105 1142.4 218.968 1136.4C207.63 1125.2 195.891 1118.27 179.217 1112.8C171.747 1110.27 159.341 1109.07 154.005 1110.4Z" fill="#5EE8CE"/>
<path d="M2125.85 1149.07C2118.38 1151.6 2098.37 1161.73 2059.96 1182.67C2030.34 1198.8 2010.6 1209.33 2001.53 1214C1979.12 1225.47 1971.12 1238.27 1977.38 1253.07C1981.52 1263.07 1992.99 1271.33 2009.93 1276.67C2025.27 1281.47 2073.3 1280.67 2090.9 1275.33C2099.17 1272.8 2117.45 1262.13 2123.72 1256.13C2133.32 1247.07 2144.53 1222.8 2151.2 1196.67C2158.4 1169.07 2158 1156.4 2149.73 1150.27C2144.8 1146.53 2134.92 1146.13 2125.85 1149.07Z" fill="#5EE8CE"/>
<path d="M96.2448 1190.53C88.7747 1193.73 56.0929 1239.2 46.0882 1260.13C38.2179 1276.4 36.4838 1282.93 38.3513 1288.67C41.286 1297.73 59.5611 1310.4 84.3727 1320.67C92.91 1324.13 95.0443 1324.53 109.718 1324.53C124.258 1324.4 126.526 1324.13 133.462 1320.93C147.335 1314.53 172.547 1297.6 183.485 1287.33C198.159 1273.47 196.825 1268.67 170.413 1240.53C162.676 1232.4 154.005 1222.67 151.204 1219.2C144 1210.27 132.128 1200.27 122.39 1194.93C113.853 1190.13 101.847 1188.13 96.2448 1190.53Z" fill="#5EE8CE"/>
<path d="M11.8054 1196.8C6.06943 1204 6.33622 1229.2 12.2056 1247.6C15.2737 1256.93 16.4743 1258.93 19.9425 1260.8C23.811 1262.8 24.0778 1262.8 28.88 1259.07C35.0162 1254.13 39.685 1245.07 39.685 1238C39.685 1219.33 33.6822 1203.73 24.0778 1197.47C16.6077 1192.4 15.2737 1192.4 11.8054 1196.8Z" fill="#5EE8CE"/>
<path d="M225.772 1235.6C217.234 1240 209.097 1250.53 207.096 1259.73C205.629 1266.8 208.831 1276.53 216.567 1288.13C227.372 1304.27 229.907 1307.33 237.911 1313.47C243.38 1317.73 246.315 1319.07 250.45 1319.2C258.987 1319.33 260.455 1316.8 260.188 1302.27C259.654 1273.6 250.983 1241.6 242.179 1235.47C238.444 1232.8 230.974 1232.8 225.772 1235.6Z" fill="#5EE8CE"/>
<path d="M1935.5 1236.67C1929.9 1239.07 1926.16 1247.07 1920.43 1268.67C1916.69 1283.07 1916.16 1286.67 1916.02 1305.33C1915.89 1324.8 1916.02 1326.4 1919.09 1332C1927.63 1348 1940.7 1356.53 1959.38 1358.13C1976.72 1359.6 1997.66 1354.4 2006.07 1346.53C2010.2 1342.67 2010.2 1342.53 2009.67 1332.27C2009.13 1323.87 2008.2 1320 2004.2 1311.73C1990.59 1283.47 1954.84 1239.2 1942.57 1235.6C1941.1 1235.2 1937.9 1235.6 1935.5 1236.67Z" fill="#5EE8CE"/>
<path d="M2045.28 1293.33C2033.28 1295.2 2027.27 1298.27 2027.27 1302.53C2027.27 1310 2038.21 1325.33 2054.75 1340.8C2092.1 1375.87 2100.78 1380.8 2110.65 1373.07C2114.78 1369.87 2123.19 1352.93 2126.79 1340.53C2129.72 1330.27 2130.12 1308.13 2127.45 1304.8C2124.39 1301.2 2113.98 1296.4 2105.31 1294.67C2094.91 1292.67 2055.55 1291.73 2045.28 1293.33Z" fill="#5EE8CE"/>
<path d="M198.159 1306.67C192.556 1308.4 180.15 1317.2 175.081 1323.07C163.876 1336.13 160.408 1349.07 162.542 1370.27C164.81 1393.07 169.879 1409.33 174.681 1409.33C177.482 1409.33 186.42 1399.2 192.423 1389.2C204.028 1369.73 212.032 1342.8 212.299 1322.93C212.432 1311.33 212.165 1310.27 209.23 1307.87C205.896 1305.2 203.895 1304.93 198.159 1306.67Z" fill="#5EE8CE"/>
<path d="M42.7531 1323.73C40.2185 1325.33 40.3519 1334.67 42.7531 1339.6C43.9536 1341.87 46.8883 1345.2 49.2894 1346.93C53.2913 1349.73 55.0254 1350 66.364 1349.73C81.5711 1349.47 93.5767 1346.13 94.1102 1342C94.5104 1339.07 84.3724 1331.87 72.5002 1326.53C65.4302 1323.47 45.6877 1321.6 42.7531 1323.73Z" fill="#5EE8CE"/>
<path d="M1898.68 1335.07C1895.08 1340.4 1889.88 1356.93 1889.88 1362.67C1889.88 1367.73 1892.55 1372 1895.61 1372C1896.41 1372 1899.62 1371.07 1902.55 1369.87C1908.42 1367.6 1912.55 1362.4 1912.55 1357.07C1912.55 1351.07 1908.42 1339.87 1904.68 1335.73L1900.95 1331.47L1898.68 1335.07Z" fill="#5EE8CE"/>
<path d="M245.647 1342.67C236.176 1348 227.639 1359.07 218.435 1378.13C207.896 1399.6 203.628 1412.67 203.494 1423.73C203.228 1434.13 205.362 1438.93 212.565 1445.2C218.568 1450.53 222.303 1452 229.907 1452C244.714 1452 277.262 1435.73 291.135 1421.47C296.338 1416 296.471 1415.6 296.871 1405.33C297.538 1393.33 295.404 1385.33 288.334 1372.53C283.532 1363.73 274.327 1351.73 266.324 1343.6C260.054 1337.33 255.118 1337.2 245.647 1342.67Z" fill="#5EE8CE"/>
<path d="M112.385 1348.53C81.0375 1358.93 62.8957 1370.67 57.2931 1384C54.0916 1391.87 55.559 1409.47 60.4946 1420C69.5655 1439.2 78.6363 1444.27 103.715 1444.27C114.52 1444.27 121.99 1440.4 128.793 1431.6C140.932 1415.87 144.4 1404 144.267 1379.33C144.267 1364.53 143.867 1361.07 141.466 1355.73C136.53 1344.93 128.926 1343.07 112.385 1348.53Z" fill="#5EE8CE"/>
<path d="M2027.94 1358C2024.87 1360.93 2024.61 1362.27 2024.61 1372.93C2024.61 1392.67 2030.48 1420.27 2042.21 1456C2047.68 1472.67 2050.35 1478 2057.15 1484.67C2065.69 1492.93 2067.96 1493.07 2075.03 1485.87C2078.23 1482.53 2081.97 1477.2 2083.17 1474.27C2091.7 1454.27 2091.84 1416.4 2083.43 1399.47C2078.63 1389.87 2067.29 1376.53 2055.29 1366.4C2040.75 1354 2033.94 1352 2027.94 1358Z" fill="#5EE8CE"/>
<path d="M1935.23 1374.13C1920.69 1378 1894.41 1386.93 1890.28 1389.47C1884.94 1392.8 1876.8 1401.73 1875.07 1406.27C1871.87 1414.8 1879.21 1430.8 1892.95 1445.07C1906.42 1458.93 1955.24 1491.2 1973.52 1498.27C1985.66 1502.8 2009.27 1504.27 2014.74 1500.67C2022.34 1495.73 2023.67 1484.27 2019.27 1458.67C2015.27 1435.07 2001.53 1396.67 1993.13 1385.6C1984.45 1374.27 1955.91 1368.67 1935.23 1374.13Z" fill="#5EE8CE"/>
<path d="M153.738 1434.13C146.535 1437.73 140.932 1444.4 135.33 1456C129.86 1467.2 129.86 1467.6 129.86 1481.33C129.86 1496.93 132.395 1507.07 137.464 1511.73C142.533 1516.53 151.604 1519.6 177.749 1525.2C191.756 1528.27 205.229 1531.33 207.763 1532C223.37 1536 231.107 1534.53 235.109 1526.67C240.045 1517.2 236.043 1507.73 216.701 1482C195.091 1453.47 180.551 1439.47 167.611 1434.53C159.607 1431.47 158.807 1431.47 153.738 1434.13Z" fill="#5EE8CE"/>
<path d="M283.798 1450.27C276.195 1452.93 267.791 1458.53 257.92 1467.87C242.846 1482.13 240.045 1495.6 248.449 1513.2C256.586 1530.13 269.392 1540 298.072 1551.73C312.745 1557.73 323.017 1560 335.422 1560C345.427 1560 351.563 1557.73 355.565 1552.67C359.3 1548 359.3 1544.67 355.432 1530.67C346.361 1498 321.549 1458.93 304.608 1450.8C297.938 1447.47 292.069 1447.33 283.798 1450.27Z" fill="#5EE8CE"/>
<path d="M1863.87 1451.73C1856.13 1456.67 1849.59 1464.8 1830.12 1494C1820.11 1509.07 1805.71 1538.53 1804.9 1545.6C1803.44 1557.87 1812.37 1558.4 1834.25 1547.6C1865.47 1532.27 1897.88 1509.6 1905.75 1497.47C1912.69 1487.07 1909.75 1476.13 1896.81 1464.27C1883.61 1452.27 1870.8 1447.33 1863.87 1451.73Z" fill="#5EE8CE"/>
<path d="M80.6374 1459.6C75.7018 1462.8 75.0348 1466.13 77.8361 1476C79.7036 1482.53 81.7045 1486 87.3071 1492C95.1775 1500.67 99.3127 1502.27 104.782 1499.47C110.651 1496.4 117.188 1482.4 117.454 1472.13C117.721 1464.4 117.454 1463.47 113.986 1460.93C108.784 1456.93 86.24 1456 80.6374 1459.6Z" fill="#5EE8CE"/>
<path d="M1922.16 1510.13C1887.21 1528.27 1858.8 1551.6 1850.66 1568.67C1843.72 1583.33 1845.46 1594.4 1856.66 1607.07C1870.53 1622.93 1887.88 1621.33 1908.15 1602.53C1918.29 1593.07 1956.31 1550.4 1961.38 1542.8C1963.11 1540 1965.25 1534.53 1966.18 1530.53C1967.51 1524.13 1967.38 1522.67 1964.71 1516.53C1962.31 1510.93 1960.58 1508.93 1955.24 1506.13C1944.97 1500.53 1939.23 1501.2 1922.16 1510.13Z" fill="#5EE8CE"/>
<path d="M2015.4 1517.73C2003.53 1520.8 2000.06 1523.47 2002.73 1527.6C2005.13 1531.47 2012.87 1534.4 2028.48 1537.47C2041.55 1540 2044.48 1540.27 2049.68 1538.8C2055.69 1537.2 2059.16 1534.27 2059.29 1530.8C2059.29 1527.2 2047.95 1517.87 2041.55 1516.27C2033.28 1514.13 2028.61 1514.4 2015.4 1517.73Z" fill="#5EE8CE"/>
<path d="M126.125 1532.4C119.189 1535.6 117.054 1538.67 117.054 1545.33C117.054 1554.27 121.59 1568.4 127.993 1579.2C135.196 1591.47 137.33 1593.33 143.6 1593.33C147.869 1593.33 150.003 1592.27 155.605 1587.2C168.145 1576 176.148 1558.8 174.681 1546.4C174.281 1542.53 173.08 1540.8 169.212 1538.27C160.408 1532.13 134.529 1528.8 126.125 1532.4Z" fill="#5EE8CE"/>
<path d="M1984.99 1546.93C1970.31 1556.27 1931.1 1595.6 1920.29 1611.73C1917.62 1615.87 1914.69 1622 1913.89 1625.47C1911.89 1633.47 1913.75 1637.73 1921.36 1643.07C1930.16 1649.2 1936.17 1648.53 1960.04 1638.67C2004.6 1620.27 2019.54 1609.6 2029.94 1588.93C2035.28 1578.13 2035.28 1571.07 2029.81 1560.13C2025.14 1550.8 2019.54 1546.27 2009.93 1544.13C1998.73 1541.6 1992.46 1542.27 1984.99 1546.93Z" fill="#5EE8CE"/>
<path d="M226.972 1552.4C197.091 1562.27 169.879 1592.53 163.743 1622.93C159.34 1643.87 163.342 1650.67 179.883 1650.67C210.964 1650.67 238.711 1642.27 265.123 1624.67C285.933 1610.8 299.672 1592.67 301.94 1575.87C303.274 1566.27 300.072 1563.73 279.129 1557.2C264.323 1552.53 259.654 1551.6 247.115 1551.2C237.11 1550.8 230.707 1551.2 226.972 1552.4Z" fill="#5EE8CE"/>
<path d="M341.559 1575.2C331.154 1578.53 318.081 1587.87 312.345 1596.13C309.277 1600.53 308.877 1602.27 309.41 1608.27C310.344 1619.07 317.281 1632 327.686 1642.8C341.959 1657.2 354.498 1660.93 382.244 1658.53C416.527 1655.73 438.537 1647.33 438.537 1637.2C438.537 1624.53 409.724 1591.07 391.715 1582.8C373.707 1574.4 353.831 1571.47 341.559 1575.2Z" fill="#5EE8CE"/>
<path d="M1792.77 1576C1761.15 1584.53 1734.47 1612.93 1738.34 1633.87C1739.27 1638.8 1747.54 1647.33 1756.48 1652.4C1759.82 1654.27 1765.82 1657.6 1769.82 1660C1791.97 1672.53 1809.04 1678.8 1823.45 1679.73C1842.52 1680.8 1845.46 1676.67 1844.12 1651.47C1842.79 1627.33 1837.99 1608.13 1828.52 1589.33C1820.78 1574.13 1811.97 1570.8 1792.77 1576Z" fill="#5EE8CE"/>
<path d="M286.6 1633.07C283.932 1635.87 279.396 1642.67 276.462 1648.13C272.193 1656.27 271.259 1659.33 271.126 1665.73C271.126 1672.8 271.526 1673.87 274.994 1676.67C284.599 1684.27 316.214 1681.2 321.016 1672.27C323.817 1667.07 322.75 1657.2 318.615 1650C311.945 1638.53 299.673 1628 293.003 1628C292.069 1628 289.268 1630.27 286.6 1633.07Z" fill="#5EE8CE"/>
<path d="M1868 1631.33C1862.93 1636.4 1863.6 1654.8 1870 1687.33C1876 1718.27 1886.94 1747.73 1897.75 1762.27C1902.95 1769.47 1907.62 1769.87 1914.29 1764C1923.63 1755.87 1928.03 1737.73 1929.5 1702C1930.3 1682 1930.3 1681.87 1926.56 1674.67C1924.43 1670.4 1918.82 1663.33 1913.36 1657.87C1903.62 1648.4 1876.4 1629.33 1872.27 1629.33C1871.07 1629.33 1869.2 1630.27 1868 1631.33Z" fill="#5EE8CE"/>
<path d="M1999.93 1634.8C1993.79 1636.53 1953.64 1657.07 1950.31 1660.27C1948.57 1661.87 1946.04 1666.4 1944.44 1670.53C1942.03 1676.8 1941.77 1679.73 1942.43 1689.33C1943.64 1708 1944.84 1710.67 1951.64 1710.67C1954.84 1710.67 1957.24 1709.07 1962.44 1703.6C1966.18 1699.87 1971.38 1693.33 1974.05 1689.33C1976.72 1685.33 1983.39 1675.07 1989.12 1666.53C2000.2 1649.47 2006.86 1636.4 2005.13 1634.8C2004.46 1634.13 2002.2 1634.27 1999.93 1634.8Z" fill="#5EE8CE"/>
<path d="M242.979 1649.87C231.107 1653.6 201.36 1669.33 197.225 1674C189.355 1682.93 190.288 1690.67 200.827 1704.27C207.23 1712.53 211.231 1715.6 217.501 1717.47C222.703 1718.93 230.707 1714.53 237.777 1706.4C245.647 1697.33 257.253 1672.4 257.92 1663.07C258.987 1649.73 254.852 1646.13 242.979 1649.87Z" fill="#5EE8CE"/>
<path d="M432.534 1672.4C416.927 1688.53 397.185 1743.6 397.185 1771.33C397.185 1786.53 401.853 1791.87 417.994 1795.33C428.799 1797.6 458.013 1798 470.419 1796C495.23 1791.87 501.366 1778.93 495.764 1742C491.628 1715.33 480.957 1689.07 469.752 1677.87C461.881 1670.27 452.277 1665.33 444.94 1665.33C439.871 1665.33 438.67 1666 432.534 1672.4Z" fill="#5EE8CE"/>
<path d="M1708.46 1670.27C1700.06 1671.73 1696.19 1674 1688.98 1681.73C1677.11 1694.53 1674.71 1701.07 1674.04 1722C1673.51 1741.2 1675.51 1756.4 1680.98 1773.6C1685.25 1786.8 1687.12 1790.27 1693.39 1796.27C1702.99 1805.33 1736.47 1820.13 1747.68 1820.27C1757.42 1820.4 1759.95 1819.2 1764.22 1812.93C1769.82 1804.67 1771.16 1799.6 1771.16 1786.13C1771.16 1750 1756.62 1701.33 1740.07 1682C1732.74 1673.47 1719.13 1668.4 1708.46 1670.27Z" fill="#5EE8CE"/>
<path d="M369.038 1675.2C368.771 1675.6 366.771 1676.13 364.636 1676.53C362.635 1676.93 357.166 1678.4 352.497 1680C345.294 1682.4 343.693 1683.47 341.826 1687.47C338.758 1694 339.825 1696.8 349.029 1706.93C357.833 1716.4 372.507 1725.33 379.577 1725.33C385.179 1725.33 390.782 1719.33 396.384 1707.6C408.523 1682.13 405.055 1674.67 380.777 1674.67C374.641 1674.67 369.305 1674.93 369.038 1675.2Z" fill="#5EE8CE"/>
<path d="M1789.16 1692.13C1786.9 1692.67 1783.29 1695.07 1781.16 1697.33C1777.96 1700.67 1777.29 1702.8 1776.76 1709.33C1775.56 1726.13 1785.96 1762.8 1807.44 1817.33C1811.31 1826.93 1823.18 1839.2 1829.98 1840.53C1839.32 1842.27 1852.13 1835.2 1861.6 1823.2C1874.8 1806.53 1878.41 1796.13 1878.41 1774.67C1878.54 1757.33 1876.94 1749.07 1870.54 1735.07C1865.07 1723.33 1856.4 1713.73 1846.12 1708.27C1829.98 1699.87 1802.9 1690.53 1795.17 1690.8C1794.1 1690.93 1791.3 1691.47 1789.16 1692.13Z" fill="#5EE8CE"/>
<path d="M267.524 1702.53C258.454 1705.47 247.115 1714.4 241.779 1722.8C240.045 1725.47 238.044 1731.07 237.244 1735.2C236.043 1741.73 236.176 1743.6 238.578 1749.87C242.446 1759.87 247.515 1765.47 260.188 1773.73C273.794 1782.67 278.596 1784.53 298.872 1788.93C319.549 1793.47 345.827 1794.13 356.632 1790.27C369.438 1785.87 378.509 1775.33 378.509 1765.07C378.376 1755.07 366.904 1739.73 351.297 1728.8C340.892 1721.6 315.28 1709.07 303.141 1705.33C292.869 1702.27 273.26 1700.67 267.524 1702.53Z" fill="#5EE8CE"/>
<path d="M1643.1 1720.13C1635.63 1724.53 1624.55 1736.13 1620.95 1742.93C1614.42 1755.73 1618.15 1767.07 1632.29 1777.47C1645.5 1787.2 1652.17 1785.87 1656.57 1772.67C1659.5 1764 1659.1 1734.27 1655.9 1726C1652.17 1716.4 1650.57 1715.6 1643.1 1720.13Z" fill="#5EE8CE"/>
<path d="M516.306 1723.33C511.237 1726.8 510.304 1732.93 511.771 1751.07C513.772 1775.87 526.978 1824 537.516 1844C544.186 1856.93 546.32 1859.47 553.924 1862.67C559.26 1864.93 560.994 1865.2 565.796 1863.87C568.731 1863.07 572.332 1861.47 573.8 1860.27C577.001 1857.33 586.606 1843.2 586.606 1841.47C586.606 1840.67 587.006 1840 587.673 1840C589.14 1840 594.209 1826.13 596.61 1816C601.679 1793.87 598.344 1786.4 572.199 1760.27C554.057 1742 536.716 1727.07 529.646 1723.33C524.844 1720.8 519.908 1720.8 516.306 1723.33Z" fill="#5EE8CE"/>
<path d="M1576.27 1781.6C1566.66 1784.8 1568.66 1798 1583.07 1825.87C1592.81 1844.8 1607.61 1865.87 1614.42 1870.53C1619.89 1874.27 1628.82 1874.67 1632.56 1871.33C1635.89 1868.13 1638.43 1859.2 1640.43 1843.47C1642.83 1825.33 1641.76 1814.27 1636.69 1803.6C1633.36 1796.4 1631.62 1794.27 1626.42 1791.2C1614.82 1784.4 1584.8 1778.67 1576.27 1781.6Z" fill="#5EE8CE"/>
<path d="M363.302 1804C337.556 1808.13 320.615 1816.93 317.814 1827.6C315.546 1836.93 333.821 1859.47 359.833 1879.33C391.715 1903.73 396.784 1906.67 407.856 1906.67C418.261 1906.67 424.664 1902.27 432 1890C442.272 1872.93 453.344 1836.53 451.343 1826.13C448.942 1813.33 424.797 1804.27 390.514 1803.33C379.843 1803.07 367.57 1803.33 363.302 1804Z" fill="#5EE8CE"/>
<path d="M1530.24 1810.53C1518.5 1815.07 1513.44 1818.67 1509.7 1824.8C1504.77 1832.8 1506.9 1837.6 1523.84 1855.6C1531.44 1863.73 1544.65 1872 1549.85 1872C1557.06 1872 1559.46 1866.8 1561.72 1845.33C1563.33 1830.13 1562.39 1822.53 1557.72 1813.47C1555.46 1808.93 1554.52 1808.27 1548.92 1807.47C1540.38 1806.4 1540.92 1806.27 1530.24 1810.53Z" fill="#5EE8CE"/>
<path d="M633.961 1812.27C621.689 1820.93 606.882 1838.93 602.747 1850C599.945 1857.6 599.812 1858 602.213 1859.73C607.282 1863.47 626.491 1858.53 637.963 1850.53C655.171 1838.67 658.773 1832.93 656.105 1821.07C653.57 1810.13 642.899 1805.87 633.961 1812.27Z" fill="#5EE8CE"/>
<path d="M1783.96 1817.6C1780.76 1820.4 1776.36 1830.67 1764.89 1862C1760.22 1874.4 1759.02 1894.27 1762.49 1899.47C1764.49 1902.67 1765.42 1902.93 1770.76 1902.27C1782.09 1901.07 1794.63 1888.4 1800.1 1872.67C1806.51 1853.6 1798.37 1814.67 1787.83 1814.67C1787.56 1814.67 1785.83 1816 1783.96 1817.6Z" fill="#5EE8CE"/>
<path d="M482.691 1822.13C477.222 1826.67 470.819 1838.4 463.215 1858C450.809 1889.73 447.741 1900.67 446.941 1916.4C446.274 1930.13 446.274 1930.93 449.609 1935.87C451.476 1938.67 455.878 1942.8 459.347 1945.07L465.616 1949.33H485.892C513.372 1949.33 524.043 1945.87 531.513 1934.8C535.382 1929.07 535.382 1925.33 531.247 1908C529.379 1900.27 526.444 1887.33 524.71 1879.33C520.842 1860.8 513.905 1840.4 508.703 1831.6C504.301 1824.27 496.43 1818.67 490.294 1818.67C488.427 1818.67 484.958 1820.27 482.691 1822.13Z" fill="#5EE8CE"/>
<path d="M1672.04 1820.67C1658.44 1825.47 1651.9 1840.27 1650.17 1870.67C1649.23 1887.6 1651.5 1912.93 1654.97 1922.8C1658.84 1934 1669.11 1953.6 1673.11 1957.33C1676.18 1960.13 1677.91 1960.67 1685.12 1960.67C1702.86 1960.53 1725.27 1944.4 1734.47 1925.07C1747.81 1896.8 1749.28 1863.87 1738.07 1847.47C1731.67 1838.13 1713.4 1827.6 1694.32 1822C1681.25 1818.27 1679.11 1818.13 1672.04 1820.67Z" fill="#5EE8CE"/>
<path d="M1464.75 1847.07C1451.94 1853.6 1442.47 1861.07 1437.53 1868.4C1433.27 1874.67 1433 1875.6 1433 1886.53C1433 1896.53 1433.53 1898.93 1436.87 1905.33C1438.87 1909.33 1442.6 1914.8 1444.87 1917.33C1447.27 1919.87 1452.07 1925.73 1455.54 1930.4C1459.14 1935.07 1464.35 1940.4 1467.41 1942.4C1472.62 1945.87 1473.42 1946 1489.56 1945.87C1506.9 1945.6 1530.38 1941.87 1537.71 1938C1542.38 1935.6 1545.18 1931.2 1547.18 1923.33C1549.19 1915.2 1546.12 1902.93 1539.05 1892.13C1532.24 1881.73 1498.1 1847.2 1491.96 1844.67C1483.82 1841.33 1474.22 1842.13 1464.75 1847.07Z" fill="#5EE8CE"/>
<path d="M683.851 1853.07C680.516 1853.6 676.114 1855.07 674.247 1856.4C665.576 1862.13 661.041 1882 660.774 1916C660.64 1936.67 660.774 1938.27 663.708 1942.8C669.444 1952.13 679.049 1952.8 698.258 1945.47C728.138 1933.87 746.013 1916.27 750.682 1894C752.416 1885.47 751.216 1879.33 745.746 1870.8C737.476 1858 707.595 1849.47 683.851 1853.07Z" fill="#5EE8CE"/>
<path d="M1572.26 1870.93C1569.73 1875.07 1569.6 1876.8 1570.26 1901.33C1571.86 1966.93 1574.66 1994 1581.2 2006.8C1585.87 2016.13 1589.34 2017.87 1602.01 2016.93C1615.22 2016 1620.42 2013.2 1636.16 1997.6C1646.56 1987.33 1648.17 1985.2 1649.63 1979.07C1653.1 1964.67 1646.56 1949.33 1621.75 1914.13C1620.69 1912.67 1616.28 1906.8 1612.02 1901.33C1607.75 1895.87 1601.08 1887.07 1597.07 1881.87C1587.47 1868.93 1584.8 1866.67 1579.47 1866.67C1575.87 1866.67 1574.53 1867.47 1572.26 1870.93Z" fill="#5EE8CE"/>
<path d="M617.954 1875.87C612.351 1876.8 597.277 1882.93 585.939 1888.67C563.928 1899.87 553.924 1918.53 553.924 1948C554.057 1960.13 554.457 1962.93 557.392 1969.47C562.194 1979.73 566.997 1982 581.803 1980.8C611.284 1978.4 627.558 1970.67 635.028 1955.47C642.098 1941.07 647.567 1910.27 646.233 1893.07C645.433 1883.47 643.832 1879.47 640.231 1877.47C636.896 1875.73 624.09 1874.8 617.954 1875.87Z" fill="#5EE8CE"/>
<path d="M790.701 1883.87C786.832 1884.93 784.031 1889.73 784.031 1895.47C784.031 1907.73 795.636 1935.87 808.175 1954.27C812.844 1961.07 819.114 1965.33 824.183 1965.33C838.056 1965.33 874.873 1940.93 881.143 1927.47C884.744 1919.87 884.744 1916.53 881.409 1911.07C877.007 1903.73 862.734 1897.87 827.918 1888.93C808.842 1884 796.036 1882.27 790.701 1883.87Z" fill="#5EE8CE"/>
<path d="M1367.63 1884.67C1363.23 1885.6 1354.56 1888.4 1348.29 1890.67C1342.02 1893.07 1330.95 1897.07 1323.75 1899.6C1306.27 1905.6 1298.67 1909.6 1291.33 1916.4C1281.06 1925.87 1276.79 1938.4 1277.99 1955.73C1279.73 1981.73 1289.33 1992.4 1304.67 1985.6C1317.61 1979.87 1343.09 1956.67 1363.63 1932C1370.04 1924.27 1377.51 1915.6 1380.31 1912.53C1387.64 1904.67 1391.78 1896 1391.11 1889.6C1391.11 1888.8 1389.78 1886.8 1388.31 1885.33C1385.24 1882.27 1379.51 1882 1367.63 1884.67Z" fill="#5EE8CE"/>
<path d="M1405.79 1912.93C1396.98 1915.2 1393.25 1917.73 1384.04 1928.27C1363.5 1951.87 1354.96 1971.6 1358.83 1986.27C1360.97 1993.87 1370.17 2001.87 1386.84 2010.4C1399.78 2016.93 1411.26 2020.93 1448.87 2032C1470.88 2038.4 1483.56 2039.2 1487.82 2034.53C1490.89 2031.2 1490.89 2024.8 1487.96 2014.67C1485.42 2006.13 1461.68 1964 1451.01 1949.07C1447.01 1943.47 1440.74 1934.67 1437 1929.33C1425.93 1913.47 1418.59 1909.6 1405.79 1912.93Z" fill="#5EE8CE"/>
<path d="M1223.57 1919.07C1206.09 1924.93 1196.22 1930.67 1189.95 1938.67C1177.81 1954 1173.68 1970.13 1173.54 2001.47C1173.54 2023.33 1178.48 2036.27 1193.29 2052.13C1203.83 2063.6 1211.96 2068 1222.77 2068H1231.17L1239.04 2060C1250.25 2048.53 1260.12 2033.2 1264.79 2020C1268.26 2010 1268.79 2006.53 1269.32 1989.6C1270.12 1960.67 1265.85 1936.8 1257.58 1925.33C1251.31 1916.53 1238.38 1914.13 1223.57 1919.07Z" fill="#5EE8CE"/>
<path d="M944.505 1928.67C934.501 1932.93 933.7 1946 942.371 1963.6C947.04 1973.07 947.84 1974 951.842 1974.4C956.911 1974.93 961.446 1972.13 972.518 1961.47C983.056 1951.33 988.125 1943.87 988.125 1938.4C988.125 1932.27 985.724 1929.47 979.455 1928C971.318 1926.13 949.441 1926.53 944.505 1928.67Z" fill="#5EE8CE"/>
<path d="M1058.82 1934.53C1039.22 1940.93 1007.07 1956.4 990.26 1967.2C977.187 1975.73 959.712 1990.13 955.444 1996.13C951.175 2001.73 950.108 2010.13 951.842 2022.67C954.643 2042 965.182 2057.73 976.654 2059.33C983.056 2060.4 988.792 2058.4 997.73 2052.27C1003.6 2048.27 1043.62 2008.53 1053.36 1996.93C1062.56 1986.13 1076.03 1965.87 1080.17 1956.8C1085.5 1945.2 1085.37 1941.07 1079.9 1936.8C1073.77 1932.27 1067.63 1931.6 1058.82 1934.53Z" fill="#5EE8CE"/>
<path d="M754.017 1935.2C746.147 1937.6 742.678 1939.73 735.475 1946.53C722.269 1959.07 708.129 1984.27 696.123 2016.67C692.255 2026.93 687.719 2039.07 685.985 2043.73C683.851 2049.2 682.65 2054.67 682.65 2059.73C682.65 2066.8 683.051 2067.87 687.186 2071.87C695.857 2080.27 707.462 2078.93 726.271 2067.07C750.682 2051.87 774.026 2030.27 787.232 2010.93L793.635 2001.6L793.769 1980.93C793.769 1961.47 793.635 1960 790.167 1952.53C782.297 1935.47 770.825 1929.87 754.017 1935.2Z" fill="#5EE8CE"/>
<path d="M1143.53 1934.67C1130.99 1937.33 1109.78 1949.33 1107.11 1955.47C1105.11 1959.6 1105.11 1967.33 1106.85 1970.67C1108.98 1974.67 1138.46 2000.8 1143.53 2003.2C1154.34 2008.4 1159.54 1999.2 1163.67 1967.2C1165.27 1955.87 1165.54 1949.07 1164.74 1945.2C1162.74 1936.13 1155 1932.27 1143.53 1934.67Z" fill="#5EE8CE"/>
<path d="M891.414 1948C881.409 1950.27 864.068 1962.8 844.325 1981.87C826.184 1999.33 824.449 2016.13 840.19 2024C856.331 2032.27 902.486 2046.67 912.757 2046.67C918.093 2046.67 919.694 2046 923.429 2042.27C930.899 2034.8 932.099 2026.8 928.765 2004.93C926.23 1987.87 921.294 1973.6 914.224 1962.8C905.154 1949.07 900.351 1945.87 891.414 1948Z" fill="#5EE8CE"/>
<path d="M1523.04 1955.87C1509.17 1960.4 1499.03 1966.93 1496.36 1973.33C1493.56 1980 1495.29 1991.47 1500.76 2002.67C1506.63 2014.8 1529.98 2046.13 1536.25 2050.27C1541.85 2054 1547.72 2054.13 1553.32 2050.67C1559.46 2047.07 1561.46 2043.2 1563.06 2032.67C1564.79 2020.53 1564.79 1989.6 1563.06 1978.93C1561.19 1967.73 1556.92 1958.93 1551.85 1955.87C1546.52 1952.67 1533.05 1952.53 1523.04 1955.87Z" fill="#5EE8CE"/>
<path d="M489.894 1964.93C477.622 1966.4 477.222 1967.87 486.56 1975.33C506.035 1990.93 528.846 2000.8 537.25 1997.33C541.785 1995.47 542.319 1992.53 539.651 1983.6C537.25 1975.6 530.046 1968.67 521.376 1966.13C514.706 1964.13 500.299 1963.6 489.894 1964.93Z" fill="#5EE8CE"/>
<path d="M654.637 1975.07C632.36 1980.27 592.075 2002 586.072 2012.13C581.537 2019.73 584.605 2029.6 593.542 2036.4C595.943 2038.27 603.414 2041.73 609.95 2044C620.355 2047.73 623.823 2048.4 635.962 2048.53C647.968 2048.67 650.769 2048.27 655.304 2045.87C673.579 2036 689.987 1990 679.582 1977.87C677.048 1974.93 675.18 1974.13 669.177 1973.87C665.176 1973.6 658.639 1974.13 654.637 1975.07Z" fill="#5EE8CE"/>
<path d="M1078.83 1990.27C1071.76 1992.93 1063.23 2006.53 1061.89 2017.2C1060.83 2026.67 1063.63 2044 1069.36 2062.93C1075.1 2082 1079.77 2089.33 1090.71 2096.13C1103.65 2104.4 1119.25 2098.67 1138.73 2078.67C1153.8 2063.07 1154.87 2051.47 1143 2031.2C1135.79 2019.07 1111.92 1999.07 1097.11 1992.8C1091.51 1990.53 1081.77 1989.07 1078.83 1990.27Z" fill="#5EE8CE"/>
<path d="M1319.48 2007.87C1310.94 2010 1302.54 2015.2 1292.13 2024.93C1271.06 2044.8 1254.65 2067.2 1250.11 2082.13C1247.45 2091.07 1249.71 2100.53 1256.12 2106.67C1269.46 2119.33 1301.74 2130.53 1325.62 2130.67C1342.02 2130.67 1361.5 2123.47 1372.04 2113.47C1383.38 2102.67 1390.98 2079.07 1390.98 2054.8C1390.85 2037.47 1387.51 2029.07 1377.91 2022.8C1371.77 2018.67 1350.96 2011.33 1338.55 2008.8C1327.62 2006.53 1325.75 2006.4 1319.48 2007.87Z" fill="#5EE8CE"/>
<path d="M789.233 2041.07C775.36 2049.87 766.422 2064.53 765.622 2079.47C765.088 2088.93 765.088 2089.07 770.157 2094.67C782.563 2108.27 808.975 2121.73 829.385 2124.67C834.321 2125.33 835.788 2125.07 837.522 2123.07C842.591 2117.33 841.524 2106.27 833.92 2082.93C828.585 2066.53 820.447 2051.33 812.577 2043.07C807.775 2038 806.441 2037.33 801.239 2037.33C796.97 2037.33 793.502 2038.4 789.233 2041.07Z" fill="#5EE8CE"/>
<path d="M1410.59 2040.13C1408.59 2041.6 1406.45 2045.07 1405.79 2047.73C1404.05 2054 1406.05 2093.07 1408.19 2097.07C1410.86 2102 1418.86 2103.47 1430.2 2101.07C1441.27 2098.53 1464.35 2089.73 1473.28 2084.67C1483.96 2078.27 1484.22 2071.47 1473.95 2062.67C1464.48 2054.53 1425.4 2037.33 1416.32 2037.33C1415.12 2037.33 1412.46 2038.53 1410.59 2040.13Z" fill="#5EE8CE"/>
<path d="M1027.74 2052.67C1015.74 2058.8 1005.87 2066.53 993.461 2079.2C959.712 2113.73 951.842 2135.87 969.983 2144.53C977.187 2147.87 1008.13 2153.33 1020.27 2153.33C1040.42 2153.33 1057.36 2147.73 1066.96 2137.87C1071.23 2133.47 1071.36 2132.8 1071.9 2120.93C1072.3 2110.93 1071.76 2106.13 1068.96 2095.33C1065.76 2083.2 1056.29 2061.07 1051.89 2056C1045.75 2048.67 1037.75 2047.6 1027.74 2052.67Z" fill="#5EE8CE"/>
<path d="M858.732 2053.6C851.662 2055.47 849.395 2058.93 849.395 2068.27C849.395 2079.6 852.863 2095.33 857.532 2104.93C862.467 2115.07 874.74 2127.87 884.344 2132.93C890.614 2136.13 892.881 2136.53 904.754 2136.67C917.026 2136.67 918.627 2136.4 925.03 2132.8C938.102 2125.6 950.775 2109.33 950.775 2099.87C950.775 2094.8 947.307 2085.6 943.305 2080.4C939.17 2075.07 926.497 2066.27 917.826 2062.8C910.89 2060.13 880.876 2053.87 870.071 2052.93C866.469 2052.67 861.267 2052.93 858.732 2053.6Z" fill="#5EE8CE"/>
<path d="M1170.21 2076.13C1163.41 2078.67 1153.67 2087.07 1134.73 2106.27C1115.12 2126.27 1110.85 2132.93 1110.85 2143.07C1110.85 2153.33 1112.45 2153.87 1145.4 2153.73C1175.28 2153.6 1215.3 2150.53 1229.7 2147.2C1241.44 2144.53 1244.38 2142.13 1245.18 2134.67C1245.71 2129.47 1245.18 2127.73 1241.31 2122C1230.9 2106.4 1206.63 2084.67 1192.75 2078.53C1185.55 2075.2 1175.55 2074.27 1170.21 2076.13Z" fill="#5EE8CE"/>
<path d="M736.942 2081.33C729.338 2083.6 727.337 2089.73 732.54 2094.53C736.142 2098 751.749 2104 756.684 2104C760.953 2104 760.953 2101.6 756.684 2093.6C752.549 2085.73 750.815 2083.47 747.08 2081.6C743.745 2079.73 742.278 2079.73 736.942 2081.33Z" fill="#5EE8CE"/>
<path d="M1100.44 2118C1093.11 2122.13 1081.37 2132.13 1076.97 2137.87C1069.1 2148.27 1071.5 2153.33 1084.3 2153.33C1091.11 2153.33 1092.71 2152.8 1095.38 2150.13C1099.11 2145.87 1109.78 2119.6 1108.71 2116.8C1107.65 2114 1107.25 2114.13 1100.44 2118Z" fill="#5EE8CE"/>
</g>
<defs>
<clipPath id="clip0_144_524">
<rect width="2154" height="2154" fill="white"/>
</clipPath>
</defs>
</svg>
