<svg width="1517" height="1518" viewBox="0 0 1517 1518" fill="none" xmlns="http://www.w3.org/2000/svg">
<path d="M638.392 5.29039C566.481 16.889 452.041 57.0974 387.862 93.4397C193.779 204.786 76.2468 359.434 14.3876 585.22C-6.48983 661.771 -4.17011 862.04 18.2538 942.457C77.7933 1158.19 207.697 1325.21 398.688 1429.6C564.934 1520.07 782.214 1542.49 967.019 1488.36C1376.84 1368.51 1611.9 930.085 1480.45 529.547C1439.47 404.282 1386.89 317.679 1294.1 223.344C1196.67 124.369 1079.91 57.0974 943.821 20.7552C873.457 2.19744 709.53 -6.3082 638.392 5.29039ZM892.788 36.22C1079.91 74.1087 1236.11 170.764 1346.68 316.906C1388.43 372.579 1451.07 498.617 1470.4 565.889C1487.41 626.202 1494.37 831.11 1481.22 897.609C1431.74 1155.87 1237.65 1375.47 986.35 1457.43C832.475 1508.47 659.269 1506.92 514.674 1454.34C134.24 1315.93 -66.8025 913.073 55.3693 534.959C171.355 178.496 534.005 -37.2378 892.788 36.22Z" fill="#5EE8CE"/>
<path d="M752.058 124.369C729.634 145.247 717.263 194.734 728.861 213.292C741.233 233.396 772.163 231.85 787.627 210.199C795.36 199.374 797.68 190.868 793.04 190.868C789.174 190.868 785.308 182.362 785.308 172.31C785.308 161.485 781.441 150.66 777.575 148.34C765.203 140.607 755.151 176.95 764.43 197.054C774.482 217.931 766.75 227.21 750.512 214.065C735.82 201.693 735.82 182.362 750.512 163.031C756.698 155.299 762.11 142.154 762.11 134.422C762.11 100.399 800.772 138.288 800.772 173.084C800.772 192.415 809.278 179.269 811.598 156.846C813.918 139.061 803.865 124.369 780.668 111.224C776.029 108.131 762.884 114.317 752.058 124.369Z" fill="#5EE8CE"/>
<path d="M571.123 139.835C563.39 144.474 543.286 158.392 527.821 169.991C503.078 189.322 500.758 193.961 507.717 211.746C511.583 222.571 513.903 232.623 513.13 234.17C511.583 234.943 492.252 227.211 470.602 217.158L430.393 197.828L396.371 217.158C362.348 237.263 344.564 262.78 344.564 292.936C344.564 306.081 343.017 306.854 332.965 299.122C322.913 290.616 321.366 292.936 321.366 309.174C321.366 336.237 313.634 353.249 302.035 353.249C282.704 353.249 281.158 337.784 298.169 313.813C319.82 283.657 315.18 279.018 288.117 303.761C276.518 314.587 267.24 331.598 267.24 341.65C267.24 353.249 262.6 360.981 256.414 360.981C235.537 360.981 205.38 393.457 196.875 425.16C192.235 442.944 182.183 461.502 174.451 466.915C139.655 490.885 97.127 654.039 97.127 762.292C97.127 904.568 170.585 1111.02 220.845 1111.02C232.444 1111.02 244.042 1127.26 267.24 1172.11C297.396 1233.2 320.593 1257.94 345.337 1257.94C352.296 1257.94 367.761 1270.31 378.586 1285C402.557 1315.93 440.445 1338.36 461.323 1332.94C469.055 1330.62 481.427 1336.04 489.159 1344.54C521.635 1380.88 597.413 1404.85 704.12 1413.36C796.135 1420.32 876.552 1412.59 913.668 1393.26C926.04 1387.07 943.824 1381.66 952.33 1381.66C961.609 1381.66 1001.82 1366.19 1042.8 1347.63C1093.83 1323.66 1122.44 1305.11 1137.91 1285.78C1150.28 1270.31 1165.74 1257.94 1172.7 1257.94C1198.22 1257.94 1272.45 1161.28 1272.45 1127.26C1272.45 1110.25 1277.09 1104.84 1297.97 1099.42C1318.85 1093.24 1327.35 1082.41 1351.32 1033.7C1394.62 947.87 1411.63 870.546 1411.63 759.199C1411.63 682.649 1409.31 662.544 1397.72 644.76C1389.98 633.161 1381.48 626.202 1378.38 628.522C1372.2 634.708 1348.23 585.994 1353.64 577.488C1362.15 563.57 1370.65 569.756 1376.84 594.499C1380.7 611.511 1383.8 615.377 1386.12 606.871C1387.66 599.912 1385.34 586.767 1381.48 578.261C1376.84 569.756 1372.97 553.518 1372.97 541.146C1372.97 514.082 1354.41 486.246 1331.22 476.967C1317.3 471.554 1314.21 466.142 1317.3 446.811C1319.62 429.026 1314.98 415.881 1296.42 393.457C1268.58 357.888 1250.03 350.929 1222.96 365.62C1212.14 371.033 1202.86 372.58 1202.86 367.94C1202.86 364.074 1195.13 364.847 1186.62 370.26C1172.7 378.766 1168.84 378.766 1166.52 370.26C1163.42 362.528 1160.33 363.301 1153.37 372.58C1146.41 382.632 1144.87 381.859 1144.09 367.167C1143.32 357.115 1140.23 341.65 1137.13 333.144C1129.4 308.401 1154.15 302.215 1176.57 323.092C1185.85 332.371 1198.99 337.784 1204.41 336.237C1211.36 333.918 1208.27 329.278 1196.67 323.092C1187.39 318.453 1179.66 309.174 1179.66 302.988C1179.66 288.297 1186.62 288.297 1204.41 304.535C1222.19 320.773 1231.47 313.04 1214.46 296.029C1207.5 289.07 1193.58 283.657 1182.76 283.657C1169.61 283.657 1164.2 279.018 1164.2 268.192C1164.2 260.46 1159.56 249.635 1154.92 245.768C1086.1 189.322 1078.37 188.549 1045.89 234.943C1026.56 262.78 1025.79 262.78 1021.15 244.222C1018.83 234.17 1015.74 217.932 1014.96 207.88C1013.42 186.229 961.609 136.742 940.731 136.742C920.627 136.742 862.634 180.816 862.634 196.281C862.634 207.106 864.18 207.106 876.552 197.054C883.511 190.868 898.976 182.363 911.348 176.95C922.947 172.311 932.225 164.578 932.225 159.939C932.225 140.608 956.196 155.299 977.847 188.549C1001.04 222.571 1007.23 252.728 997.178 279.018C988.672 302.215 977.847 291.389 982.486 265.099C989.445 229.53 982.486 210.199 958.516 199.374C946.917 194.735 936.865 191.642 934.545 193.188C932.999 194.735 939.185 212.519 947.69 232.623C966.248 276.698 967.021 299.122 951.556 319.226C940.731 333.144 939.958 331.598 944.597 299.122C947.69 270.512 946.144 259.687 933.772 244.995L918.307 225.664L912.894 245.768C909.802 257.367 911.348 279.791 915.987 296.029C926.04 330.825 923.72 334.691 857.994 381.085C806.187 418.201 793.042 422.067 793.042 401.189C793.042 377.219 815.466 353.249 838.664 353.249C861.087 353.249 882.738 337.011 872.686 327.732C860.314 314.587 825.518 323.092 812.373 342.423C803.868 356.342 796.909 360.208 791.496 354.795C779.124 342.423 790.723 330.825 835.571 310.72C861.087 299.895 878.872 286.75 881.965 275.925C893.564 238.809 859.541 248.088 811.6 295.256C779.897 326.959 777.578 331.598 777.578 370.26C777.578 434.439 803.095 447.584 857.221 411.242C885.058 391.911 898.203 395.777 873.459 415.881C853.355 432.119 816.24 502.484 816.24 524.135C816.24 534.96 823.199 550.425 830.931 557.384C843.303 568.982 847.942 568.982 862.634 560.477C881.965 548.878 912.121 493.205 920.627 455.316C925.266 431.346 924.493 429.799 911.348 437.532C887.378 449.904 878.099 465.368 872.686 497.844C866.5 540.373 831.704 575.942 831.704 539.599C831.704 498.618 879.645 429.799 929.133 398.87C952.33 384.951 962.382 383.405 1008 388.044C1054.4 392.684 1062.9 391.137 1079.14 376.446L1098.47 360.208L1058.26 364.847C1018.83 370.26 1001.82 360.981 1029.65 350.156C1047.44 343.197 1133.27 344.743 1133.27 351.702C1133.27 354.795 1106.98 388.044 1075.27 425.16C1043.57 462.275 1020.37 492.432 1023.47 492.432C1027.33 492.432 1045.12 481.606 1062.9 469.235C1091.51 448.357 1095.38 446.811 1100.02 459.182C1108.52 481.606 1127.86 492.432 1148.73 487.792C1175.02 481.606 1243.07 478.513 1254.67 483.153C1261.63 485.473 1262.4 490.112 1256.21 501.711C1251.57 510.216 1250.03 525.681 1252.35 535.733L1256.99 554.291L1228.38 538.826C1212.14 530.32 1186.62 523.361 1171.93 523.361C1145.64 524.135 1146.41 524.908 1192.03 545.785C1239.2 567.436 1243.07 572.849 1253.12 620.016C1255.44 633.161 1265.49 653.266 1275.54 665.637L1293.33 688.835L1298.74 666.411C1302.61 650.173 1299.51 634.708 1284.82 606.871C1261.63 562.797 1269.36 558.93 1302.61 596.819C1330.44 628.522 1330.44 628.522 1314.98 664.864C1301.06 698.887 1299.51 734.456 1312.66 730.589C1331.22 724.404 1351.32 687.288 1351.32 660.225C1351.32 633.161 1352.09 632.388 1369.11 643.987C1383.02 653.266 1386.89 664.091 1390.76 709.712C1399.26 812.553 1379.16 923.126 1332.76 1027.51L1308.79 1081.64L1277.09 1077.77C1259.31 1075.45 1202.86 1079.32 1151.05 1086.28C1039.71 1100.2 1011.1 1094.79 970.114 1053.03C955.423 1037.57 929.133 1017.46 912.121 1006.64C852.582 971.84 835.571 879.825 869.593 787.036C885.831 745.281 887.378 734.456 879.645 713.578C866.5 677.236 868.047 666.411 890.471 640.12C913.668 612.284 943.824 608.418 951.556 632.388C956.196 647.08 1012.64 693.474 1026.56 693.474C1029.65 693.474 1032.75 681.875 1032.75 667.184C1032.75 637.801 1011.1 616.15 981.713 616.15C972.434 616.15 960.835 611.511 955.423 605.325C943.051 589.86 903.616 596.046 881.192 616.923C856.448 640.12 846.396 678.782 855.675 712.032C861.087 732.909 859.541 746.054 849.489 772.344C827.838 823.378 830.158 934.725 853.355 977.253C862.634 995.037 878.099 1014.37 888.151 1019.01C897.43 1024.42 922.173 1042.98 942.278 1061.54C962.382 1079.32 989.445 1099.42 1002.59 1104.84C1020.37 1112.57 1025.01 1118.76 1021.92 1131.13C1018.83 1141.18 1021.92 1152.01 1028.88 1157.42C1035.07 1162.83 1040.48 1178.3 1040.48 1191.44L1039.71 1215.41L1022.69 1192.21C963.155 1110.25 890.471 1062.31 848.716 1077C823.199 1085.51 817.786 1111.02 837.117 1128.03C844.849 1134.99 878.099 1152.01 911.348 1165.92C944.597 1179.84 974.754 1196.85 979.393 1205.36C987.125 1220.05 976.3 1226.24 967.021 1211.54C957.742 1196.08 915.214 1179.07 896.656 1183.71C886.604 1186.8 872.686 1199.95 865.727 1213.86L852.582 1238.61L837.89 1203.81C818.559 1157.42 787.63 1126.49 762.113 1126.49C735.823 1126.49 703.347 1160.51 686.335 1206.91L672.417 1242.47L654.633 1203.81L636.848 1165.15L660.818 1145.05C694.841 1117.21 690.202 1072.36 654.633 1072.36C632.209 1072.36 547.152 1117.21 515.449 1145.82C485.293 1173.66 483.747 1173.66 455.91 1163.6C428.847 1154.32 427.3 1154.32 404.876 1179.84C379.359 1208.45 370.08 1207.68 383.999 1178.3C396.371 1150.46 380.906 1131.13 350.749 1137.31C332.965 1140.41 329.099 1138.86 329.099 1127.26C329.099 1107.93 341.471 1104.06 379.359 1112.57C461.323 1131.9 568.03 1097.11 625.249 1033.7C643.034 1013.6 670.871 972.613 687.109 941.684C711.079 896.836 718.038 875.958 721.131 830.337C728.09 739.868 712.625 699.66 646.127 634.708C615.971 605.325 571.123 568.209 547.152 551.198C507.717 524.908 499.211 521.815 467.509 525.681C422.661 531.094 403.33 520.268 428.073 502.484C447.404 489.339 452.044 448.357 435.806 432.119C428.847 425.16 428.847 420.52 435.033 414.335C441.992 407.375 445.085 409.695 448.951 423.613C452.044 433.666 467.509 450.677 485.293 461.502C502.304 472.328 531.687 495.525 550.245 513.309C568.03 530.32 593.547 547.332 605.918 550.425C618.29 552.744 636.075 562.023 644.58 569.756C680.149 603.005 720.358 576.715 711.079 526.454C694.841 440.625 639.941 353.249 602.052 353.249C592 353.249 584.268 350.156 584.268 345.516C584.268 341.65 563.39 326.959 537.1 314.587C490.706 290.616 489.933 290.616 495.345 308.401C502.304 332.371 520.862 345.516 547.152 345.516C558.751 345.516 568.803 348.609 568.803 353.249C568.803 357.115 559.524 360.981 548.699 360.981C531.687 360.981 529.368 362.528 537.873 372.58C549.472 386.498 585.041 388.044 598.186 374.899C605.918 367.167 614.424 372.58 638.395 399.643C673.19 439.851 677.83 453.77 649.993 435.212C625.249 418.974 588.907 419.747 571.896 435.985C558.751 449.13 561.071 449.904 613.651 452.223C663.911 454.543 670.097 456.089 684.789 476.194C693.295 488.566 700.254 502.484 700.254 507.123C700.254 522.588 688.655 515.629 675.51 492.432C668.551 479.287 656.952 469.235 649.993 469.235C631.435 469.235 636.075 480.833 669.324 514.082C690.202 534.187 698.707 548.878 695.614 557.384C685.562 583.674 660.045 567.436 650.766 528.774C645.354 505.577 614.424 469.235 599.733 469.235C585.041 469.235 592 497.071 611.331 515.629C636.848 539.599 636.075 549.651 609.785 535.733C570.349 515.629 555.658 491.659 551.792 444.491C547.926 395.777 544.059 387.271 529.368 395.777C523.182 399.643 521.635 414.335 524.728 440.625C529.368 476.194 528.595 478.513 516.223 466.915C507.717 459.182 502.304 440.625 500.758 413.561C499.211 391.137 495.345 369.487 491.479 365.62C479.88 354.022 473.695 381.085 479.107 415.108C481.427 432.119 480.654 446.037 476.787 446.037C458.23 446.037 454.364 367.94 472.148 353.249C478.334 347.836 483.747 332.371 482.973 319.226C482.973 306.081 480.654 300.668 478.334 306.854C476.014 313.04 470.602 326.185 467.509 336.237C463.642 346.289 457.457 352.475 452.817 349.382C448.951 347.063 452.817 328.505 464.416 304.535C474.468 282.111 484.52 258.14 486.84 250.408C491.479 236.489 492.252 236.489 514.676 250.408C527.048 257.367 537.873 266.646 537.873 269.739C537.873 279.018 527.048 277.471 516.223 266.646C511.583 262.006 504.624 260.46 501.531 262.78C493.799 271.285 513.903 287.523 555.658 305.308C598.959 324.639 602.052 318.453 564.937 285.977C550.245 272.832 537.873 258.14 537.873 252.728C537.873 238.809 571.123 252.728 583.495 271.285C610.558 311.494 662.365 353.249 684.789 353.249C726.544 353.249 731.956 307.628 694.841 267.419C673.964 244.995 618.29 216.385 610.558 224.118C599.733 234.943 632.209 267.419 665.458 279.791C697.161 292.163 700.254 296.029 700.254 319.226C700.254 333.918 698.707 345.516 696.387 345.516C685.562 345.516 643.034 308.401 614.424 273.605C586.587 241.129 583.495 233.397 590.454 217.932C595.093 207.88 595.866 190.868 592.773 178.497L587.361 156.846L574.216 175.404C566.483 187.002 563.39 200.92 566.483 212.519C570.349 229.53 568.803 230.304 552.565 225.664C520.862 216.385 520.862 210.199 553.338 174.63L584.268 140.608L619.064 159.166C638.395 169.218 653.859 182.363 653.859 189.322C653.859 198.601 650.766 198.601 634.528 187.775C611.331 172.311 607.465 172.311 607.465 187.002C607.465 199.374 630.662 214.066 650.766 214.066C658.499 214.066 674.737 223.344 686.335 234.943C714.945 262.78 714.172 244.995 684.789 211.746C660.818 183.909 653.859 152.206 672.417 152.206C677.83 152.206 687.109 146.794 692.521 140.608C703.347 127.463 692.521 124.37 679.376 137.515C673.964 142.928 662.365 144.474 648.447 140.608C612.104 130.556 587.361 130.556 571.123 139.835ZM1093.06 261.233C1079.91 277.471 1062.13 291.389 1054.4 291.389C1042.03 291.389 1042.8 287.523 1061.36 250.408C1082.23 210.973 1083.78 209.426 1100.02 220.251L1117.03 231.077L1093.06 261.233ZM468.282 229.53C468.282 231.85 459.003 247.315 447.404 264.326L426.527 295.256L421.887 268.192C418.795 252.728 414.155 236.489 411.062 231.077C406.423 223.344 412.609 221.798 436.579 222.571C454.364 224.118 468.282 226.437 468.282 229.53ZM393.278 249.635C390.958 255.82 395.597 275.151 403.33 292.163C418.021 325.412 412.609 337.011 381.679 337.784C370.08 337.784 367.761 330.825 367.761 296.802C367.761 259.687 377.04 237.263 392.504 237.263C395.597 237.263 396.371 242.675 393.278 249.635ZM1147.19 277.471C1149.51 303.761 1148.73 304.535 1125.54 300.668C1103.88 297.575 1102.34 296.029 1113.94 284.43C1120.12 276.698 1125.54 265.099 1125.54 257.367C1125.54 231.85 1144.87 249.635 1147.19 277.471ZM1073.73 309.174C1093.06 300.668 1112.39 304.535 1105.43 315.36C1103.11 319.226 1089.97 322.319 1076.05 322.319C1062.13 322.319 1038.16 330.051 1024.24 340.104C997.951 357.888 916.761 379.539 916.761 368.713C916.761 365.62 939.958 343.197 969.341 319.226L1021.15 275.925L1038.93 296.029C1053.62 313.04 1059.81 315.36 1073.73 309.174ZM441.992 380.312C437.352 398.097 436.579 398.87 421.887 386.498C403.33 370.26 402.557 364.847 420.341 341.65L433.486 323.866L439.672 342.423C443.538 353.249 444.311 370.26 441.992 380.312ZM1254.67 377.219C1268.58 381.859 1284.05 395.777 1292.56 412.015L1307.25 439.851L1288.69 454.543C1278.64 462.275 1263.95 469.235 1255.44 469.235C1241.52 469.235 1241.52 467.688 1260.08 445.264C1280.18 421.294 1286.37 399.643 1272.45 399.643C1268.58 399.643 1253.89 414.335 1240.75 432.119C1219.87 461.502 1190.49 482.38 1181.98 474.647C1180.44 473.101 1192.03 458.409 1206.73 442.944C1232.24 415.881 1241.52 391.911 1226.83 391.911C1214.46 391.911 1179.66 424.387 1168.06 446.811C1158.78 463.822 1150.28 469.235 1133.27 469.235C1120.12 469.235 1110.07 466.915 1110.07 463.049C1110.84 447.584 1164.97 401.963 1193.58 393.457C1211.36 388.044 1226.06 380.312 1226.06 376.446C1226.06 367.167 1226.06 367.167 1254.67 377.219ZM393.278 383.405C411.835 390.364 426.527 412.788 418.021 421.294C415.702 423.613 409.516 420.52 404.103 413.561C394.051 400.416 367.761 389.591 367.761 398.097C368.534 407.375 386.318 426.706 408.742 440.625C420.341 448.357 429.62 461.502 429.62 470.008C429.62 483.153 425.754 485.473 404.876 483.153C381.679 480.833 379.359 477.74 373.947 446.811C368.534 413.561 356.162 397.323 340.697 401.963C326.006 407.375 328.326 427.48 347.657 456.089C358.482 471.554 363.895 484.699 360.028 484.699C348.43 484.699 321.366 455.316 321.366 442.944C321.366 432.119 293.53 407.375 281.158 407.375C273.426 407.375 273.426 432.119 279.611 449.904C282.704 456.089 296.623 466.915 310.541 473.101C339.924 485.473 346.883 504.03 319.82 496.298C281.931 485.473 222.392 452.997 217.752 440.625C214.659 432.892 218.526 418.974 227.031 407.375C241.723 388.044 248.682 386.498 357.709 377.992C366.987 377.219 383.226 379.539 393.278 383.405ZM227.031 497.071L257.961 517.175L206.154 565.89C155.893 613.83 145.068 638.574 186.823 610.737L208.473 596.819L202.288 616.15C199.195 626.975 194.555 647.853 192.235 663.318C188.369 688.061 190.689 693.474 208.473 705.073C220.072 712.805 230.897 716.671 233.99 714.351C236.31 711.258 234.764 689.608 229.351 664.864C221.618 626.202 222.392 617.697 234.764 593.726C251.775 562.023 289.664 536.506 315.18 540.373C329.872 542.692 328.326 545.012 300.489 563.57C265.693 586.767 255.641 606.871 263.373 637.027L268.013 657.132L294.303 631.615C308.995 617.697 321.366 597.592 322.913 586.767C324.459 573.622 333.738 562.023 348.43 553.518C373.173 539.599 429.62 528.774 428.847 537.28C428.847 540.373 414.155 552.744 397.144 565.89C347.657 602.232 332.965 626.202 341.471 655.585C355.389 704.299 367.761 690.381 395.597 597.592C399.464 585.22 407.196 573.622 412.609 571.302C421.114 568.982 421.887 571.302 414.928 583.674C404.876 603.005 404.103 644.76 413.382 650.173C421.887 655.585 437.352 613.83 437.352 585.22C437.352 545.012 472.148 537.28 534.007 562.797L557.204 572.075L522.409 582.128C488.386 592.953 476.787 604.551 466.735 637.027C459.003 664.091 476.787 659.451 517.769 623.109C547.926 596.046 556.431 592.18 576.535 596.819C607.465 603.778 613.651 616.15 586.587 616.15C561.071 616.15 534.007 633.161 521.635 656.358C513.13 671.823 514.676 672.597 538.647 667.184C553.338 664.864 574.216 655.585 586.587 646.306L607.465 630.842L642.261 660.225C685.562 697.34 703.347 747.601 698.707 824.151C694.068 906.888 630.662 1015.91 564.937 1055.35C506.944 1090.15 457.457 1099.42 384.772 1088.6C347.657 1083.19 303.582 1082.41 268.786 1086.28L212.34 1092.47L196.102 1061.54C128.057 928.539 105.633 780.85 131.923 642.44C144.295 577.488 179.864 476.967 189.916 476.967C193.782 476.967 210.02 486.246 227.031 497.071ZM371.627 503.257C386.318 513.309 385.545 514.856 360.028 521.815C317.5 532.64 297.396 519.495 331.418 503.257C355.389 490.885 355.389 490.885 371.627 503.257ZM1345.91 517.175C1355.19 540.373 1355.19 544.239 1342.04 557.384C1327.35 572.075 1326.58 572.075 1296.42 550.425C1278.64 538.826 1264.72 526.454 1264.72 522.588C1264.72 514.082 1304.15 493.205 1321.16 492.432C1329.67 492.432 1338.95 502.484 1345.91 517.175ZM677.056 1093.24C676.283 1109.48 650.766 1128.81 602.052 1152.78C533.234 1186.8 514.676 1209.22 514.676 1260.26C514.676 1299.69 534.78 1345.31 556.431 1353.05C565.71 1356.91 565.71 1353.82 556.431 1331.4C532.461 1273.4 547.152 1230.88 599.733 1203.81C638.395 1183.71 638.395 1183.71 638.395 1211.54C638.395 1254.85 670.097 1320.57 709.533 1360.78L748.195 1398.67L702.573 1394.03C677.83 1390.94 629.889 1381.66 595.866 1373.15C525.502 1356.14 497.665 1333.72 483.747 1281.14C476.787 1254.85 477.561 1244.79 489.933 1216.96C510.037 1173.66 538.647 1148.14 603.599 1114.89C657.725 1088.6 677.056 1082.41 677.056 1093.24ZM898.203 1106.38C943.824 1128.03 997.951 1173.66 1014.19 1204.59C1028.11 1232.42 1028.11 1281.14 1013.42 1317.48C1004.14 1339.9 994.085 1349.95 968.568 1360.01C921.4 1380.11 920.627 1377.79 958.516 1340.68C1039.71 1262.58 1014.19 1178.3 895.883 1134.22C849.489 1117.21 831.704 1106.38 831.704 1094.79C831.704 1082.41 857.221 1087.05 898.203 1106.38ZM1168.06 1118.76C1165.74 1122.62 1152.6 1126.49 1140.23 1126.49C1126.31 1126.49 1118.58 1123.4 1121.67 1118.76C1123.99 1114.12 1137.13 1111.02 1149.51 1111.02C1163.42 1111.02 1171.16 1114.12 1168.06 1118.76ZM1252.35 1117.98C1260.08 1130.35 1227.6 1191.44 1199.77 1218.5C1174.25 1243.25 1170.38 1244.02 1136.36 1239.38C1096.93 1233.97 1063.68 1216.96 1063.68 1202.27C1063.68 1197.63 1071.41 1185.25 1080.69 1175.2L1096.93 1157.42H1076.05C1049.76 1157.42 1022.69 1143.5 1028.88 1133.45C1035.84 1123.4 1092.29 1124.94 1099.25 1135.77C1102.34 1141.18 1104.66 1158.96 1103.11 1175.2C1102.34 1191.44 1105.43 1210 1110.84 1216.18C1122.44 1230.1 1149.51 1230.1 1168.84 1216.18C1183.53 1204.59 1183.53 1204.59 1166.52 1186.8L1148.73 1169.79V1190.67C1148.73 1203.81 1144.87 1211.54 1137.91 1211.54C1121.67 1211.54 1116.26 1198.4 1121.67 1173.66C1127.86 1145.82 1148.73 1135.77 1161.88 1155.1C1196.67 1203.04 1212.91 1206.91 1216.78 1168.24C1218.32 1149.69 1217.55 1148.14 1210.59 1159.74C1205.95 1166.7 1198.99 1171.34 1194.35 1169.02C1183.53 1162.06 1185.85 1136.54 1199.77 1123.4C1212.91 1110.25 1245.39 1106.38 1252.35 1117.98ZM321.366 1124.17C321.366 1126.49 315.954 1134.99 308.995 1142.73C300.489 1152.01 298.169 1163.6 301.262 1176.75C308.221 1203.81 329.872 1199.17 344.564 1167.47C356.935 1139.63 358.482 1138.86 374.72 1148.91C383.226 1154.32 381.679 1158.96 368.534 1172.11C360.028 1180.61 352.296 1196.85 352.296 1207.68C352.296 1223.92 356.162 1227.01 374.72 1227.01C401.01 1227.01 421.887 1209.22 421.887 1187.57C421.887 1170.56 435.806 1168.24 455.91 1182.93C487.613 1206.13 439.672 1242.47 377.04 1242.47C342.244 1242.47 336.058 1239.38 310.541 1211.54C295.076 1194.53 282.704 1175.98 282.704 1170.56C282.704 1165.92 277.292 1152.01 271.879 1139.63L260.28 1118.76H291.21C307.448 1118.76 321.366 1121.08 321.366 1124.17ZM809.28 1199.17C822.425 1223.14 824.745 1239.38 821.652 1272.63C820.106 1296.6 815.466 1322.89 812.373 1331.4C806.961 1345.31 808.507 1344.54 826.292 1328.3C851.035 1305.88 885.831 1238.61 885.831 1213.86C885.831 1192.21 886.604 1192.21 922.947 1210.77C979.393 1239.38 983.259 1281.91 935.318 1340.68C905.935 1376.24 885.058 1384.75 803.868 1393.26L755.927 1398.67L728.09 1343C687.882 1261.81 690.975 1210.77 741.235 1158.96L765.206 1133.45L779.897 1151.23C787.63 1161.28 800.775 1182.93 809.28 1199.17ZM1141 1264.9C1141 1270.31 1035.07 1335.26 1025.01 1335.26C1021.15 1335.26 1029.65 1318.25 1042.8 1298.15C1066.77 1262.58 1069.09 1261.03 1104.66 1260.26C1124.76 1260.26 1141 1261.81 1141 1264.9ZM455.137 1282.68C456.683 1292.73 461.323 1307.43 464.416 1315.16C470.602 1328.3 467.509 1328.3 439.672 1311.29C422.661 1301.24 400.237 1286.55 390.185 1279.59C371.627 1266.44 371.627 1266.44 411.062 1266.44C446.631 1265.67 451.271 1267.99 455.137 1282.68Z" fill="#5EE8CE"/>
<path d="M878.096 210.199C867.271 216.385 853.352 221.024 846.393 221.798C839.434 221.798 827.836 230.303 820.876 241.129C802.319 268.965 806.185 281.337 824.743 256.594C838.661 239.582 845.62 236.489 864.951 240.355C889.695 245.768 916.758 228.757 916.758 208.653C916.758 195.508 902.84 196.281 878.096 210.199Z" fill="#5EE8CE"/>
<path d="M944.598 438.305C937.638 455.316 932.226 476.967 932.226 486.245C932.226 495.524 924.493 510.989 915.214 521.041C905.936 531.093 902.069 538.826 905.936 538.826C935.319 538.826 984.033 461.502 975.527 428.252C968.568 398.869 959.289 401.962 944.598 438.305Z" fill="#5EE8CE"/>
<path d="M1025.01 427.479C1011.86 439.078 994.08 461.502 986.347 476.967C977.842 493.205 967.016 507.896 961.604 510.216C954.645 513.309 955.418 514.855 963.923 514.855C976.295 515.628 1055.94 428.252 1055.94 414.334C1055.94 403.509 1051.3 405.828 1025.01 427.479Z" fill="#5EE8CE"/>
<path d="M1000.27 538.825C961.609 559.703 956.969 570.528 992.538 557.383C1043.57 539.599 1119.35 548.104 1105.43 570.528C1103.11 575.168 1103.11 597.592 1106.2 620.789C1111.62 667.956 1126.31 675.689 1141 639.346C1153.37 608.417 1145.64 580.58 1113.94 548.877C1083.78 518.721 1045.89 514.855 1000.27 538.825Z" fill="#5EE8CE"/>
<path d="M1133.26 553.517C1133.26 557.384 1136.36 562.023 1141 563.57C1144.86 564.343 1159.55 588.313 1173.47 615.377C1187.39 642.44 1202.86 665.637 1206.72 665.637C1219.87 667.184 1219.87 618.47 1206.72 593.726C1191.26 562.796 1133.26 531.867 1133.26 553.517Z" fill="#5EE8CE"/>
<path d="M988.668 577.487C978.616 581.353 970.884 587.539 970.884 590.632C970.884 596.045 1072.95 624.655 1077.59 620.015C1079.14 619.242 1070.63 606.87 1059.81 593.725C1038.93 568.982 1020.37 565.115 988.668 577.487Z" fill="#5EE8CE"/>
</svg>
