<svg width="24" height="24" viewBox="0 0 24 24" fill="none" xmlns="http://www.w3.org/2000/svg">
<path d="M12 24C18.6274 24 24 18.6274 24 12C24 5.37258 18.6274 0 12 0C5.37258 0 0 5.37258 0 12C0 18.6274 5.37258 24 12 24Z" fill="#988430"/>
<path d="M12.0004 23.6156C18.4155 23.6156 23.616 18.4151 23.616 12C23.616 5.58486 18.4155 0.384377 12.0004 0.384377C5.58525 0.384377 0.384766 5.58486 0.384766 12C0.384766 18.4151 5.58525 23.6156 12.0004 23.6156Z" fill="#7A6A2A"/>
<path d="M11.9998 23.3708C18.2798 23.3708 23.3707 18.2799 23.3707 12C23.3707 5.71999 18.2798 0.629074 11.9998 0.629074C5.71982 0.629074 0.628906 5.71999 0.628906 12C0.628906 18.2799 5.71982 23.3708 11.9998 23.3708Z" fill="#BA9F33"/>
<path fill-rule="evenodd" clip-rule="evenodd" d="M5.24683 10.7185C5.17886 10.6564 5.10705 10.5942 5.041 10.5321C4.97496 10.47 4.90712 10.4078 4.83915 10.3458L4.63717 10.1538C4.60414 10.1207 4.5692 10.0917 4.53617 10.0585C4.50315 10.0295 4.46437 9.99644 4.43134 9.96726C4.16331 9.71292 3.89374 9.45859 3.62942 9.20412C3.90321 9.45462 4.17125 9.70332 4.44504 9.95753L4.54014 10.0528C4.57316 10.0857 4.60811 10.1148 4.64113 10.1479L4.84299 10.3342C4.91096 10.3963 4.97701 10.4585 5.04497 10.5262C5.11294 10.5939 5.17899 10.6563 5.24696 10.7182L5.24683 10.7185ZM1.68958 10.6801C1.68958 10.6801 2.6643 10.781 3.14008 10.8489C3.58078 10.9111 4.95947 11.1227 4.95947 11.1227L1.68958 10.6801ZM1.68958 10.6801C1.96337 10.7034 2.23717 10.7324 2.51096 10.7616C2.65073 10.7752 2.78475 10.7907 2.91876 10.8043L3.12446 10.8277C3.19243 10.8373 3.25848 10.847 3.32644 10.8567L4.14206 10.9868L4.54974 11.0547C4.68376 11.078 4.81777 11.1034 4.95755 11.1267C4.82353 11.1131 4.68376 11.0937 4.54974 11.0742L4.14206 11.016L3.32644 10.8956C3.25848 10.8859 3.19243 10.8722 3.12446 10.8626L2.91864 10.8389C2.78462 10.8254 2.64485 10.8059 2.51083 10.7903C2.23704 10.7574 1.96325 10.7223 1.68945 10.6797L1.68958 10.6801ZM4.86244 11.3767C4.86244 11.3767 3.82168 11.6409 3.47019 11.7419C3.12459 11.837 2.07793 12.1554 2.07793 12.1554L4.86232 11.3768L4.86244 11.3767Z" fill="#CFB66C"/>
<path fill-rule="evenodd" clip-rule="evenodd" d="M4.86251 11.3766C4.63147 11.4446 4.40171 11.5107 4.16735 11.5729L3.47218 11.7592C3.24114 11.8272 3.01138 11.8933 2.78098 11.9612L2.43538 12.0563C2.32082 12.0894 2.20434 12.1184 2.08594 12.1516C2.20037 12.1132 2.31698 12.0739 2.43154 12.0409L2.77714 11.9303C3.00818 11.8583 3.23794 11.7903 3.46834 11.7185C3.70322 11.6603 3.93439 11.5981 4.16927 11.5418C4.3925 11.4854 4.62751 11.4292 4.86251 11.3768V11.3766ZM2.22379 12.7962C2.33823 12.7535 3.65867 12.138 3.96549 11.9943C4.11909 11.9223 4.56555 11.7638 4.56555 11.7638L2.22379 12.7962Z" fill="#CFB66C"/>
<path fill-rule="evenodd" clip-rule="evenodd" d="M2.22278 12.7962C2.32365 12.7578 2.41888 12.7108 2.5159 12.6661L2.80326 12.5321L3.38003 12.2545C3.57203 12.1632 3.75866 12.0625 3.95667 11.9767C4.05766 11.9341 4.15866 11.8991 4.25952 11.8661L4.41312 11.8176C4.46547 11.804 4.51411 11.7884 4.56672 11.7749C4.37472 11.8661 4.17261 11.9438 3.98035 12.033C3.78835 12.1283 3.592 12.206 3.39386 12.2913L2.80749 12.5495C2.61062 12.6293 2.41862 12.7146 2.22266 12.7962H2.22278ZM2.35078 13.3338C2.35078 13.3338 3.54682 12.6328 3.95846 12.4076C4.17402 12.2872 4.8711 11.9415 4.8711 11.9415L2.35078 13.3338Z" fill="#CFB66C"/>
<path fill-rule="evenodd" clip-rule="evenodd" d="M2.35156 13.334C2.55342 13.2097 2.75924 13.0835 2.96506 12.9554L3.27226 12.7689C3.37709 12.7068 3.47808 12.6485 3.58496 12.5865C3.68979 12.5243 3.79079 12.4622 3.89754 12.4039C3.94836 12.3726 4.0016 12.3453 4.05677 12.3224L4.21984 12.2409C4.43539 12.136 4.65094 12.0292 4.87814 11.9379C4.67232 12.0681 4.46061 12.1788 4.24902 12.2932C4.14419 12.3515 4.03731 12.4039 3.93248 12.4622C3.82765 12.5204 3.72666 12.5826 3.61978 12.6389C3.51495 12.701 3.41396 12.7593 3.3072 12.8156L2.99066 12.9884L2.35182 13.334H2.35156ZM4.86214 12.0951C4.86214 12.0951 4.11846 12.666 3.8777 12.8485C3.63693 13.031 2.9282 13.5436 2.9282 13.5436L4.86214 12.0951Z" fill="#CFB66C"/>
<path fill-rule="evenodd" clip-rule="evenodd" d="M9.12957 16.699L8.74902 15.9786L8.97034 15.0776L10.549 14.468L9.87709 13.0894L10.2091 11.6971L10.8325 10.4504L12.7588 10.1476L14.1742 8.79807L17.2306 9.02911L17.8306 12.2971L16.6752 16.4116L16.017 18.5418L13.349 18.6428L12.1102 17.7846L10.6597 17.1786L9.12957 16.699Z" fill="#E2CC85"/>
<path fill-rule="evenodd" clip-rule="evenodd" d="M13.8099 16.6757C13.8099 16.6757 13.4409 16.8447 12.8116 16.8057C12.6294 16.5611 11.3538 16.4466 11.3538 16.4466C11.3538 16.4466 11.1945 16.3981 10.9129 16.5145C10.6295 16.6297 10.3615 16.6155 10.111 16.6776C9.86053 16.7397 9.61183 16.4135 9.41983 16.3456C9.22783 16.2738 8.97324 16.101 8.97324 16.101L8.43564 16.0485L7.3561 15.5922L5.64104 13.8835L5.17499 14.6131L5.03125 15.516L5.54977 16.586L6.94586 17.8578L9.66815 18.549L11.2817 18.0736L13.3031 17.2192L13.8099 16.6756V16.6757Z" fill="#F1D789"/>
<path fill-rule="evenodd" clip-rule="evenodd" d="M4.13719 10.6369L4.48279 9.59042L4.89458 8.91458L6.22067 8.80386L5.82259 9.96507L4.71396 11.9379L5.17413 13.6991L4.35863 14.1068L4.108 13.7224L3.90615 12.8408L3.89258 11.8505L4.13719 10.6369Z" fill="#F4ECB4"/>
<path fill-rule="evenodd" clip-rule="evenodd" d="M5.62513 16.6039L5.37079 16.2486C5.37079 16.2486 5.30282 16.0796 5.34174 15.932C5.38014 15.7825 5.37463 15.7728 5.3553 15.7165C5.33598 15.6601 5.17278 15.466 5.1825 15.2989C5.1921 15.13 5.16894 15.0737 5.2931 14.9398C5.42314 14.8097 5.38436 14.5844 5.38436 14.5844L5.55332 14.6893L5.59172 14.631C5.59172 14.631 5.6538 14.6795 5.6538 14.7553C5.66737 14.6505 5.61105 14.165 5.73918 14.0544C5.8673 13.9438 6.0945 14.5728 6.0945 14.5728L5.95473 13.6601L5.59543 12.7243L4.95658 11.8699L4.91818 10.9281V10.8466C4.91818 10.8466 4.62494 11.2971 4.5434 11.653C4.48516 11.8976 4.62494 12.1947 4.59588 12.5462C4.57246 12.8957 4.5434 12.8685 4.62878 13.007C4.71415 13.1455 4.92202 13.4303 4.84049 13.6361C4.76868 13.8129 4.52394 13.6886 4.52394 13.6886C4.52394 13.6886 4.47543 13.8322 4.40938 13.8847C4.38609 13.7993 4.36087 13.7449 4.31428 13.6927C4.31031 13.7257 4.30071 13.7704 4.30071 13.7704C4.30071 13.7704 4.25796 13.6363 4.21521 13.4674C4.1571 13.2422 4.09489 12.9451 4.03857 12.7859C4.01527 12.8772 3.95703 13.1548 3.95703 13.1548L3.99006 13.5821L4.14929 14.1684L4.30289 14.5524L4.45239 15.0223L4.58231 15.338L4.68714 15.5787L4.77841 16.1206L5.21911 16.5865L5.45412 16.6914L5.62487 16.604L5.62513 16.6039Z" fill="#F3E19D"/>
<path fill-rule="evenodd" clip-rule="evenodd" d="M4.36926 9.78253C4.36926 9.78253 4.05271 10.3201 3.96157 10.8621C3.87044 11.404 3.78877 11.9767 3.84637 12.7145C3.90461 13.4583 4.01533 13.9145 4.10468 14.2408C4.25828 14.7826 4.65611 15.536 4.65611 15.536L4.66967 15.5068C4.6028 15.3801 4.54943 15.2466 4.51044 15.1087C4.45796 14.9029 4.4385 14.6583 4.38999 14.5476C4.34724 14.437 4.27543 14.3418 4.24049 14.2058C4.20746 14.0758 4.20209 13.87 4.10071 13.7166C4.05796 13.6544 4.00548 13.4913 3.98999 13.3283C3.97053 13.0835 3.99972 12.8097 3.97642 12.5846C3.93367 12.2098 3.90461 11.9555 3.9434 11.7592C3.98218 11.563 4.18429 11.006 4.30858 10.5632C4.39012 10.2797 4.34148 10.0408 4.49098 9.79418C4.64049 9.54957 4.73188 9.33402 4.76478 9.18452C4.80318 9.04858 4.36874 9.78253 4.36874 9.78253H4.36926Z" fill="#F2E8B0"/>
<path fill-rule="evenodd" clip-rule="evenodd" d="M5.87047 9.56697C5.87047 9.56697 5.70739 9.61561 5.6297 9.70098C5.552 9.78252 5.51897 9.85049 5.41414 9.98834C5.30931 10.1262 5.30342 10.2388 5.21791 10.4116C5.13254 10.5806 4.94412 10.8349 4.92082 10.9262C4.89753 11.0174 4.85874 11.4446 4.81023 11.6466C4.76748 11.8485 4.85874 12.0971 4.85874 12.0971L4.96933 12.0737C4.96933 12.0737 4.96933 12.2174 5.08006 12.3146C5.19065 12.4097 5.21011 11.9921 5.21011 11.9921L5.62368 10.5961L6.24692 10.1728L6.31489 9.83103L5.87021 9.56697H5.87047Z" fill="#F5EEC0"/>
<path fill-rule="evenodd" clip-rule="evenodd" d="M6.17264 10.2001C6.17264 10.2001 5.87939 10.2194 5.73578 10.3244C5.67754 10.367 5.65424 10.4019 5.59217 10.4544C5.47761 10.5495 5.361 10.637 5.30481 10.7616C5.2426 10.8858 5.17464 11.0742 5.12805 11.4295C5.10859 11.579 5.10859 11.7169 5.09502 11.8373C5.07557 12.0004 5.04651 12.1305 5.062 12.2213C5.08145 12.4077 5.27371 12.5049 5.29239 12.7164L5.69047 12.5146L6.06524 11.0368L6.86139 10.5376L6.41084 10.0328L6.17212 10.1992L6.17264 10.2001Z" fill="#E6DB9D"/>
<path fill-rule="evenodd" clip-rule="evenodd" d="M4.07239 20.1509C4.07406 20.1363 4.07572 20.1217 4.07739 20.1068C4.1355 19.6076 4.14535 19.2292 4.18798 18.9923C4.25006 18.6564 4.29281 18.5315 4.28308 18.4058C4.26952 18.2039 4.25403 18.0563 4.27348 17.9009C4.30254 17.6951 4.50452 17.4505 4.49876 17.2815C4.4948 17.1475 4.42683 17.0602 4.36859 16.9787C4.31035 16.8972 4.26376 16.8292 4.26376 16.8292C4.26376 16.8292 4.66184 16.5554 4.658 15.4524C4.66613 15.4547 4.67395 15.458 4.68129 15.4621L4.87739 16.0193L5.01141 16.1824L5.52597 17.1416L6.18812 17.7844L7.16669 18.4426L7.78033 19.1104L7.84241 20.891L7.04048 21.9318L6.90915 22.1696C5.86578 21.6458 4.909 20.9649 4.07227 20.1508L4.07239 20.1509Z" fill="#E5CB7A"/>
<path fill-rule="evenodd" clip-rule="evenodd" d="M6.52246 21.8543C6.52246 21.8543 6.53603 21.633 6.71856 21.4893C6.74774 21.5378 6.76707 21.5845 6.76131 21.6193C6.79433 21.5612 7.02537 21.1884 7.54774 21.0912C8.07011 20.9961 8.19631 20.6156 8.19631 20.6156L9.30492 19.6078L10.5729 18.4408L12.1146 17.899L12.8352 17.7222C12.8352 17.7222 12.8487 17.7747 12.8216 17.8912C12.9555 17.8816 13.2526 17.8136 13.5613 17.7048C13.6856 17.6563 13.8022 17.6369 13.8643 17.701C13.9555 17.7864 13.9691 17.9884 13.9749 18.1087C14.1244 18.0757 14.2972 17.932 14.4357 17.9456C14.6571 17.9689 14.8532 18.2291 15.0785 18.2291C15.3756 18.2291 15.5094 18.0466 15.7173 17.9029C15.8416 17.8175 16.0202 17.7109 16.1212 17.6388C16.3619 17.462 18.9095 16.6834 18.9095 16.6834L19.8027 16.7416L19.9464 17.7009L19.8696 20.2084C19.8602 20.2175 19.8507 20.2269 19.8411 20.236L15.7799 22.3571L10.1505 23.2201C8.88947 23.0141 7.67257 22.5955 6.55164 21.9822L6.52284 21.8542L6.52246 21.8543Z" fill="#D8C173"/>
<path fill-rule="evenodd" clip-rule="evenodd" d="M4.41406 20.4699C4.49406 20.3026 4.566 20.1627 4.57867 20.1127C4.58865 20.2135 4.60696 20.4348 4.64382 20.6701C4.56642 20.6043 4.48984 20.5375 4.41406 20.4698V20.4699Z" fill="#F1D789"/>
<path fill-rule="evenodd" clip-rule="evenodd" d="M8.52629 22.8297L9.25436 22.6272L9.31644 22.6467C9.31644 22.6467 9.34946 22.6662 9.34946 22.7321C9.44072 22.6797 9.51842 22.6893 9.57474 22.6545C9.6038 22.7166 9.63285 22.9224 9.76111 22.9476C9.895 22.9768 10.0387 22.8894 10.1844 22.7788C10.328 22.6642 10.4916 22.5205 10.6154 22.4623C10.6608 22.5458 10.701 22.632 10.7358 22.7204C10.8989 22.5904 11.1824 22.0622 11.5863 22.0718C11.703 21.796 11.898 21.5604 12.1472 21.3942C12.522 21.1399 12.7568 21.1204 13.0501 21.1437C13.1666 20.9924 13.3101 20.864 13.4734 20.7651C13.5219 20.7845 13.6559 20.8661 13.823 20.7884C13.9919 20.7108 14.1821 20.4098 14.4326 20.371C14.5676 20.3524 14.7049 20.3812 14.821 20.4525C14.821 20.4525 15.5506 19.7282 16.054 19.4874C16.0346 19.4291 15.9958 19.2098 16.586 18.7242C16.619 18.7534 16.5957 18.835 16.619 18.8394C16.6286 18.8394 16.7726 18.7774 16.9549 18.6375C17.1802 18.4686 17.45 18.2919 17.6131 18.2433C17.9203 18.1521 18.2462 18.3385 18.2462 18.3385C18.2739 18.319 18.3047 18.3045 18.3374 18.2957C18.415 18.2821 18.4713 18.2724 18.5141 18.2573C18.5102 18.3583 18.5665 18.5311 18.5141 18.6806C18.5749 18.7148 18.6392 18.7421 18.7061 18.7621C18.6732 18.8339 18.6012 19.0165 18.4809 19.1039C18.5818 19.1524 18.5953 19.2087 18.7391 19.2575C18.6808 19.339 18.5855 19.4789 18.543 19.5647C18.5002 19.656 18.3468 20.0346 18.2788 20.1782C18.207 20.322 18.11 20.586 18.0632 20.639C18.0165 20.692 17.8477 20.9166 17.7176 21.0272C17.8328 20.9845 18.3041 20.8409 18.5041 20.7865C18.4446 20.8738 18.1429 21.3214 17.8528 21.7518C16.4641 22.5842 14.9139 23.1111 13.3055 23.2973C11.6972 23.4835 10.0676 23.3247 8.52539 22.8317L8.52629 22.8297Z" fill="#E0CD81"/>
<path fill-rule="evenodd" clip-rule="evenodd" d="M6.22111 10.1476C6.22111 10.1476 6.05227 10.1476 6.01925 10.1709C5.98622 10.1942 6.18821 10.2428 6.25029 10.2661C6.31238 10.2894 6.4464 10.3961 6.48134 10.4817C6.51436 10.5632 7.69494 11.0388 7.69494 11.0388L8.52991 10.9961L8.81779 10.5984L8.27019 10.1188L8.6542 8.98674L8.14551 9.06828L6.92218 9.79788L6.30854 10.0329L6.22111 10.1476Z" fill="#DFC57C"/>
<path fill-rule="evenodd" clip-rule="evenodd" d="M8.05432 10.5224C8.06639 10.5419 8.08339 10.5579 8.10361 10.5688C8.12383 10.5797 8.14656 10.5851 8.16952 10.5844C8.34232 10.5844 8.50142 10.6272 8.56747 10.7145C8.67819 10.8544 8.98501 11.301 8.98501 11.301L9.71896 11.565L9.76632 10.7008L8.9644 10.1436L8.05176 10.4795V10.5222H8.05381L8.05432 10.5224Z" fill="#E5CC7C"/>
<path fill-rule="evenodd" clip-rule="evenodd" d="M7.91061 10.8427C7.91061 10.8427 8.04449 10.8524 8.21345 10.7902C8.38241 10.728 8.66005 10.5941 8.78049 10.6466C8.94933 10.7184 8.91438 10.9437 9.09704 11.1458C9.20763 11.2701 9.40961 11.2663 9.52417 11.4003C9.63873 11.5343 10.0328 11.4721 10.0328 11.4721L10.1824 12.2785L9.58241 13.0475L9.38619 14.0028H8.57493L7.83381 13.7088L7.46875 12.8256L7.65128 11.9324L7.91061 10.8427Z" fill="#D2C281"/>
<path fill-rule="evenodd" clip-rule="evenodd" d="M9.47926 10.8815C9.49938 10.8877 9.52028 10.891 9.54134 10.8912C9.51804 10.9107 9.4694 10.9533 9.48886 11.064C9.50831 11.1748 9.57039 11.3145 9.51804 11.3999C9.55983 11.4456 9.591 11.5 9.6093 11.5591C9.64233 11.6544 9.65206 11.7417 9.86748 11.7553C9.83639 11.7745 9.80772 11.7973 9.7821 11.8233C9.7821 11.8233 9.93161 11.9534 10.0074 12.0737C10.085 12.0703 10.2908 12.0064 10.2908 12.0064L10.3335 12.0355L10.4248 11.9971C10.4248 11.9971 10.3394 11.9641 10.4015 11.7564C10.4597 11.5738 10.5122 11.5836 10.5167 11.57C10.5212 11.5564 10.5594 11.3642 10.5594 11.2865C10.5885 11.1856 10.6118 10.8788 10.6118 10.8788L10.5497 10.2012L10.2003 9.98951L9.91612 9.71521L9.64809 10.22L9.47158 10.396L9.45801 10.8329L9.47926 10.8815Z" fill="#E2C270"/>
<path fill-rule="evenodd" clip-rule="evenodd" d="M10.3203 10.3146C10.3203 10.3146 10.3824 10.4913 10.4058 10.6272C10.4141 10.6008 10.4186 10.5733 10.4194 10.5457C10.4194 10.5457 10.4679 10.8137 10.4775 10.9244C10.497 10.9204 10.5159 10.9147 10.5202 10.934C10.5246 10.9533 10.5689 11.169 10.5586 11.2893C10.6395 11.1559 10.7514 11.044 10.8848 10.9632C10.9625 10.9146 11.0538 10.8622 11.149 10.8582C11.2985 10.8544 11.4072 10.9535 11.5858 10.9535C12.0168 10.9535 12.4072 10.6369 12.6946 10.5399C12.9062 10.468 13.0887 10.4156 13.2168 10.299C13.279 10.2466 13.3898 10.1302 13.4906 9.95724C13.6246 9.72684 13.7644 9.52626 13.9043 9.50105C13.841 9.51268 13.7766 9.51723 13.7123 9.51462C13.7123 9.51462 13.7551 9.47186 13.8275 9.41362C13.9 9.35538 13.9867 9.28358 14.1109 9.28358C14.3323 9.28358 14.4429 9.31647 14.5672 9.31647C14.6915 9.31263 14.7633 9.28358 14.7633 9.28358C14.7633 9.28358 14.8935 9.37484 15.1866 9.37484C15.4799 9.37868 15.676 9.4039 15.8294 9.41759C15.9829 9.43129 16.4973 9.37484 16.6449 9.37919C16.7411 9.3829 16.8356 9.40602 16.9227 9.44716L16.4469 8.06476L14.7378 6.571L13.7204 7.29138L12.1552 8.85644L10.6407 9.41759L10.3242 9.77292V10.3146H10.3203Z" fill="#CCB360"/>
<path fill-rule="evenodd" clip-rule="evenodd" d="M13.718 9.52228C13.718 9.52228 13.7608 9.47966 13.8325 9.42142C13.9041 9.36318 13.9918 9.29124 14.116 9.29124C14.3373 9.29124 14.448 9.32427 14.5723 9.32427C14.6966 9.32043 14.7684 9.29124 14.7684 9.29124C14.7684 9.29124 14.8987 9.38238 15.1917 9.38238C15.485 9.38622 15.6811 9.41144 15.8345 9.425C15.988 9.43857 16.5025 9.38238 16.65 9.38661C16.7462 9.39023 16.8407 9.41335 16.9277 9.45457L16.7121 8.83121L16.4618 8.35557L15.7471 7.57297L14.883 7.0643C14.8791 7.06046 14.5859 6.98277 14.5859 6.98277L13.8092 7.45265L13.1044 9.27601L13.0908 9.66001L13.547 9.87557C13.6616 9.68357 13.7879 9.52996 13.9063 9.51051C13.7994 9.52216 13.7179 9.52216 13.7179 9.52216L13.718 9.52228Z" fill="#D5B457"/>
<path fill-rule="evenodd" clip-rule="evenodd" d="M13.7084 9.6525C13.6404 9.65634 13.5842 9.64277 13.5686 9.59426C13.5104 9.43119 13.4638 9.40789 13.415 9.40789C13.3663 9.40789 13.3005 9.51272 13.2614 9.52232C13.2224 9.53192 13.1761 9.402 13.1761 9.402L13.1333 9.38255C13.1333 9.38255 12.8828 9.54562 12.7062 9.73787C12.5295 9.93013 12.2401 10.2564 12.1101 10.3145C11.9801 10.3726 11.5334 10.3922 11.3805 10.4252C11.2277 10.4583 11.0582 10.569 11.0349 10.5942C11.0116 10.6194 11.103 10.6465 11.1166 10.6718C11.1302 10.6951 10.967 10.6853 10.9534 10.7102C10.9438 10.7296 10.9918 10.8402 11.0156 10.8965C11.0573 10.8758 11.103 10.8645 11.1495 10.8635C11.299 10.8597 11.4078 10.9587 11.5863 10.9587C12.0174 10.9587 12.4077 10.6422 12.695 10.545C12.9068 10.4732 13.0893 10.4208 13.2174 10.3043C13.2795 10.2519 13.3902 10.1353 13.4912 9.96251C13.5649 9.84411 13.6368 9.73339 13.7088 9.65186L13.7084 9.6525Z" fill="#D2B257"/>
<path fill-rule="evenodd" clip-rule="evenodd" d="M7.52654 19.2623C7.52654 19.2623 7.48814 19.1185 7.1323 18.7477C7.03131 18.6429 6.96923 18.5557 6.90126 18.4934C6.7323 18.334 6.63323 18.2914 6.51291 18.2001C6.24884 18.004 5.96148 18.004 5.74016 17.7632C5.51885 17.5225 5.26093 17.0624 5.08173 16.5923C4.90509 16.1224 4.85645 15.9729 4.85645 15.9593C4.85645 15.9457 4.90509 15.8545 4.96717 15.868C5.02925 15.8816 5.02925 16.0019 5.04486 16.0311C5.07579 16.0788 5.11087 16.1236 5.1497 16.165C5.24096 16.27 5.37101 16.3954 5.43706 16.5826C5.42349 16.4233 5.36909 16.2467 5.36909 16.2467C5.36909 16.2467 5.71085 16.4622 6.00205 16.6874C6.2953 16.9127 6.41562 16.9904 6.50126 17.134C6.58689 17.2776 6.78862 17.6564 6.88526 17.7671C6.9819 17.8778 8.30607 18.2952 8.30607 18.2952L8.93596 18.7649L9.24867 19.4503L9.00393 19.8343L8.53404 19.9353L7.7709 19.5935L7.52654 19.2621V19.2623Z" fill="#D2B159"/>
<path fill-rule="evenodd" clip-rule="evenodd" d="M5.83105 16.901C5.83105 16.901 5.99029 17.1554 6.37863 17.3961C6.7282 17.6078 7.28154 17.8001 7.77485 17.9147C8.05824 17.9826 8.34176 18.035 8.59609 18.0389C9.28153 18.0485 9.75333 17.8526 10.3379 17.7884C10.6544 17.7554 11.0428 17.7302 11.4466 17.6348C11.965 17.5106 12.2718 17.3707 12.6894 17.174C12.9922 17.0343 13.27 16.9294 13.4951 16.7954C13.8117 16.6091 14.0427 16.4013 14.3107 16.3392C14.2777 16.4305 14.2428 16.5936 13.9787 16.7625C14.1185 16.7586 14.3107 16.749 14.3107 16.749C14.3107 16.749 14.1244 16.8596 13.7962 17.1081C13.5942 17.2617 13.3263 17.5217 13.0525 17.6945C12.8757 17.8052 12.6835 17.8865 12.5573 17.9528C12.2501 18.1218 12.1262 18.2071 11.9243 18.4136C11.9961 18.4098 12.002 18.4136 12.002 18.4136C12.002 18.4136 11.7476 18.4466 11.5652 18.5436C11.5268 18.5436 11.4602 18.5301 11.3437 18.5631C11.2525 18.5922 11.132 18.6583 11.0078 18.6932C10.8311 18.7456 10.773 18.7223 10.773 18.7223L10.802 18.7806C10.802 18.7806 10.5716 18.7766 10.4948 18.7844C10.5084 18.7883 10.5046 18.7941 10.5046 18.7941C10.4911 18.7964 10.4781 18.801 10.4662 18.8077C10.4292 18.8317 10.3885 18.8493 10.3458 18.8601C10.3225 18.8639 10.3031 18.8639 10.2739 18.8698C10.2836 18.8931 10.3594 19.0234 10.3944 19.1002C10.3653 19.1196 9.92831 19.4498 9.92831 19.4498C9.94186 19.4711 9.95294 19.4939 9.96133 19.5177C9.9749 19.5604 9.98078 19.6226 9.99435 19.6516C10.0272 19.7099 10.0467 19.7196 10.0467 19.7196C10.0467 19.7196 9.99435 19.7293 9.90296 19.7526C9.82539 19.7721 9.73016 19.805 9.59576 19.8244C9.55453 19.8298 9.51305 19.833 9.47148 19.8341C9.49093 19.8769 9.57631 20.04 9.419 20.2283C9.26169 20.4165 9.21317 20.4439 9.16466 20.5643C9.14024 20.5458 9.11424 20.5295 9.08697 20.5156C9.03462 20.4923 8.96268 20.4575 8.93746 20.4108C8.92277 20.473 8.90329 20.5341 8.87923 20.5933C8.83071 20.7234 8.75891 20.8516 8.74534 20.9486C8.69286 20.8904 8.59584 20.7758 8.46182 20.7991C8.32781 20.8224 8.22105 21.005 8.19776 21.0574C8.19776 21.0244 8.17446 20.9992 8.1687 21.038C8.16473 21.0807 8.09101 21.5272 7.67936 21.8884C7.67552 21.7972 7.67552 21.5952 7.66579 21.5292C7.62739 21.5676 7.58042 21.6244 7.30074 21.7448C7.02695 21.8651 7.07034 21.9856 7.07034 21.9856C7.07034 21.9856 7.04705 21.7936 7.19463 21.5913C7.34413 21.3895 7.4354 21.2942 7.4354 21.2788C7.43298 21.263 7.42625 21.2482 7.41594 21.236C7.39648 21.2165 7.3577 21.1933 7.3577 21.1778C7.381 21.1682 7.61203 21.0574 7.59847 20.8282C7.5849 20.6225 7.4976 20.5156 7.4354 20.44C7.4258 20.4302 7.52679 20.3584 7.51309 20.3351C7.50336 20.3216 7.3792 20.2302 7.36359 20.1815C7.36726 20.1525 7.37377 20.1239 7.38304 20.0962C7.39661 20.0534 7.40634 20.0242 7.4025 19.9952C7.39277 19.9467 7.34029 19.8126 7.3248 19.7991C7.33837 19.8029 7.4354 19.7991 7.4354 19.7991C7.4354 19.7991 7.35783 19.6748 7.34413 19.6165C7.33044 19.5583 7.30138 19.4048 7.28589 19.3758C7.31892 19.3796 7.40045 19.3854 7.40045 19.3758C7.40442 19.3466 7.32864 19.2981 7.36205 19.2606C7.38535 19.2644 7.43002 19.2839 7.47264 19.3383C7.44935 19.2761 7.41056 19.1557 7.3289 19.1072C7.3673 19.0937 7.49786 19.0586 7.61242 19.1266C7.72698 19.1945 7.76602 19.2896 7.76602 19.2896C7.76602 19.2896 7.83398 19.3421 7.93894 19.4198C8.05926 19.5149 8.21261 19.6502 8.45734 19.746C8.50982 19.7751 8.64371 19.7751 8.74086 19.7557C8.78316 19.7456 8.82371 19.7293 8.86118 19.7072C8.8747 19.6992 8.88903 19.6927 8.90393 19.6877C8.88306 19.6458 8.85905 19.6056 8.83212 19.5673C8.86515 19.5673 8.90393 19.5712 8.90393 19.5712C8.90393 19.5712 8.92722 19.5188 8.82239 19.4176C8.84569 19.3943 8.87487 19.3792 8.87487 19.3399C8.84185 19.3361 8.78361 19.2876 8.77004 19.2681C8.78937 19.2546 8.81855 19.2099 8.85158 19.1963C8.82239 19.173 8.75059 19.0759 8.71756 19.0663C8.74911 19.0546 8.77963 19.0403 8.80883 19.0235C8.80883 19.0235 8.64575 18.9808 8.59327 18.9458C8.5408 18.9074 8.46323 18.841 8.41664 18.8215C8.368 18.8021 8.28262 18.7925 8.24768 18.7536C8.28057 18.7633 8.33305 18.7536 8.37196 18.7536C8.40102 18.7536 8.41472 18.7574 8.42432 18.7574C8.42048 18.7438 8.42048 18.7147 8.49625 18.7051C8.5327 18.6996 8.56807 18.6884 8.60108 18.672C8.60108 18.672 8.52915 18.6682 8.44748 18.5905C8.36582 18.5128 8.29798 18.4507 8.25139 18.441C8.20288 18.4313 8.11161 18.474 8.05529 18.47C7.9776 18.4604 7.94458 18.4215 7.94458 18.4215C7.94458 18.4215 7.6864 18.4448 7.11361 18.0954C6.61838 17.7924 6.40283 17.5245 6.40283 17.5245C6.35648 17.5077 6.31168 17.4869 6.26894 17.4623C6.08257 17.3653 5.82427 17.1633 5.83208 16.8991L5.83105 16.901Z" fill="#C2A44D"/>
<path fill-rule="evenodd" clip-rule="evenodd" d="M12.9743 5.24655C13.0192 5.26114 13.0591 5.28806 13.0895 5.32425C13.1807 5.42908 13.239 5.62709 13.0312 5.83881C13.1127 5.86786 13.1464 5.87721 13.2176 5.86786C13.1458 5.95337 12.9827 6.13589 12.973 6.29513C12.9632 6.42517 13.0448 6.46409 13.0448 6.46409C13.0448 6.46409 12.9205 6.6077 12.9147 6.84809C12.9734 6.7819 13.0377 6.72083 13.1067 6.66556C13.2505 6.551 13.4485 6.42095 13.5825 6.33941C13.5807 6.37359 13.5853 6.4078 13.5961 6.44028C13.5961 6.44028 13.8465 6.23445 14.0569 6.32585C14.152 6.3686 14.1092 6.50249 14.1092 6.50249C14.1092 6.50249 14.2394 6.45397 14.3307 6.54524C14.422 6.6365 14.551 6.87189 14.6172 6.96316C14.6462 7.00591 14.722 7.08745 14.7996 7.21365C14.9055 7.39035 14.994 7.57696 15.0638 7.77084C15.0676 7.66985 15.0928 7.51266 15.3803 7.61161C15.6677 7.7126 15.9938 7.92431 16.2676 8.34121C16.5414 8.7581 16.6092 9.22876 16.7471 9.40796C16.8869 9.58076 17.0306 9.86812 17.0404 9.98857C17.0501 10.109 16.9976 10.4972 17.285 11.5477C17.3665 11.2216 17.4908 10.4972 17.4908 10.4972L17.5588 9.85839L17.6365 7.88169L15.5723 6.16687L13.9587 4.99593L12.9082 5.09692L12.9741 5.24642L12.9743 5.24655Z" fill="#CAA13E"/>
<path fill-rule="evenodd" clip-rule="evenodd" d="M16.81 8.18827C16.81 8.18827 16.7809 7.99627 16.2955 7.66987C15.81 7.34757 15.4313 7.34757 15.0819 7.07378C14.8139 6.85822 14.5343 6.36299 14.3523 6.19992C14.1755 6.03877 14.1465 5.57272 14.1465 5.57272L14.7426 5.07352L15.6291 3.79211L16.3785 2.9669L16.7377 3.4661L17.2369 4.05246L17.5145 5.22917L17.6155 6.95154L16.8091 8.1884L16.81 8.18827Z" fill="#B59544"/>
<path fill-rule="evenodd" clip-rule="evenodd" d="M17.4095 10.2528C17.4242 9.99161 17.392 9.72989 17.3143 9.48007C17.1863 9.08199 16.9066 8.37518 16.7767 8.11047C16.7242 7.81722 16.7631 7.79393 16.8195 7.7609C16.8758 7.72788 17.0875 7.6073 17.2035 7.18426C17.3194 6.76122 17.6792 6.7474 17.6792 6.7474L17.9006 6.58433L18.2366 7.42503L18.5297 8.18433L18.621 8.76494L18.6889 9.26004L18.5297 10.3067L17.7434 11.0174L17.4094 10.2528H17.4095Z" fill="#C89D3A"/>
<path fill-rule="evenodd" clip-rule="evenodd" d="M6.4375 21.9186V21.8971C6.45384 21.8869 6.46827 21.8739 6.48012 21.8587C6.49369 21.8392 6.50355 21.8159 6.51315 21.8102C6.5326 21.8005 6.62387 21.7718 6.67238 21.781C6.72089 21.7902 6.84915 21.8431 6.91712 21.8392C7.05689 21.8354 7.21996 21.7285 7.47827 21.7772C7.86662 21.849 7.95788 22.113 8.18316 22.2625C8.33676 22.3675 8.49574 22.3208 8.51904 22.3208H8.57139C8.58112 22.3208 8.65292 22.2392 8.69184 22.2432C8.76953 22.2471 8.77721 22.3112 8.82572 22.315C8.94028 22.3286 9.16172 22.2568 9.27244 22.286C9.30528 22.2963 9.33513 22.3143 9.35947 22.3386C9.38381 22.363 9.40191 22.3928 9.41222 22.4256C9.43552 22.4974 9.41606 22.5887 9.35974 22.6412C9.23942 22.7518 9.12486 22.8567 9.10157 22.9484C9.1312 22.971 9.15965 22.9951 9.18681 23.0206C8.22607 22.7758 7.3017 22.4057 6.4375 21.9198V21.9186Z" fill="#CEB052"/>
<path fill-rule="evenodd" clip-rule="evenodd" d="M16.7764 18.0389C16.7764 18.0389 17.0792 17.6351 17.1842 17.435C17.289 17.2288 16.8521 14.6176 16.8521 14.6176L17.7298 11.742L17.7064 10.806C17.7064 10.806 17.7492 9.94189 17.8501 9.5671C17.9706 9.78265 18.3454 10.0429 18.4269 10.1807C18.4653 9.91654 18.5957 9.35936 18.5764 8.76518C18.6482 8.87577 18.821 9.98848 18.821 9.98848L18.9938 10.7379L19.2191 11.5341L19.4696 12.3749L19.6191 12.9555L19.7045 13.0953L19.7764 13.3399L19.8444 13.6041L20.0405 14.2235L20.1557 14.7322L20.2469 15.6545C20.2668 15.7252 20.2811 15.7972 20.2897 15.8701C20.2935 15.9711 20.2761 16.0293 20.2761 16.0468C20.2761 16.0644 20.3091 16.2682 20.2956 16.4216C20.2761 16.5752 20.2761 16.6954 20.1557 16.8056C20.0352 16.9158 19.9596 17.5745 19.9596 17.5745L19.744 17.4309C19.744 17.4309 19.7868 17.2347 19.6858 17.0561C19.5848 16.8776 19.3887 16.8406 19.278 16.8698C19.1674 16.8931 18.9461 16.9279 18.8741 16.9901C18.8062 17.0522 18.6393 17.2444 18.4858 17.3318C18.2938 17.447 17.981 17.4561 17.8141 17.4949C17.6451 17.5333 17.4587 17.6485 17.2625 17.7823C17.1087 17.8819 16.9462 17.9676 16.7771 18.0383L16.7764 18.0389Z" fill="#CCA847"/>
<path fill-rule="evenodd" clip-rule="evenodd" d="M16.7764 22.2816C16.7764 22.2816 16.7892 22.2899 16.8139 22.3035C18.1934 21.6572 19.4295 20.741 20.4491 19.6091C20.4379 19.2161 20.4235 18.8133 20.4076 18.6641C20.3747 18.3475 20.398 18.0252 20.3883 17.8388C20.3785 17.6525 20.2737 16.8932 20.2252 16.6971C20.1727 16.501 20.0716 16.4038 20.0562 16.4038C20.0427 16.4078 19.961 16.7729 19.961 16.8646C19.961 16.9564 19.9415 17.1773 19.9415 17.2337C19.928 17.2297 19.9222 17.1953 19.9222 17.1812C19.9028 17.2297 19.8795 17.3152 19.8697 17.3249C19.86 17.3346 19.8833 17.2434 19.8697 17.2239C19.8562 17.2045 19.8313 17.2142 19.8367 17.1657C19.839 17.1369 19.8436 17.1084 19.8503 17.0803C19.8503 17.0803 19.792 17.1657 19.7494 17.3832C19.7067 17.5987 19.7067 17.6046 19.6912 17.6239C19.6776 17.6474 19.5999 17.7249 19.5959 17.7541C19.5921 17.8065 19.6679 17.8589 19.6736 17.888C19.6775 17.9366 19.6057 18.1618 19.5824 18.272C19.5591 18.3822 19.5688 18.5981 19.544 18.7089C19.5245 18.8098 19.5056 18.8681 19.4391 18.9107C19.4877 18.9204 19.5343 18.934 19.5343 18.934C19.5343 18.934 19.6022 19.2214 19.4294 19.4661C19.3673 19.5515 19.3519 19.5904 19.2858 19.6681C19.1556 19.8117 19.0546 19.9753 19.0449 20.0817C19.0382 20.0503 19.0337 20.0184 19.0313 19.9864C19.0313 19.9864 18.8295 20.2214 18.744 20.3554C18.6334 20.5282 18.4799 20.5185 18.4368 20.5613C18.3936 20.604 18.3843 20.6816 18.3984 20.7438C18.36 20.7534 18.2878 20.7671 18.2391 20.9166C18.2159 20.9942 18.1576 21.0702 18.0663 21.1224C17.9751 21.1746 17.8644 21.1904 17.808 21.204C17.8566 21.2175 17.876 21.2175 17.8993 21.233C17.8703 21.2815 17.7362 21.3573 17.5867 21.4545C17.4372 21.5457 17.3653 21.6796 17.3284 21.767C17.29 21.8486 17.2333 21.901 17.1421 21.9108C17.1805 21.9341 17.2373 21.9883 17.2663 22.0059C17.2236 22.0156 17.1512 22.0156 17.0217 22.1263C16.8858 22.239 16.8392 22.272 16.777 22.2817L16.7764 22.2816Z" fill="#C39D3C"/>
<path fill-rule="evenodd" clip-rule="evenodd" d="M14.0749 23.1815C14.1492 23.1293 14.2297 23.0867 14.3146 23.0544C14.6175 22.934 14.9378 22.9107 15.064 22.872C15.1845 22.8336 15.2796 22.7806 15.4291 22.7515C15.4251 22.7856 15.4218 22.8176 15.4182 22.8478C14.9775 22.9863 14.5286 23.0978 14.0742 23.1815H14.0749Z" fill="#D2BA6B"/>
<path fill-rule="evenodd" clip-rule="evenodd" d="M19.6607 15.2156C19.6607 15.2156 19.5986 15.5515 19.4879 15.7632C19.3771 15.9749 19.2575 16.268 19.2575 16.268C19.2582 16.202 19.266 16.1362 19.2808 16.0718C19.141 16.1533 18.8011 16.3496 18.7048 16.4369C18.6135 16.5184 18.46 16.6621 18.4212 16.7301C18.5125 16.4622 18.6076 16.2214 18.6232 16.1107C18.4834 16.2117 17.8309 16.7496 17.4912 17.1049L16.4329 17.9612C16.3108 18.0271 16.185 18.086 16.0562 18.1376C15.8738 18.2152 15.6582 18.2812 15.499 18.3434C15.5418 18.2289 15.6096 18.1277 15.7048 18.0307C15.8058 17.9356 16.1087 17.6074 16.1553 17.4547C16.198 17.2955 16.2077 17.2004 16.1514 17.0664C16.0989 17.0799 15.9786 17.0858 15.8971 17.1091C15.8155 17.1324 15.7281 17.2197 15.7281 17.2197C15.7281 17.2197 15.7902 16.8644 15.9242 16.5285C15.8232 16.5323 15.6504 16.5614 15.6504 16.5614C15.6504 16.5614 15.8912 16.1576 16.3032 15.8761C16.177 15.9029 16.0536 15.9412 15.9343 15.9905C15.6936 16.0915 15.4295 16.241 15.2334 16.3225C15.344 16.1689 16.1207 15.0605 16.5829 14.0274C17.0437 12.9963 17.2159 12.7323 17.3169 12.1789C17.3692 11.9051 17.3553 11.5005 17.3692 11.1382C17.3828 10.7789 17.4274 10.4566 17.3984 10.241C17.5187 10.3905 17.9693 10.8119 17.9848 11.7537C17.9983 12.6954 17.5538 13.9673 17.0818 14.6527C17.197 14.6857 17.4955 14.7246 17.8022 14.1919C18.1089 13.6591 18.1052 13.5104 18.2159 13.2889C18.2295 13.3997 18.2255 13.4385 18.2255 13.4385C18.2255 13.4385 18.6722 12.8968 18.8838 12.2152C18.9266 12.5084 19.0528 12.7667 18.8546 13.3046C18.678 13.7899 18.447 13.9085 18.447 13.9085C18.447 13.9085 18.5615 13.889 18.7304 13.788C18.7595 13.8598 18.7538 13.9416 18.8023 13.9705C18.8508 13.9995 18.9169 14.0482 18.9266 14.0948C18.9789 14.0171 19.0605 13.9181 19.0858 13.8443C19.0664 13.9979 19.0528 14.6696 19.1242 15.0113C19.2738 14.9977 19.4272 14.988 19.532 14.7181C19.4602 14.9823 19.4602 15.1414 19.5087 15.3666C19.5883 15.3124 19.6601 15.2152 19.6601 15.2152L19.6607 15.2156Z" fill="#C0993A"/>
<path fill-rule="evenodd" clip-rule="evenodd" d="M14.6157 4.51268C14.6157 4.51268 14.4662 4.57476 14.2119 4.57476C13.9906 4.57476 14.0526 4.48938 13.707 4.48938C13.1751 4.48938 11.3167 4.79658 10.9904 4.79223C10.7787 4.78839 11.705 4.88349 11.705 4.88349L14.0721 4.91652L14.5477 4.87812L14.7245 4.51844L14.6157 4.51268Z" fill="#A88F33"/>
<path fill-rule="evenodd" clip-rule="evenodd" d="M8.47794 9.13982C8.47794 9.13982 8.17497 9.37086 8.04684 9.54763C7.91871 9.7244 7.85074 9.84075 7.70508 9.98449C7.73927 9.9858 7.77343 9.98121 7.80607 9.97093C7.80607 9.97093 7.80607 10.0093 7.78277 10.0194C7.80291 10.0172 7.82328 10.0195 7.84242 10.0261C7.86156 10.0328 7.87896 10.0436 7.89337 10.0578C7.85061 10.0811 7.73413 10.1977 7.8254 10.3356C7.89337 10.4404 8.03711 10.45 8.03711 10.45C8.03711 10.45 8.00409 10.5453 8.14194 10.5355C8.43903 10.522 8.77106 10.3918 8.92441 10.4248C9.07801 10.4632 9.1653 10.4773 9.27397 10.6657C9.38917 10.8521 9.48953 10.8813 9.48953 10.8813C9.48953 10.8813 9.55749 10.7083 9.54201 10.4502C9.59773 10.311 9.62862 10.1631 9.63327 10.0133L9.53228 9.26961L9.09157 8.7123L8.52069 9.02885L8.47794 9.13944V9.13982Z" fill="#E3C571"/>
<path fill-rule="evenodd" clip-rule="evenodd" d="M9.01855 9.02914C9.01855 9.02914 9.06131 9.13013 9.23999 9.13973C9.22054 9.18249 9.22054 9.18837 9.22643 9.22127C9.23027 9.25429 9.23603 9.30281 9.23603 9.30281C9.2557 9.29329 9.27348 9.28028 9.28851 9.26441C9.29823 9.30716 9.27878 9.375 9.28851 9.42364C9.29451 9.45322 9.30427 9.48191 9.31756 9.50902C9.3204 9.50237 9.32364 9.49592 9.32729 9.48969C9.33113 9.47996 9.36569 9.59452 9.46131 9.68169C9.46122 9.66828 9.46452 9.65507 9.47091 9.64329C9.47237 9.66763 9.48042 9.69113 9.4942 9.71125C9.48705 9.70784 9.48051 9.70326 9.47487 9.69769C9.47487 9.69769 9.48447 10.0049 9.53695 10.1637C9.54572 10.1535 9.55352 10.1424 9.56025 10.1307C9.56025 10.1211 9.55641 10.2162 9.54668 10.2843C9.53311 10.3523 9.54284 10.4474 9.54284 10.4474C9.57785 10.4198 9.61632 10.397 9.65727 10.3794C9.71551 10.356 9.81087 10.2842 9.86899 10.125C9.9027 10.0348 9.92869 9.9419 9.94668 9.84732C9.96546 9.88346 9.97842 9.92234 9.98508 9.96252C9.98905 10.011 10.0803 9.98582 10.0803 9.98582L10.0998 9.7741L10.215 9.29449L10.3198 8.9974L10.8246 8.21109L11.7368 7.50863L12.5329 7.69116L13.2047 6.77852L12.0474 6.08335L10.9523 6.19791L9.95833 7.57455L9.1623 8.82319L9.01855 9.02902V9.02914Z" fill="#D8B65B"/>
<path fill-rule="evenodd" clip-rule="evenodd" d="M14.7553 7.03692C14.7553 7.03692 14.6874 7.05049 14.4913 7.15213C14.2952 7.25376 14.1592 7.28602 14.0835 7.43552C14.0077 7.58503 14.0019 7.70355 14.0019 7.70355C14.0019 7.70355 14.1359 7.64531 14.2136 7.62586C14.2952 7.60653 14.3864 7.61229 14.3767 7.64531C14.3674 7.66796 14.3544 7.68893 14.3383 7.70739C14.3383 7.70739 14.4919 7.70355 14.4878 7.77933C14.4837 7.85511 14.4588 7.93856 14.4297 7.97543C14.4005 8.01383 14.2802 8.07066 14.2666 8.11533C14.2336 8.2066 14.2802 8.21044 14.2627 8.28417C14.2491 8.3561 14.1851 8.49588 13.9753 8.74049C13.7597 8.98523 13.6681 9.15803 13.6681 9.15803C13.6681 9.15803 13.5633 8.96193 13.5089 8.79297C13.4705 8.8123 13.2643 8.92686 13.2643 8.92686L12.7866 7.26285L12.7962 7.15213C12.7962 7.15213 12.8389 7.09977 12.8486 7.00262C12.7768 6.97932 12.7671 6.95987 12.6719 6.86873C12.5766 6.77759 12.4991 6.66675 12.34 6.59097C12.3167 6.54822 12.2875 6.4901 12.171 6.46668C12.0545 6.44326 11.9846 6.42406 11.9846 6.42406C11.9846 6.42406 12.0467 6.40063 12.0759 6.35212C12.004 6.36185 11.9458 6.38514 11.7885 6.3813C11.6293 6.37734 11.6118 6.37158 11.5245 6.38514C11.4372 6.39871 11.3325 6.43762 11.2934 6.30361C11.2507 6.27058 11.1594 6.29977 11.0817 6.4142C11.004 6.52863 10.9769 6.62003 10.8274 6.6647C10.8169 6.7306 10.7938 6.79387 10.7594 6.85107C10.7167 6.923 10.6487 6.99481 10.5574 7.10157C10.4137 7.27053 10.437 7.54816 10.2079 7.75987C9.97681 7.97146 10.2463 7.17337 10.2463 7.17337L10.6152 6.29017L11.6657 5.26296L13.2968 5.15237L13.456 5.99717L14.2522 6.27097L14.7551 7.03795L14.7553 7.03692Z" fill="#D3AE4D"/>
<path fill-rule="evenodd" clip-rule="evenodd" d="M15.0138 7.22326L14.3284 6.23498L13.8488 5.86596C13.8488 5.86596 13.507 5.23698 13.4837 5.21752C13.4643 5.20395 13.142 5.16901 12.9362 5.15544L12.9746 5.25054C13.0195 5.26514 13.0594 5.29206 13.0898 5.32824C13.181 5.43307 13.2393 5.63108 13.0315 5.84279C13.1131 5.87185 13.1467 5.88119 13.2179 5.87185C13.1461 5.95735 12.983 6.13988 12.9733 6.29911C12.9636 6.42915 13.0451 6.46794 13.0451 6.46794C13.0451 6.46794 12.9208 6.61168 12.915 6.85193C12.9737 6.78574 13.038 6.72468 13.107 6.66941C13.2508 6.55421 13.4488 6.42467 13.5828 6.34314C13.581 6.37735 13.5856 6.41161 13.5964 6.44413C13.5964 6.44413 13.8467 6.23831 14.0572 6.32957C14.1523 6.37232 14.1095 6.50634 14.1095 6.50634C14.1095 6.50634 14.2397 6.45783 14.3309 6.54909C14.4222 6.64035 14.5522 6.87523 14.6183 6.96662C14.6473 7.00937 14.7231 7.09091 14.8007 7.21698C14.9067 7.39371 14.9952 7.58037 15.0649 7.77429C15.0687 7.69659 15.0843 7.58792 15.2185 7.58792L15.0146 7.22287L15.0138 7.22326Z" fill="#CAA13E"/>
<path fill-rule="evenodd" clip-rule="evenodd" d="M4.73836 10.0311C4.73836 10.0311 4.68985 9.91069 4.73836 9.67581C4.78687 9.44093 4.86264 9.33021 4.88786 8.98461C4.91308 8.63901 5.13836 8.20791 5.13836 8.20791L5.76158 7.92451L6.20241 8.04483L6.33246 8.63517L5.77515 8.94237C5.77515 8.94237 5.7461 9.07242 5.58879 9.17725C5.43147 9.28208 5.214 9.36362 5.16165 9.4705C5.13035 9.53594 5.10752 9.60511 5.09368 9.67632C5.09368 9.67632 4.93445 9.6433 4.83935 9.74813C4.73836 9.85501 4.7422 9.95011 4.73836 10.0316V10.0311Z" fill="#F4EFC8"/>
<path fill-rule="evenodd" clip-rule="evenodd" d="M5.99612 9.87381C5.99612 9.87381 5.94364 9.90684 5.90485 9.98901C5.86645 9.92693 5.77468 9.55791 5.77084 9.22588C5.767 8.89385 5.74716 8.81155 5.82396 8.69712C5.90076 8.58269 6.20194 8.46211 6.15919 8.25603C6.11644 8.05994 5.93775 7.9784 5.71836 8.03472C5.56476 8.07312 5.45045 8.39978 5.29122 8.56285C5.17077 8.68713 5.02716 8.66768 4.98837 8.73564C4.93589 8.82691 4.98441 8.91817 4.96892 8.97641C4.96495 8.99587 4.91644 9.1007 4.82901 9.2269C4.65237 9.48124 4.35337 9.84053 4.31445 10.1628C4.32802 9.98031 4.31842 9.97647 4.36693 9.77448L4.33775 9.72597L4.52975 9.09686L4.65404 8.57846L4.9318 7.71037L5.42101 6.82308L5.89679 6.29099L6.39189 6.32402L6.45013 7.06769L6.73365 8.4639L7.32975 9.19785L6.37436 9.84079L5.99573 9.87381H5.99612Z" fill="#EBCC73"/>
<path fill-rule="evenodd" clip-rule="evenodd" d="M6.29363 10.1377C6.29363 10.1377 6.21209 10.1571 6.18291 10.1416C6.15372 10.1261 6.12479 10.1086 6.13439 10.0892C6.14399 10.0697 6.19647 10.0368 6.19647 10.0212C6.19755 10.0071 6.19309 9.9931 6.18403 9.98223C6.17497 9.97135 6.16203 9.96444 6.14796 9.96295C6.10329 9.95718 6.08972 9.98624 6.08972 9.98624C6.08972 9.98624 6.04697 9.95334 6.01215 9.94784C6.03275 9.94532 6.05348 9.94399 6.07423 9.94387C6.02057 9.91957 5.96365 9.90322 5.90527 9.89536C5.95379 9.8663 6.04902 9.7808 6.1111 9.7808C6.17318 9.7808 6.21209 9.7712 6.20236 9.73817C6.19263 9.70515 6.14412 9.65663 6.09177 9.63718C6.1111 9.61388 6.12479 9.57894 6.0782 9.48357C6.02956 9.38847 6.04902 9.32434 6.06463 9.30117C6.0782 9.27198 6.12671 9.21963 6.15001 9.18661C6.17331 9.15358 6.19276 9.10891 6.23155 9.08561C6.251 9.07204 6.31308 9.04721 6.37529 9.02353C6.44326 9.00023 6.49958 8.97105 6.53836 9.00023C6.58111 9.02929 6.56166 9.0682 6.56166 9.0682C6.56166 9.0682 6.69567 9.01956 6.81599 9.08177C6.93644 9.13988 7.22969 9.17688 7.22969 9.17688L7.33478 9.38859L6.63961 9.98471L6.35225 10.1285L6.29401 10.1381L6.29363 10.1377Z" fill="#E5C66B"/>
<path fill-rule="evenodd" clip-rule="evenodd" d="M7.25806 9.16311C7.25806 9.16311 7.04251 9.30685 6.994 9.35921C7.02305 9.36317 7.07156 9.38263 7.05211 9.41169C7.02881 9.44074 6.88904 9.54173 6.81134 9.63697C6.7298 9.73207 6.65211 9.85252 6.62497 9.91076C6.59592 9.96311 6.37448 10.1166 6.29883 10.1359C6.45806 10.1359 6.77844 9.93981 6.89876 9.93981C6.89492 9.99805 6.93179 10.0641 6.99976 10.0699C7.06772 10.0756 7.26382 10.1126 7.52788 9.94954C7.79195 9.79031 7.70465 9.67178 7.81524 9.59421C8.02696 9.45431 8.11233 9.33002 8.22881 9.25245C8.34529 9.17489 8.40558 9.15722 8.40558 9.15722C8.40558 9.15722 8.40942 9.09898 8.44398 9.10487C8.45344 9.10596 8.46242 9.1096 8.46996 9.11543C8.47749 9.12125 8.48329 9.12902 8.48673 9.13789C8.48673 9.13789 8.68872 8.99415 8.94753 8.95537C8.94149 8.95267 8.93666 8.94784 8.93396 8.9418C8.93396 8.9418 8.95329 8.93207 8.95726 8.92234C8.95726 8.92234 8.97083 8.90289 8.98056 8.91261C8.99028 8.92234 9.00385 8.99415 9.02331 9.02333C9.06606 9.00388 9.1476 8.82135 9.1476 8.82135L9.34382 8.2602V7.74756L9.19022 7.77674L8.03822 8.26596L7.33908 8.99031L7.25755 9.16311H7.25806Z" fill="#E6BD62"/>
<path fill-rule="evenodd" clip-rule="evenodd" d="M10.5754 6.64862C10.6377 6.6335 10.6974 6.60926 10.7527 6.57668C10.7294 6.63889 10.7294 6.70686 10.6284 6.85444C10.5274 7.00203 10.5235 7.0234 10.442 7.17675C10.3605 7.33598 10.3507 7.56511 10.2731 7.66597C10.3079 7.64905 10.3452 7.63794 10.3836 7.63307C10.3836 7.63307 10.3061 7.70104 10.2731 7.77285C10.24 7.84466 10.1818 7.99417 10.0382 8.08556C9.89455 8.17695 9.7119 8.23507 9.5158 8.45062C9.31958 8.66221 9.11772 8.93024 9.0166 9.02663C9.06908 8.93536 9.14089 8.75283 9.16035 8.63251C9.1798 8.51219 9.15638 8.36831 9.1894 8.20921C9.22243 8.0501 9.22243 7.93541 9.3814 7.65765C9.54038 7.37989 9.81251 6.41489 9.81251 6.41489L10.3989 6.22852L10.5756 6.64798L10.5754 6.64862Z" fill="#B6933F"/>
<path fill-rule="evenodd" clip-rule="evenodd" d="M10.1511 6.29321C10.1511 6.29321 9.97445 6.54754 9.92594 6.77282C9.87743 6.9981 9.92197 6.97865 9.89292 7.08937C9.87554 7.15687 9.87554 7.22768 9.89292 7.29519C9.95409 7.19664 10.0379 7.11406 10.1373 7.05429C10.3043 6.95343 10.4402 6.88149 10.5213 6.79612C10.6028 6.70485 10.6708 6.55535 10.8474 6.44079C10.7756 6.43106 10.6746 6.39804 10.6554 6.40239C10.7273 6.32085 10.9428 6.19657 11.1602 6.04706C11.3758 5.89346 11.3622 5.83151 11.7118 5.67817C11.5972 5.69762 11.5428 5.66844 11.4476 5.67817C11.486 5.59663 11.6204 5.55772 11.7548 5.42383C11.8892 5.28994 11.6694 5.0918 11.6694 5.0918L10.6454 5.71119L10.1503 6.29372L10.1511 6.29321Z" fill="#C49937"/>
<path fill-rule="evenodd" clip-rule="evenodd" d="M7.37305 5.83108L7.39634 5.64471L7.68959 5.17482L7.99641 4.34961V3.22141L7.97311 2.569L8.02162 2.14173L8.05849 2.00593L8.0974 1.95345L8.34777 2.08349L8.69349 2.55338L8.72652 3.46026L8.39052 4.8913L7.43129 5.93796L7.37305 5.83108Z" fill="#DFC068"/>
<path fill-rule="evenodd" clip-rule="evenodd" d="M8.13569 1.90091C8.13569 1.90091 7.98209 1.90488 7.94933 2.54372C7.91656 3.18257 7.90069 3.51844 7.87739 3.83499C7.85409 4.15153 7.79982 4.34366 7.77256 4.53016C7.7453 4.71665 7.72981 4.97086 7.64251 5.12625C7.60411 5.19806 7.52207 5.42334 7.32981 5.5923C7.11426 5.77867 6.79221 5.90884 6.74345 5.91857C6.65794 5.9379 6.22492 5.98065 6.04829 6.0778C5.98621 6.11083 5.87933 6.14961 5.76093 6.26033C5.52592 6.47192 5.21335 6.85054 4.98807 7.30686C4.64247 7.98846 4.29688 9.91268 4.29688 9.91268L4.37457 9.78264C4.37457 9.78264 4.3843 9.60984 4.5571 9.30686C4.72606 9.00401 4.67754 8.66417 4.91242 8.08356C5.00369 7.86225 5.11824 7.57489 5.25802 7.33016C5.47946 6.93208 5.74736 6.59032 6.01731 6.40395C6.45801 6.1011 6.94351 6.03505 6.94351 6.03505L7.46587 5.68945C7.46587 5.68945 7.55714 5.51281 7.67758 5.31083C7.84642 5.02744 8.06158 4.71089 8.10856 4.25073C8.18049 3.56913 8.00757 3.12254 8.01729 2.7187C8.02702 2.31486 8.03086 2.01777 8.11252 1.94584C8.19419 1.8739 8.13582 1.90116 8.13582 1.90116L8.13569 1.90091Z" fill="#A88F33"/>
<path fill-rule="evenodd" clip-rule="evenodd" d="M8.13697 4.94955C8.13697 4.94955 8.36738 4.38251 8.47285 3.8796C8.49231 3.77861 8.53109 3.67775 8.54082 3.59621C8.58934 3.12043 8.6029 2.92434 8.54082 2.66411C8.49231 2.47211 8.30594 2.29906 8.20878 2.16491C8.11368 2.02501 8.069 1.97291 8.08846 1.94347C8.10792 1.91403 8.18357 1.86591 8.2573 1.87167C8.33567 1.87395 8.41276 1.89214 8.48388 1.92515C8.555 1.95816 8.61867 2.00529 8.671 2.06367C8.82051 2.23647 8.93891 2.82296 8.93891 2.82296L9.06346 3.59685L9.38001 4.57157L8.13723 4.95032L8.13697 4.94955Z" fill="#C99E3D"/>
<path fill-rule="evenodd" clip-rule="evenodd" d="M10.3019 4.35921C10.3019 4.35921 10.2591 4.37854 10.1816 4.35921C10.1849 4.39091 10.1794 4.42291 10.1656 4.45168C10.1519 4.48045 10.1306 4.50488 10.1039 4.52228C10.0223 4.48926 9.25906 4.55531 9.25906 4.55531C9.25906 4.55531 8.90373 4.4931 8.79301 4.02321C8.71544 3.71051 8.85125 3.27953 8.80658 2.99601C8.73861 2.57848 8.6435 2.49681 8.63378 2.36689C8.62405 2.23697 8.61432 2.20382 8.61432 2.12228C8.57157 2.11256 8.54635 2.09899 8.50373 2.09899C8.494 2.06059 8.51333 2.02705 8.4707 1.95908C8.494 1.96881 8.65323 1.98827 8.8396 2.16491C8.9932 2.30865 8.9932 2.361 9.01637 2.39019C9.04542 2.41924 9.28043 2.62059 9.38142 2.82129C9.48242 3.022 9.67851 3.662 9.72318 3.76683C9.73675 3.80958 9.76594 3.85233 9.83838 3.94936C9.95102 4.08926 10.116 4.32056 10.3024 4.35896L10.3019 4.35921Z" fill="#B58634"/>
<path fill-rule="evenodd" clip-rule="evenodd" d="M9.04199 2.4C9.15962 2.59002 9.2653 2.78718 9.35841 2.99034C9.47297 3.24851 9.54094 3.46023 9.68468 3.63303C9.60698 3.40787 9.46913 2.96512 9.38759 2.80781C9.29633 2.64141 9.10996 2.46221 9.04199 2.40013V2.4Z" fill="#A88F33"/>
<path fill-rule="evenodd" clip-rule="evenodd" d="M7.72239 5.59231C7.72239 5.59231 7.5263 5.64083 7.16125 5.83308C7.04081 5.89516 6.92638 5.94751 6.81566 5.99615C6.52805 6.1262 6.21958 6.24639 5.97485 6.3127C5.9943 6.33599 6.0039 6.34559 6.0039 6.34559C6.0039 6.34559 6.0039 6.44083 6.05638 6.4951C6.02732 6.52428 5.63885 6.78835 5.75354 7.6718C5.83111 7.64275 5.92237 7.60383 5.93593 7.60383C5.95936 7.6078 5.96512 7.6718 5.99417 7.6718C6.02323 7.6718 6.11846 7.6334 6.21945 7.50284C6.21561 7.55532 6.15737 8.08345 6.46994 8.43878C6.52818 8.37081 6.67576 8.14553 6.67576 8.14553L6.6796 8.07372C6.6796 8.07372 6.69317 7.82323 6.77483 7.59411C6.85649 7.36499 7.01559 7.19603 7.01559 7.19603L7.84642 6.00959L7.72214 5.59219L7.72239 5.59231Z" fill="#E6C367"/>
<path fill-rule="evenodd" clip-rule="evenodd" d="M6.94525 7.33442C6.90721 7.3613 6.8653 7.38223 6.82096 7.3965C6.8074 7.34799 6.78794 7.18095 6.9025 7.01787C7.03652 6.82165 7.32964 6.56731 7.41117 6.36506C7.46365 6.23489 7.44036 5.90874 7.9064 5.4912C8.37245 5.07366 8.55485 4.93004 8.55485 4.93004L9.30826 4.55141L10.2345 4.91647L9.77431 6.72001L9.41706 7.56482L7.99626 7.29691L6.94512 7.33442H6.94525Z" fill="#DCBA5A"/>
<path fill-rule="evenodd" clip-rule="evenodd" d="M7.48828 6.84474L7.66505 6.62343V6.46611C7.66505 6.46611 7.86115 6.41363 8.07273 6.19808C8.28432 5.98252 8.57757 5.56895 8.83588 5.59417C9.09418 5.62335 9.1194 6.15532 9.12913 6.30496C9.13885 6.45459 9.17188 6.79418 9.22423 6.97684C9.28247 7.15937 8.59511 7.85058 8.59511 7.85058L8.12829 8.20591L7.48828 6.84474Z" fill="#E9CE77"/>
<path fill-rule="evenodd" clip-rule="evenodd" d="M8.03418 8.68733C8.03418 8.68733 8.17792 8.46205 8.07258 8.41354C8.13466 8.27376 8.24921 8.12618 8.24921 8.12618C8.24921 8.12618 8.33075 7.92432 8.59481 7.67575C8.85886 7.42717 9.02206 7.26205 9.06481 7.09514C9.09116 6.98636 9.1055 6.87502 9.10756 6.76311C9.13611 6.78643 9.16664 6.8072 9.19882 6.82519C9.24157 6.84464 9.44342 7.01156 9.41437 7.34756C9.38531 7.68356 9.26077 7.82333 9.26077 7.82333C9.26077 7.82333 9.14045 7.94365 9.05508 8.00586C8.96369 8.06794 8.9308 8.13975 8.77733 8.14564C8.7931 8.13309 8.81083 8.12323 8.82981 8.11645C8.82981 8.11645 8.67058 8.09712 8.58508 8.17469C8.49958 8.25226 8.31782 8.49124 8.22656 8.56317C8.1353 8.62141 8.03456 8.68746 8.03456 8.68746L8.03418 8.68733Z" fill="#CDAE50"/>
<path fill-rule="evenodd" clip-rule="evenodd" d="M14.4914 4.91064C14.2619 4.82703 14.0209 4.77987 13.7769 4.77087C13.3691 4.7573 12.773 4.78059 12.1885 4.78443C11.5594 4.78827 10.9885 4.56888 10.1964 4.5301C10.0663 4.4524 9.73556 4.11256 8.70312 4.83295C8.7652 4.82911 9.45269 4.67371 9.6914 4.97285C9.93217 5.26994 9.8642 5.77478 9.83131 5.8951C9.7691 6.16313 9.56712 6.55341 9.48571 6.8272C9.4043 7.101 9.4235 7.24487 9.36526 7.43687C9.30702 7.62887 9.1789 7.72423 9.25454 7.94555C9.35553 7.88347 9.40814 7.88347 9.57684 7.50484C9.74555 7.12621 9.71086 6.85626 9.99054 6.53587C10.2643 6.21357 10.7201 5.77273 10.8934 5.66201C11.0667 5.55129 12.4429 4.83679 13.8837 5.51839C14.2313 5.48153 14.4915 4.91052 14.4915 4.91052L14.4914 4.91064Z" fill="#D2A83E"/>
<path fill-rule="evenodd" clip-rule="evenodd" d="M9.28295 4.64635C9.28152 4.63176 9.2783 4.6174 9.27335 4.6036C9.25987 4.5752 9.24218 4.549 9.22087 4.5259C9.22087 4.5259 8.87911 4.46382 8.70631 4.48315C8.40334 4.51617 8.12955 4.89096 8.00142 5.08322C7.8733 5.27547 7.71407 5.57244 7.54127 5.72591C7.54316 5.71096 7.53971 5.69582 7.53154 5.68316C7.53154 5.68316 7.54127 5.69673 7.52194 5.71618C7.50261 5.73564 7.50248 5.74524 7.51221 5.75458L7.54139 5.78364C7.55099 5.78364 7.81902 5.66319 8.18408 5.32284C8.57243 4.9675 8.86951 4.78523 9.0249 4.72276C9.10777 4.68755 9.19439 4.66191 9.28308 4.64635H9.28295Z" fill="#C29637"/>
<path fill-rule="evenodd" clip-rule="evenodd" d="M15.9135 3.18648C15.9135 3.18648 15.8513 3.26405 15.7736 3.34955C15.6008 3.53208 15.3755 3.73778 15.1833 3.94949C15.0009 4.15147 14.7951 4.30879 14.5639 4.57285C14.3327 4.83692 14.0647 5.13004 13.9969 5.21554C13.9348 5.30105 13.8863 5.44083 13.8863 5.51263C13.8532 5.48934 13.8145 5.46412 13.8145 5.46412C13.8308 5.49461 13.8503 5.52327 13.8727 5.54963C13.9212 5.61759 13.9969 5.70323 14.0358 5.75545C14.0835 5.82193 14.1178 5.89712 14.1366 5.97676C14.1599 5.9806 14.3094 6.00979 14.4959 5.70297C14.6824 5.39615 14.9269 5.06028 14.9269 5.06028L15.3153 4.48351L15.56 3.99429L15.8672 3.4467L15.9139 3.18648H15.9135Z" fill="#AC8132"/>
<path fill-rule="evenodd" clip-rule="evenodd" d="M16.3112 2.79419C16.3112 2.79419 16.0762 2.98619 15.9849 3.1014C15.8937 3.2166 15.6777 3.51894 15.6777 3.51894L15.7554 3.50921L16.1497 3.15977L16.3033 2.88597L16.3111 2.7947L16.3112 2.79419Z" fill="#A88F33"/>
<path fill-rule="evenodd" clip-rule="evenodd" d="M16.2383 18.2253C16.2383 18.2253 16.2345 18.0661 16.3238 17.971C16.4151 17.8757 16.6461 17.7359 16.8714 17.2117C17.0967 16.6874 17.1218 16.569 17.1218 16.569C17.1218 16.569 16.7179 16.9146 16.469 16.9961C16.5272 16.8757 16.5602 16.7903 16.5894 16.7281C16.5564 16.699 16.4166 16.666 16.4031 16.6505C16.4806 16.5728 16.5234 16.3825 16.6807 16.2563C16.8827 16.1027 17.2516 15.8387 17.5383 15.6035C17.825 15.3682 18.3887 14.821 18.4607 14.6618C18.5034 14.7238 18.513 14.7626 18.513 14.7626C18.513 14.7626 18.2296 15.1317 18.082 15.3665C17.9519 15.5685 17.9616 15.6831 17.9616 15.6831L18.2296 15.5679C18.2296 15.5679 18.3072 15.8552 17.9558 16.2922C18.1094 16.234 18.1714 16.2689 18.2587 16.2203C18.1149 16.3117 17.9169 16.436 17.7306 16.7776C17.548 17.1194 17.2995 17.5174 16.8801 17.7659C16.4723 18.028 16.2373 18.2241 16.2373 18.2241L16.2383 18.2253Z" fill="#A67A2E"/>
<path fill-rule="evenodd" clip-rule="evenodd" d="M15.1862 5.11272C15.1862 5.11272 15.0269 5.44462 15.0036 5.70292C14.9998 5.76513 14.9842 5.81364 14.9842 5.88545C14.9803 6.11649 14.9978 6.37479 14.9458 6.49511C14.9263 6.4466 14.9166 6.41357 14.8971 6.39424C14.8681 6.47578 14.8156 6.73011 14.7729 6.82522C14.7535 6.76314 14.7108 6.54759 14.7148 6.29325C14.7187 6.03892 14.7244 5.99028 14.7244 5.93793C14.7148 6.0155 14.6623 6.12046 14.6428 6.18253C14.6138 6.13018 14.5807 6.06222 14.5418 6.0059C14.5185 6.0443 14.4895 6.101 14.4643 6.13018C14.4603 6.10689 14.4507 6.04468 14.4448 5.95739C14.441 5.85639 14.4351 5.72635 14.441 5.69908C14.4506 5.64673 14.5322 5.44091 14.705 5.2525C14.9108 5.02722 15.1225 4.59433 15.1846 4.46031C15.2467 4.3263 15.5108 3.76912 15.5108 3.76912H15.7127L15.4195 4.43702C15.4195 4.43702 15.2429 4.80207 15.1516 4.93621C15.0603 5.07035 14.8681 5.45473 14.7826 5.60424C14.8447 5.5227 14.8971 5.47995 14.9594 5.40225C15.0195 5.34786 15.1864 5.11298 15.1864 5.11298L15.1862 5.11272Z" fill="#8C6228"/>
<path fill-rule="evenodd" clip-rule="evenodd" d="M16.3146 2.76884C16.2816 2.87039 16.2294 2.96468 16.161 3.0466C16.0405 3.19035 15.7822 3.38248 15.6562 3.53582C15.541 3.68532 15.3106 4.09313 15.4153 4.57659C15.4537 4.47176 15.526 4.26401 15.7182 4.029C15.9105 3.794 16.1163 3.52417 16.2174 3.31451C16.3183 3.1028 16.3318 2.93588 16.3318 2.93588L16.3702 2.88737L16.3469 2.77665L16.3139 2.76884H16.3146Z" fill="#CBA94C"/>
<path fill-rule="evenodd" clip-rule="evenodd" d="M20.246 15.6486C20.246 15.6486 20.1683 15.437 20.145 15.2447C20.1217 15.0525 20.1834 15.0143 20.112 14.7943C20.0693 14.6603 19.9917 14.6791 19.9722 14.6603C19.9528 14.6415 19.9392 14.439 19.9431 14.3282C19.9469 14.2175 19.9392 14.0739 19.9198 14.0117C19.8907 13.9884 19.8712 13.9689 19.8285 13.8253C19.78 13.6816 19.7567 13.6098 19.7334 13.5671C19.7101 13.5245 19.642 13.4856 19.642 13.4429C19.642 13.3574 19.7197 13.3128 19.7197 13.2893C19.7158 13.2407 19.6576 13.2797 19.642 13.266C19.6227 13.2427 19.6906 13.1029 19.6654 13.0834C19.6557 13.0738 19.5877 13.1554 19.5702 13.1321C19.5507 13.1087 19.5274 12.8776 19.4925 12.7243C19.4596 12.5748 19.4245 12.4661 19.4207 12.4214C19.4168 12.3787 19.1526 11.6253 19.0886 11.4427C19.0371 11.2885 18.9937 11.1316 18.9586 10.9728C18.9391 10.8816 18.9256 10.6951 18.9158 10.7145C18.9061 10.734 18.912 10.8291 18.8964 10.8253C18.8828 10.8213 18.8343 10.4894 18.8188 10.4369C18.8053 10.3844 18.7236 10.2065 18.7036 10.0777C18.6842 9.94756 18.6415 9.60772 18.6124 9.37668C18.5832 9.14564 18.5696 9.05054 18.5696 8.99268C18.5744 8.85117 18.5666 8.70952 18.5463 8.56939C18.5079 8.32465 18.4311 8.02756 18.3638 7.85489C18.2337 7.52862 17.888 6.69368 17.8262 6.48593C17.8262 6.43345 17.8941 6.46264 17.8941 6.46264C17.8941 6.46264 18.063 6.88593 18.1873 7.21208C18.3077 7.53835 18.4223 7.82571 18.4515 7.85489C18.4748 7.88395 18.6573 8.20433 18.7388 8.72862C18.8204 9.25291 18.8494 9.73636 18.8981 10.0587C18.9213 10.2123 18.9408 10.3752 18.9893 10.5383C19.0417 10.7151 19.1232 10.8976 19.2301 11.1771C19.3214 11.4121 19.3893 11.6082 19.4262 11.7772C19.4689 11.9927 19.4689 12.1558 19.4942 12.2627C19.5176 12.354 19.5524 12.5364 19.6341 12.8003C19.7157 13.0642 19.8359 13.4042 19.9174 13.6158C20.0768 14.0391 20.1479 14.3925 20.1719 14.5809C20.1932 14.7751 20.2651 15.447 20.2456 15.6488L20.246 15.6486Z" fill="#A88F33"/>
<path fill-rule="evenodd" clip-rule="evenodd" d="M16.3238 2.74556L16.3141 2.76886C16.3141 2.76886 16.3432 2.77859 16.3374 2.8175C16.3378 2.87074 16.3346 2.92394 16.3277 2.97673C16.3181 3.0447 16.2986 3.09705 16.2948 3.13981C16.2948 3.23107 16.3084 3.3359 16.1796 3.59613C16.1412 3.66794 16.1175 3.73002 16.0981 3.77277C16.0495 3.8776 16.0398 3.89322 15.9971 3.94173C16.065 3.90333 16.3098 3.74973 16.4339 3.77277C16.3485 3.82128 16.2184 3.91652 16.1368 4.0408C16.1563 4.04464 16.2378 4.06026 16.3672 4.0408C16.5828 4.00778 16.8235 3.93008 17.0351 3.94557C17.2663 3.95914 17.175 3.66794 17.175 3.66794L16.9083 3.08157L16.4035 2.72636L16.3238 2.74569V2.74556Z" fill="#BE9C44"/>
<path fill-rule="evenodd" clip-rule="evenodd" d="M17.6407 7.13789C17.6407 7.13789 17.4155 6.91261 17.3242 6.13949C17.2329 5.36278 17.2524 4.21949 17.2524 4.21949L17.0699 3.7729C17.0699 3.7729 17.0315 3.47581 16.9358 3.36522C16.8402 3.25462 16.6524 3.06813 16.5669 2.97686C16.4814 2.8856 16.3844 2.76131 16.3262 2.74186C16.3552 2.69334 16.4854 2.41955 16.9843 2.41571C17.4833 2.41187 17.6371 2.6895 17.6892 2.7905C17.7413 2.89149 17.9766 3.3281 18.0639 4.1601C18.1454 4.99107 18.1494 5.05328 18.1358 5.34064C18.1261 5.49987 18.0736 5.86877 17.9822 6.26288C17.8988 6.59696 17.8075 6.96982 17.6405 7.13866L17.6407 7.13789Z" fill="#A17C34"/>
<path fill-rule="evenodd" clip-rule="evenodd" d="M16.9344 7.80008C17.0095 7.8055 17.0845 7.78857 17.15 7.75144C17.2218 7.7476 17.482 7.78062 17.682 7.52629C17.6956 7.5844 17.7306 7.74184 17.6392 7.88162C17.6879 7.83298 17.7597 7.81365 17.7694 7.80008C17.7733 7.87189 17.8412 8.0932 17.5539 8.63105C17.6314 8.54567 17.7227 8.54951 17.8042 8.53979C17.8082 8.64078 17.8625 8.98049 17.7189 9.16314C17.6237 9.28743 17.4683 9.24852 17.4683 9.24852C17.4706 9.22138 17.4706 9.19411 17.4683 9.16698C17.4645 9.1145 17.445 9.06215 17.4587 9.02721C17.3837 8.99291 17.3153 8.94554 17.2567 8.8873C17.0878 8.72807 16.8684 8.45633 16.8529 8.25435C16.8334 8.02907 17.0354 7.98056 17.0354 7.98056C17.0185 7.96542 17.0041 7.94771 16.9927 7.92808C16.9829 7.89518 16.9732 7.8427 16.9344 7.80008Z" fill="#8C6228"/>
<path fill-rule="evenodd" clip-rule="evenodd" d="M15.4371 5.35725C15.4371 5.35725 15.4274 5.34368 15.375 5.40576C15.3847 5.34368 15.3945 5.28531 15.3983 5.22899C15.4231 5.17685 15.4551 5.12849 15.4935 5.08538C15.4643 5.14349 15.4449 5.19597 15.4449 5.19597C15.4449 5.19597 15.5168 5.06195 15.6216 4.98042C15.6935 4.92218 15.7847 4.89504 15.8235 4.84064C15.8662 4.7824 15.8565 4.77267 15.8663 4.76294C15.8663 4.76294 15.9615 4.70086 16.1071 4.51821C16.1265 4.49491 16.1557 4.4697 16.1751 4.4464C16.208 4.43283 16.2857 4.39789 16.377 4.35117C16.4722 4.29882 16.5789 4.22701 16.645 4.19757C16.775 4.13933 16.913 4.14522 16.977 4.05382C17.0255 4.04026 17.0779 3.89459 17.0683 3.77043C17.1401 3.79949 17.509 4.02861 17.6353 4.5296C17.7266 4.88493 17.5634 5.43251 17.4954 5.6967C17.4274 5.9609 17.4178 6.15686 17.3226 6.27718C17.2022 6.43654 16.8139 6.66118 16.7187 6.77242C16.6372 6.86368 16.3926 7.09472 16.4022 7.26163C16.4119 7.38592 16.5652 7.45363 16.5984 7.47718C16.6315 7.50074 16.6313 7.52966 16.6935 7.51558C16.7557 7.5015 16.7789 7.47283 16.8042 7.47283C16.8333 7.47667 16.8333 7.48256 16.8468 7.48256C16.8567 7.48227 16.8665 7.48094 16.876 7.47859C16.876 7.47859 16.8663 7.65536 16.4527 7.70899C16.4235 7.71296 16.3945 7.72256 16.3575 7.72845C16.4061 7.70515 16.4352 7.70515 16.4877 7.63334C16.4294 7.62362 16.2624 7.61389 16.2196 7.60032C16.2332 7.57702 16.2779 7.51482 16.3148 7.48576C16.3478 7.4567 16.3109 7.44736 16.2819 7.46246C16.2318 7.4965 16.1838 7.53343 16.1381 7.57306C16.0896 7.61581 16.0469 7.67405 15.9692 7.72666C15.9459 7.64896 15.9497 7.50138 16.0411 7.39462C16.0177 7.39846 15.973 7.46643 15.9304 7.45286C15.9227 7.38204 15.9273 7.31041 15.9439 7.24115C15.9672 7.15373 16.0934 7.00038 16.0934 7.00038L16.7031 5.91098L16.8331 5.08576L15.4371 5.35699V5.35725Z" fill="#92723A"/>
<path fill-rule="evenodd" clip-rule="evenodd" d="M15.4034 5.40385C15.4034 5.40385 15.3703 5.42714 15.4364 5.47181C15.4267 5.48538 15.4034 5.53389 15.3742 5.56692C15.3413 5.60532 15.3062 5.62913 15.2926 5.66215C15.2636 5.73012 15.2403 5.77671 15.2403 5.80589C15.2403 5.83508 15.2306 6.02145 15.149 6.14177C15.1198 6.18452 15.0868 6.25633 15.0635 6.30484C15.015 6.39021 14.9722 6.45844 14.9625 6.49684C14.9432 6.56481 14.9296 6.75117 14.9296 6.75117C14.9296 6.75117 14.9724 6.69869 14.9879 6.67937C14.9644 6.72788 14.9392 6.78023 14.9023 6.81914C14.9256 6.79969 14.9936 6.75117 15.1082 6.65018C15.2674 6.51629 15.516 6.29101 15.819 6.11258C15.7276 6.14561 15.65 6.14561 15.588 6.15533C15.6365 6.10682 16.0734 5.59418 16.3025 5.54567C16.3164 5.52803 16.3233 5.50588 16.3219 5.48346L16.1257 5.46413L15.7276 5.54951L15.6695 5.24231L15.4034 5.40346V5.40385Z" fill="#B18E3E"/>
<path fill-rule="evenodd" clip-rule="evenodd" d="M16.0373 7.15145C16.0373 7.15145 15.9848 7.2038 15.9363 7.33397C15.899 7.29497 15.8669 7.2512 15.8411 7.2038C15.7693 7.08348 15.6587 6.93001 15.4004 7.01743C15.3965 6.93589 15.3907 6.89314 15.4004 6.8349C15.4431 6.8253 15.5732 6.72047 15.7032 6.567C15.7946 6.46217 15.88 6.34172 15.9382 6.18837C15.9766 6.15919 16.0431 6.11068 16.1302 6.05436C16.2545 5.96898 16.404 5.85237 16.4273 5.72233C16.3691 5.74562 16.2448 5.80386 16.0583 5.79426C16.1302 5.76124 16.2408 5.72629 16.2273 5.58255C16.2564 5.56309 16.2797 5.54953 16.2797 5.54953C16.2579 5.54223 16.2348 5.53893 16.2118 5.5398C16.2078 5.52623 16.202 5.5069 16.169 5.5165C16.136 5.5261 16.1306 5.52623 16.1263 5.5398C16.1127 5.54377 16.068 5.5398 16.035 5.56322C16.002 5.58665 15.9107 5.66409 15.8758 5.67765C15.8893 5.65436 15.9087 5.61954 15.9087 5.61954C15.9087 5.61954 15.8136 5.62914 15.7456 5.65794C15.6213 5.70069 15.4777 5.77839 15.332 5.85404C15.3456 5.83074 15.3515 5.81564 15.3611 5.81129C15.3707 5.80693 15.3941 5.80169 15.3941 5.79772C15.3941 5.79375 15.3845 5.75932 15.3903 5.74537C15.4338 5.65311 15.4852 5.56476 15.5439 5.4813C15.6118 5.38991 15.6254 5.25986 15.6254 5.25986L15.9225 5.11036L16.7574 4.91836L17.2993 4.95138L17.2313 5.32617L16.9113 5.9805L16.6375 6.5766L16.3248 6.94178L16.0374 7.15145H16.0373Z" fill="#543E26"/>
<path fill-rule="evenodd" clip-rule="evenodd" d="M17.3896 5.52951C17.3896 5.52951 17.0634 5.93335 16.9721 5.99555C17.0303 5.87127 17.3896 5.13143 17.5197 4.9256C17.4906 4.90231 17.4517 4.90231 17.543 4.5416C17.4654 4.724 17.4382 4.81923 17.3742 4.86775C17.3102 4.91626 17.3022 4.90077 17.259 4.90077C17.2671 4.88599 17.2705 4.86903 17.2686 4.85226C17.2686 4.85226 16.9948 4.81924 16.8077 4.81924C16.6207 4.81924 16.2505 4.92023 16.0446 5.00176C15.8815 5.06973 15.7902 5.06973 15.732 5.11235C15.6738 5.16087 15.6407 5.21335 15.6115 5.22691C15.5882 5.24048 15.4777 5.27543 15.4523 5.31229C15.429 5.35069 15.3902 5.39383 15.3902 5.40355C15.3902 5.41328 15.3805 5.42698 15.4097 5.41712C15.4193 5.41328 15.4912 5.37437 15.5728 5.32586C15.6834 5.26378 15.8174 5.19197 15.9145 5.14922C16.1922 5.0385 16.2796 5.05795 16.4038 5.03466C16.5338 5.01136 16.7203 4.95696 16.8445 4.95696C16.9688 4.95312 17.2038 4.95696 17.2582 4.96669C17.2349 4.98615 17.2154 5.00944 17.2252 5.09098C17.2252 5.11427 17.2057 5.13949 17.1868 5.19581C17.1286 5.35504 17.0179 5.61911 16.9564 5.75312C16.871 5.93552 16.7739 6.08899 16.7259 6.1841C16.6779 6.2792 16.5723 6.5297 16.4678 6.66371C16.3632 6.79773 16.3085 6.87927 16.2758 6.90845C16.243 6.93763 16.0077 7.11031 16.0253 7.17251C16.068 7.15895 16.338 7.05731 16.5339 6.83664C16.7299 6.61597 16.769 6.48131 16.9223 6.36087C17.0757 6.24042 17.1961 6.03856 17.2679 5.87165C17.3281 5.71626 17.3145 5.66775 17.3902 5.52989L17.3896 5.52951Z" fill="#806031"/>
<path fill-rule="evenodd" clip-rule="evenodd" d="M10.3589 8.54376C10.3589 8.54376 10.3161 8.7204 10.219 8.80783C10.1238 8.89333 9.95488 8.96706 9.93555 9.1108C9.91226 9.25442 10.1045 9.32635 10.1045 9.32635C10.1045 9.32635 9.99955 9.49915 9.99955 9.6292C9.99955 9.76322 9.99571 9.78843 10.0093 9.91656C9.99388 9.92647 9.98079 9.93956 9.97088 9.95496C9.97088 9.95496 9.98048 10.0792 10.0757 10.1568C10.171 10.2344 10.2524 10.2811 10.3009 10.2616C10.3083 10.2775 10.3148 10.2937 10.3203 10.3103C10.3203 10.3103 10.3923 10.1278 10.4408 9.96853C10.4893 9.80546 10.5321 9.82863 10.5514 9.60923C10.5707 9.38984 10.7818 9.01314 10.7818 9.01314L10.9258 8.69122L10.6909 8.50869L10.3589 8.54363V8.54376Z" fill="#B6903C"/>
<path fill-rule="evenodd" clip-rule="evenodd" d="M10.7962 8.86018C10.7477 8.90991 10.703 8.96313 10.6624 9.01942C10.6003 9.10492 10.5518 9.18249 10.4605 9.21564C10.3693 9.24879 10.311 9.24854 10.3168 9.33993C10.3226 9.43132 10.4081 9.46997 10.4566 9.51657C10.5091 9.56508 10.5518 9.64662 10.5285 9.73801C10.5576 9.72444 10.6101 9.70882 10.6586 9.60399C10.7071 9.49916 11.0464 8.86031 11.0464 8.86031H10.7962V8.86018Z" fill="#685026"/>
<path fill-rule="evenodd" clip-rule="evenodd" d="M12.1342 7.38638C12.1342 7.38638 12.1633 7.30882 12.1342 7.2525C12.1051 7.19426 11.9284 7.1748 11.841 7.10875C11.7497 7.04079 11.639 6.99355 11.5477 7.02338C11.5613 6.99035 11.6157 6.91842 11.571 6.90293C11.5283 6.88936 11.3692 6.96117 11.3264 6.99419C11.2837 7.02722 11.1865 7.066 11.1672 7.08943C11.1479 7.11285 11.1147 7.15739 11.0953 7.13794C11.0758 7.12437 11.0662 7.08943 11.0332 7.10875C11.0002 7.12808 10.8412 7.25826 10.8119 7.33403C10.7826 7.40981 10.7167 7.57877 10.5186 7.77089C10.3206 7.96302 10.2351 8.08743 10.2934 8.15924C10.3516 8.23105 10.3789 8.1787 10.3886 8.24078C10.3961 8.30172 10.3928 8.3635 10.3789 8.4233C10.3556 8.5243 10.3168 8.6194 10.3691 8.63885C10.5031 8.68161 10.6333 8.60045 10.6624 8.62529C10.7206 8.67764 10.6294 8.86605 10.7672 8.90292C10.9071 8.94132 11.045 8.86989 11.045 8.86989L11.5536 8.5961L12.043 8.33793L12.2933 7.8427L12.1591 7.42914L12.1335 7.38638H12.1342Z" fill="#D4B968"/>
<path fill-rule="evenodd" clip-rule="evenodd" d="M11.6539 8.56892C11.6539 8.56892 11.5684 8.43887 11.6734 8.32419C11.7783 8.2095 11.9277 8.16111 11.9859 8.08931C11.9749 8.07563 11.96 8.06553 11.9432 8.06025C11.9819 7.99107 12.0408 7.93544 12.1122 7.90089C12.0831 7.87184 12.0442 7.84854 12.0016 7.84854C11.9063 7.84854 11.848 7.90678 11.7607 7.90678C11.6753 7.90678 11.6656 7.86403 11.6656 7.86403C11.6656 7.86403 11.8093 7.85046 11.7956 7.78633C11.7821 7.71837 11.7572 7.71837 11.7572 7.71837C11.7572 7.71837 12.0348 7.60317 12.0834 7.54173C12.1319 7.48029 12.1261 7.40771 12.1358 7.37866C12.1687 7.37866 12.361 7.27766 12.4387 7.32042C12.5164 7.36317 12.462 7.47965 12.462 7.47965C12.462 7.47965 12.6971 7.30288 12.8169 7.12957C12.9217 7.1393 12.9705 7.05776 13.0473 7.05776C13.1425 7.05776 13.292 7.18781 13.3211 7.46544C13.3405 7.62467 13.3696 7.71593 13.3405 7.99753C13.327 8.15676 13.3308 8.49673 13.3789 8.66543C13.4118 8.79945 13.4895 8.78588 13.4895 8.78588C13.4776 8.82671 13.454 8.86316 13.4216 8.89071C13.3691 8.93922 13.3633 9.06748 13.3691 9.11599C13.3768 9.15146 13.3866 9.18646 13.3983 9.22082C13.3983 9.22082 13.3362 9.29263 13.3206 9.34127C13.307 9.38978 13.243 9.4228 13.1963 9.4228C13.1496 9.4228 13.173 9.41883 13.1109 9.4228C13.0488 9.42677 13.0294 9.43637 12.9905 9.4228C12.9516 9.40923 12.9225 9.39362 12.9381 9.2692C12.9517 9.14492 12.4585 8.85564 12.4585 8.85564L11.6521 8.56828L11.6539 8.56892Z" fill="#CCA849"/>
<path fill-rule="evenodd" clip-rule="evenodd" d="M10.7282 9.7961C10.7282 9.7961 10.9048 10.0311 11.6311 10.0311C11.9767 10.0311 12.0971 9.99808 12.1687 9.97863C12.2464 9.95917 12.5376 9.84474 12.8308 9.49901C13.0949 9.18644 13.0367 9.05831 13.0367 9.05831L12.8831 9.03501L12.3839 9.10298L10.9067 9.7321L10.7275 9.7961H10.7282Z" fill="#585136"/>
<path fill-rule="evenodd" clip-rule="evenodd" d="M11.2697 9.85431C11.2697 9.85431 10.6406 9.99421 10.6406 9.59614C10.6406 9.2078 11.029 8.80001 11.1261 8.7282C11.2271 8.65627 11.4679 8.57461 11.4679 8.57461H12.0485L12.1591 8.86785L12.1106 9.50078L11.2697 9.85418V9.85431Z" fill="#252211"/>
<path fill-rule="evenodd" clip-rule="evenodd" d="M11.8498 8.69325C11.8498 8.69325 11.7295 8.58253 11.4557 8.73165C11.1819 8.88077 10.9605 9.19246 10.9469 9.47547C10.9333 9.72584 11.1527 9.91234 11.4945 9.92207C11.7488 9.93167 11.9023 9.90261 11.98 9.88367C11.9605 9.86037 11.8595 9.73416 11.8595 9.73416L11.8499 8.69338L11.8498 8.69325Z" fill="#C3B378"/>
<path fill-rule="evenodd" clip-rule="evenodd" d="M11.7321 8.75519C11.7321 8.75519 11.7031 8.7319 11.6169 8.77849C11.5451 8.81688 11.4403 8.91838 11.3588 8.99019C11.3063 9.03294 11.2733 9.05227 11.2436 9.08529C11.1231 9.22903 11.0221 9.46403 11.0805 9.5805C11.1389 9.69698 11.331 9.83099 11.8203 9.73973L11.7307 8.75532L11.7321 8.75519Z" fill="#E6D89C"/>
<path fill-rule="evenodd" clip-rule="evenodd" d="M11.5726 8.99608C11.5726 8.99608 11.4949 9.11653 11.4949 9.30878C11.4949 9.50488 11.6056 9.81746 12.0134 9.84076C12.326 9.86022 12.5356 9.39032 12.7628 9.20779C12.9356 9.06801 13.0404 9.06404 13.0404 9.06404C13.0404 9.06404 12.8638 8.87204 12.392 8.62333C11.926 8.37283 11.4036 8.33981 11.1201 8.72433C11.2541 8.7146 11.6871 8.60388 11.6871 8.60388L11.8988 8.67185L11.5726 8.9962V8.99608Z" fill="#252211"/>
<path fill-rule="evenodd" clip-rule="evenodd" d="M12.1818 9.25044C12.1683 9.22138 12.1585 9.18247 12.2148 9.17287C12.2711 9.16327 12.2964 9.1689 12.3158 9.21127C12.3353 9.25364 12.3542 9.28896 12.3254 9.3065C12.2964 9.32199 12.2206 9.3065 12.1817 9.25018L12.1818 9.25044ZM12.0906 8.97665C12.0906 8.97665 12.0711 8.99022 12.0808 8.96308C12.0847 8.93019 12.11 8.87182 12.1721 8.88551C12.2342 8.89921 12.2207 8.96705 12.2105 8.9865C12.2002 9.00596 12.1484 9.03886 12.1095 9.0249C12.1046 9.02364 12.1 9.02124 12.0962 9.01788C12.0924 9.01452 12.0894 9.01031 12.0875 9.00558C12.0856 9.00086 12.0848 8.99575 12.0853 8.99068C12.0857 8.98561 12.0874 8.98071 12.0901 8.97639L12.0906 8.97665Z" fill="#6F674D"/>
<path fill-rule="evenodd" clip-rule="evenodd" d="M6.83594 9.10081C6.83594 9.10081 6.98954 9.21601 7.16797 9.21153C7.34461 9.20756 7.57181 9.02516 7.67664 8.90855C7.73872 8.84059 7.79184 8.76878 7.84944 8.71246C7.89808 8.66395 7.93098 8.64065 7.95427 8.60763C7.9873 8.56923 8.02224 8.49703 8.03978 8.47361C7.99703 8.50663 7.93494 8.565 7.87082 8.60379C7.80874 8.64219 7.67472 8.71438 7.62032 8.73383C7.56797 8.75329 7.02423 9.04104 7.02423 9.04104L6.83594 9.10081Z" fill="#AC924C"/>
<path fill-rule="evenodd" clip-rule="evenodd" d="M7.07031 7.66605C7.07031 7.66605 7.15569 7.60781 7.32081 7.57082C7.48004 7.53242 7.80042 7.50285 7.80042 7.50285L8.06449 7.61805L8.16932 8.01613L7.97732 8.42983L7.73271 8.58343L7.45495 8.13684L7.07095 7.66682L7.07031 7.66605Z" fill="#9F8E57"/>
<path fill-rule="evenodd" clip-rule="evenodd" d="M6.72421 8.02143L6.63281 8.08965C6.63281 8.08965 6.65624 8.0469 6.67556 7.91685C6.69489 7.7868 6.79601 7.47025 6.9436 7.28772C7.09118 7.10518 7.08734 7.11491 7.08734 7.11491C7.07376 7.11243 7.05981 7.11287 7.04641 7.1162C7.03301 7.11953 7.02048 7.12568 7.00965 7.13424C7.0291 7.09123 7.15339 6.93763 7.27768 6.86083C7.40197 6.78403 7.45048 6.75983 7.58053 6.82243C7.71058 6.88502 7.7436 6.91753 7.83884 6.91369C7.93407 6.90985 8.01548 6.80886 8.01548 6.80886C8.01548 6.80886 8.03493 6.87094 7.96312 7.01469C7.89132 7.15843 7.60779 7.45156 7.60779 7.45156L7.01745 7.85541L6.72421 8.02181V8.02143Z" fill="#EAC970"/>
<path fill-rule="evenodd" clip-rule="evenodd" d="M7.16067 7.61751C7.16067 7.61751 7.58793 7.67575 7.71798 7.55543C7.72182 7.569 7.73744 7.569 7.73744 7.57873C7.73639 7.58606 7.73297 7.59285 7.72771 7.59805C7.74185 7.5958 7.75614 7.59451 7.77046 7.59421C7.78756 7.5993 7.80515 7.60257 7.82294 7.60394C7.83727 7.60363 7.85155 7.60231 7.86569 7.59997C7.86434 7.60963 7.86106 7.61891 7.85605 7.62726C7.85103 7.63562 7.84439 7.64288 7.83651 7.64861C7.85596 7.64861 7.87491 7.65245 7.87491 7.66794C7.87491 7.68343 7.87875 7.73015 7.85545 7.73988C7.83615 7.74522 7.81561 7.74382 7.79721 7.73591C7.79875 7.77267 7.80874 7.80859 7.8264 7.84087C7.8648 7.91268 7.94672 7.99447 8.0568 7.97092C8.0568 7.97092 8.11491 8.11069 7.8703 8.42135C7.8374 8.4641 7.80233 8.52234 7.75971 8.57085C7.74287 8.60756 7.72999 8.64597 7.72131 8.68541C7.72131 8.68541 8.135 8.52618 8.2534 8.16305C8.37385 7.79799 8.39715 7.43882 8.37385 7.10295C8.36988 7.00772 8.3544 6.93988 8.3311 6.89124C8.27286 6.77079 8.10966 6.79025 8.04374 6.85821C7.94851 6.95345 7.78928 7.19025 7.56796 7.35332C7.34268 7.51639 7.33308 7.54532 7.16016 7.61751H7.16067Z" fill="#D7BC6B"/>
<path fill-rule="evenodd" clip-rule="evenodd" d="M6.64806 8.14182C6.64806 8.14182 6.56652 8.19033 6.52377 8.37222C6.48102 8.55859 6.56217 8.78579 6.60915 8.8576C6.65612 8.92941 6.76275 9.12563 6.98393 9.13536C7.03868 9.13507 7.09282 9.12384 7.14317 9.10233C7.22038 9.06693 7.29281 9.0219 7.35872 8.96832C7.45396 8.89651 7.53153 8.83443 7.5218 8.82854C7.4985 8.81881 6.93542 8.35277 6.93542 8.35277L6.72371 8.11648L6.64793 8.14208L6.64806 8.14182Z" fill="#585136"/>
<path fill-rule="evenodd" clip-rule="evenodd" d="M7.18138 8.91456C7.18138 8.91456 7.29594 8.90496 7.36391 8.86221C7.43188 8.81946 6.96582 8.35738 6.96582 8.35738L6.99885 8.85658L7.18138 8.91456Z" fill="#453A25"/>
<path fill-rule="evenodd" clip-rule="evenodd" d="M6.68614 8.10671C6.68614 8.10671 6.6279 8.21743 6.6279 8.24662C6.61817 8.34172 6.64736 8.64073 6.67065 8.73583C6.69395 8.83682 6.82015 8.99017 6.98335 8.99017C7.08421 8.99017 7.22412 8.92809 7.22412 8.9126C7.22412 8.89314 7.08037 8.8742 7.04159 8.80188C7.0183 8.76348 7.00857 8.66799 7.00319 8.57148C6.99935 8.5094 6.99935 8.44143 7.02265 8.41788C7.07513 8.35964 7.08473 8.1926 7.08473 8.1926L7.27109 7.84636H7.02597L6.73273 8.02889L6.68614 8.10671Z" fill="#84754B"/>
<path fill-rule="evenodd" clip-rule="evenodd" d="M6.61426 8.21366C6.61426 8.21366 6.80625 7.95932 6.97931 7.90095C7.15236 7.84259 7.2298 7.87766 7.2298 7.87766L7.12881 8.13596L6.98506 8.29519L6.99479 8.37673C6.99479 8.37673 6.97137 8.59228 7.11511 8.74178C7.25885 8.89128 7.3656 8.88552 7.42781 8.88552C7.49001 8.88552 7.66857 8.83304 7.75983 8.61749C7.84136 8.41564 7.90933 8.1567 7.74626 7.89712C7.58691 7.63881 7.30544 7.62883 7.25104 7.62883C7.19664 7.62883 6.76952 7.65021 6.61426 8.21327V8.21366Z" fill="#252211"/>
<path fill-rule="evenodd" clip-rule="evenodd" d="M11.5433 9.0776C11.4714 9.04457 11.5394 8.84272 11.6112 8.78051C11.683 8.71831 11.7743 8.64663 11.9337 8.63677C11.9918 8.63293 12.0481 8.6698 12.0385 8.70871C12.0249 8.78051 11.9239 8.8815 11.8327 8.95331C11.7065 9.05238 11.6248 9.11446 11.5433 9.0776Z" fill="#F7F7E7"/>
<path fill-rule="evenodd" clip-rule="evenodd" d="M7.66043 7.97668C7.71291 7.97284 7.78088 8.01508 7.79445 8.07192C7.80802 8.134 7.76143 8.25829 7.66043 8.25829C7.57889 8.25829 7.53613 8.1573 7.53613 8.12824C7.53705 8.10435 7.54373 8.08103 7.55559 8.06027C7.55943 8.05438 7.56916 7.98641 7.66043 7.97668Z" fill="#F8F6DE"/>
<path fill-rule="evenodd" clip-rule="evenodd" d="M6.90329 8.02141C6.90329 8.02141 6.76927 8.08349 6.70719 8.2134C6.66283 8.30933 6.64941 8.41669 6.66879 8.52059C6.67852 8.5691 6.72703 8.68941 6.76006 8.73216C6.79308 8.77491 6.83775 8.80409 6.87078 8.80013C6.9038 8.79616 6.97164 8.70887 6.97164 8.65652C6.97164 8.60417 6.97561 8.38274 7.03961 8.26229C7.09593 8.14198 6.90367 8.02154 6.90367 8.02154L6.90329 8.02141Z" fill="#D4C38B"/>
<path fill-rule="evenodd" clip-rule="evenodd" d="M6.92214 8.01163C6.89885 8.0252 6.86006 8.04466 6.86966 8.06987C6.87939 8.09317 6.96093 8.10827 6.99011 8.1651C7.02314 8.22333 7.02314 8.28541 7.01341 8.31459C7.03877 8.30254 7.06179 8.28607 7.08138 8.26596C7.12413 8.21745 7.17648 8.15153 7.22115 8.15153C7.25034 8.15153 7.27939 8.1651 7.30666 8.1651C7.34941 8.1651 7.39203 8.15153 7.39792 8.10686C7.40752 8.04862 7.31639 7.99615 7.26391 8.00588C7.27363 7.96748 7.2872 7.91078 7.24445 7.87187C7.2017 7.83296 7.06781 7.90105 7.03862 7.9205C7.00944 7.93996 6.92214 8.01176 6.92214 8.01176V8.01163Z" fill="#E2D59D"/>
<path fill-rule="evenodd" clip-rule="evenodd" d="M10.0072 12.0912L10.2946 12.0064L10.3761 12.0646C10.3761 12.0646 10.4342 12.1889 10.5256 12.2044C10.4964 12.2665 10.4206 12.3196 10.4246 12.3636C10.4286 12.4077 10.4674 12.4413 10.4674 12.4413C10.4674 12.4413 10.209 12.8685 10.7178 13.2989C10.5974 13.3474 10.4441 13.4141 10.3625 13.4525C10.4206 13.4661 10.5449 13.4909 10.5974 13.538C10.6499 13.5851 10.6499 13.6001 10.6984 13.6293C10.7469 13.6585 10.776 13.6973 10.7664 13.7147C10.7333 13.6952 10.6226 13.6371 10.6033 13.6914C10.584 13.7456 10.1237 13.7244 10.1237 13.7244L9.34697 13.8739C9.34697 13.8739 9.37602 13.7962 9.29449 13.7244C9.19938 13.639 9.0829 13.7282 8.95862 13.6331C8.79554 13.5088 8.78966 13.3651 8.7373 13.3108C8.78966 13.2778 8.89654 13.2293 9.15087 13.1956C9.14114 13.1762 9.10812 13.1179 9.12758 13.0656C9.15087 12.9976 9.2479 12.9549 9.21884 12.8736C9.26159 12.8638 9.28092 12.8638 9.3878 12.7298C9.48879 12.5958 9.55087 12.5668 9.62857 12.557C9.70626 12.5473 9.75286 12.557 9.8966 12.423C9.99746 12.3279 9.96457 12.2464 9.96457 12.2464C9.96457 12.2464 10.0305 12.225 10.0073 12.091L10.0072 12.0912Z" fill="#CBAC5A"/>
<path fill-rule="evenodd" clip-rule="evenodd" d="M9.15963 12.1344C9.16347 12.115 9.17909 12.1053 9.28392 12.115C9.38875 12.1247 10.0528 12.0529 10.2334 12.0432C10.416 12.0296 11.0587 12.0392 11.3714 12.1053C11.6841 12.1713 12.0005 12.249 12.1538 12.2878C12.3074 12.3305 12.3558 12.3459 12.3499 12.3653C12.3461 12.3848 12.3115 12.4037 12.2917 12.3983C12.2724 12.3945 11.7636 12.2391 11.6064 12.2064C11.4492 12.1736 10.9053 12.0859 10.608 12.0912C10.3303 12.0951 10.2196 12.0873 9.98473 12.1145C9.74972 12.1436 9.36136 12.1824 9.24488 12.1669C9.12968 12.1534 9.15348 12.1534 9.15937 12.1339L9.15963 12.1344Z" fill="#D6BC6F"/>
<path fill-rule="evenodd" clip-rule="evenodd" d="M10.7225 13.6563C10.7225 13.6563 11.1206 13.8719 11.2644 14.1359C11.3692 14.332 11.2023 14.4292 11.2023 14.4292C11.2023 14.4292 11.4276 14.4292 11.3984 14.5534C11.3848 14.631 11.01 14.8407 10.7595 14.9514C10.5052 15.0621 10.5149 15.0564 10.3906 15.0757C10.2702 15.0951 9.94008 15.0373 9.87211 15.1339C9.80415 15.2306 9.83371 15.3301 9.85266 15.3456C9.87211 15.3592 10.0294 15.3787 10.0294 15.3787C10.0294 15.3787 9.9964 15.4699 9.67026 15.4796C9.34412 15.4894 9.26245 15.5125 9.243 15.5476C9.22354 15.5805 9.30508 15.5612 9.45471 15.586C9.60421 15.6093 9.81387 15.6244 9.81387 15.6244C9.81387 15.6244 9.74591 15.6826 9.56927 15.7292C9.36729 15.7816 9.05074 15.8302 8.95564 15.8885C9.00415 15.9215 9.07609 15.97 9.10924 15.9738C9.0277 15.9933 8.91301 16.036 8.89369 16.0515C8.92274 16.071 8.96165 16.0943 8.96165 16.0943C8.96165 16.0943 8.79846 16.2904 8.70335 16.339C8.60825 16.3877 8.06067 16.6419 7.87225 16.5934C7.40237 16.4691 7.34413 15.9545 7.22957 15.9157C7.05677 15.8575 6.97523 15.9738 6.82176 15.8923C6.88973 15.8438 6.92672 15.8147 6.99853 15.7817C6.92083 15.7433 6.51892 15.4885 6.51892 15.4885C6.47689 15.3969 6.43023 15.3075 6.37914 15.2206C6.30145 15.0866 6.18714 14.9079 6.10138 14.7506C5.91502 14.405 5.90529 14.2457 5.73633 14.0496C5.76551 14.0112 5.86638 14.0166 5.86638 14.0166L7.28205 14.4827L9.79224 14.5554L10.445 13.6234L10.7227 13.6564L10.7225 13.6563Z" fill="#DFC677"/>
<path fill-rule="evenodd" clip-rule="evenodd" d="M7.00391 15.0776C7.01905 15.0945 7.03671 15.1089 7.05626 15.1204C7.1049 15.1534 7.17671 15.1923 7.22522 15.2504C7.24467 15.2213 7.29319 15.1689 7.37882 15.2504C7.46445 15.3319 7.57082 15.2738 7.63699 15.2932C7.70496 15.3166 7.7088 15.3262 7.7088 15.3262C7.7088 15.3262 7.7472 15.2932 7.83309 15.2582C7.88557 15.2388 7.94765 15.2252 8.01562 15.2059C8.0777 15.1923 8.14567 15.1728 8.19239 15.1728C8.23514 15.2019 8.38848 15.3648 9.00403 15.1243C9.58464 14.899 9.71853 14.8738 9.81568 14.9086C9.82541 14.8853 9.83514 14.8407 9.98464 14.8466C9.98464 14.7845 9.86036 14.5728 9.86036 14.5728L9.17491 14.3379H8.8L7.67578 14.5437L7.0528 14.8992L7.00429 15.0784L7.00391 15.0776Z" fill="#C4A859"/>
<path fill-rule="evenodd" clip-rule="evenodd" d="M6.62891 14.6835C6.62891 14.6835 6.64247 14.7883 6.79787 14.899C6.95147 15.0096 6.99972 15.0757 6.99972 15.0757C6.99972 15.0757 7.02891 15.0373 7.0522 14.9981C7.0755 14.9554 7.09495 14.9069 7.13374 14.8933C7.21143 14.8603 7.38807 14.9223 7.42699 14.9126C7.46001 14.903 7.45028 14.835 7.48523 14.835C7.56676 14.8311 7.61911 14.8874 7.6483 14.8874C7.67748 14.8874 7.74916 14.8836 7.75889 14.8681C7.76862 14.8526 7.77246 14.6913 7.88318 14.6136C8.00363 14.5282 8.15121 14.5651 8.19038 14.5845C8.19038 14.6136 8.19422 14.6855 8.27191 14.6894C8.34961 14.6932 8.35729 14.6797 8.42551 14.7029C8.49374 14.7262 8.57502 14.6991 8.61188 14.8135C8.64491 14.8039 8.7226 14.7942 8.70315 14.6835C8.74155 14.6544 8.77508 14.635 8.85675 14.5204C8.8762 14.4914 8.9091 14.4583 8.93444 14.4156C9.00241 14.4156 9.08395 14.402 9.19262 14.4971C9.15959 14.5204 9.14014 14.5355 9.13054 14.5592C9.15896 14.5873 9.18491 14.6179 9.20811 14.6505C9.23729 14.6889 9.25675 14.736 9.29361 14.7457C9.37515 14.769 9.50916 14.736 9.65866 14.7457C9.80241 14.7554 9.92273 14.8078 9.97521 14.8408C9.99467 14.8312 9.99467 14.8272 10.0432 14.837C10.0917 14.8467 10.1286 14.8505 10.0762 14.7885C10.1053 14.802 10.1383 14.8312 10.1675 14.802C10.1966 14.7728 10.2198 14.7302 10.3014 14.7205C10.3829 14.7108 10.4121 14.7243 10.4451 14.6389C10.4878 14.5341 10.3403 14.5341 10.3403 14.5341C10.3403 14.5341 10.4082 14.4719 10.484 14.3904C10.5753 14.305 10.6801 14.1943 10.7053 14.0583C10.7481 13.8078 10.5035 13.7749 10.5035 13.7749L9.31703 14.14L7.86654 14.0681L6.62967 14.6836L6.62891 14.6835Z" fill="#927D49"/>
<path fill-rule="evenodd" clip-rule="evenodd" d="M5.56326 11.2563C5.56326 11.2563 5.52486 11.3048 5.50118 11.4194C5.4775 11.534 5.48761 11.5204 5.46815 11.6019C5.4487 11.6835 5.20972 12.4951 5.29932 12.7689C5.38892 13.0427 5.54406 13.1437 5.64108 13.3651C5.66054 13.4136 5.67948 13.4428 5.68959 13.4855C5.72262 13.6291 5.69356 13.7398 5.73234 13.8836C5.74591 13.9321 5.78098 13.9884 5.83334 14.0467C5.94853 14.167 6.13631 14.2816 6.21733 14.3631C6.33176 14.4835 6.49496 14.7283 6.70271 14.7515C6.81343 14.765 6.97074 14.7184 7.10078 14.6409C7.21598 14.5689 7.28715 14.4681 7.40798 14.4105C7.49336 14.3677 7.58462 14.3522 7.66616 14.3328C7.83512 14.2997 7.98859 14.2944 8.07985 14.3133C8.21963 14.3425 8.54974 14.4435 8.73265 14.4435C8.87558 14.4412 9.0177 14.4216 9.15594 14.3852C9.43357 14.3037 9.76944 14.1638 9.99088 14.1017C10.1209 14.0633 10.2258 14.0532 10.3326 14.0299C10.5152 13.9871 10.6685 13.9289 10.7559 13.8182C10.6977 13.7502 10.6259 13.6454 10.2374 13.6492C9.79671 13.659 9.28791 13.9036 9.03741 13.9425C8.78692 13.9814 8.67825 14.0143 8.39857 13.9133C8.12439 13.8113 8.11531 13.7438 8.11531 13.7438C8.11531 13.7438 7.82744 13.5425 7.70699 13.0292C7.58654 12.5159 7.70699 12.1419 8.01969 11.7864C8.10123 11.6951 8.08177 11.6136 8.08177 11.6136C8.08177 11.6136 8.28759 11.336 8.23127 11.076C8.16919 10.8177 7.77112 10.8701 7.77112 10.8701L5.56338 11.2563H5.56326Z" fill="#6E6342"/>
<path fill-rule="evenodd" clip-rule="evenodd" d="M5.89466 12.1204C5.87754 12.1526 5.86949 12.1888 5.87136 12.2252C5.8752 12.2776 5.89082 12.3456 6.048 12.499C6.18201 12.6329 6.15283 12.7824 6.15283 12.7824C6.15283 12.7824 6.22029 12.796 6.40333 12.7103C6.54707 12.6424 6.59532 12.7628 6.59532 12.7628C6.63717 12.7409 6.68252 12.7264 6.72934 12.7201C6.77176 12.7162 6.81282 12.7031 6.84966 12.6817C6.84966 12.6817 7.01862 12.8545 7.1662 12.936C7.30022 13.0079 7.37791 13.0564 7.44396 13.0079C7.50604 12.9652 7.50604 12.8778 7.50207 12.839C7.48667 12.8032 7.46717 12.7693 7.44396 12.738C7.40121 12.6759 7.33324 12.604 7.32876 12.546C7.31903 12.4121 7.42975 12.2528 7.40633 12.214C7.3829 12.1752 7.29574 12.1655 7.08019 12.2432C6.85696 12.3169 5.89376 12.1208 5.89376 12.1208L5.89466 12.1204Z" fill="#39331F"/>
<path fill-rule="evenodd" clip-rule="evenodd" d="M6.40327 12.9885C6.40327 12.9885 6.29272 12.8836 6.33149 12.3748C6.37842 12.3742 6.42529 12.3787 6.47121 12.3884C6.47121 12.3884 6.53148 12.7826 6.40327 12.9885Z" fill="#292311"/>
<path fill-rule="evenodd" clip-rule="evenodd" d="M5.61577 10.8679C5.6312 10.8565 5.64552 10.8437 5.65852 10.8295C5.62012 10.9013 5.44284 11.1887 5.58659 11.6412C5.73033 12.0916 6.09142 12.4275 6.53609 12.4431C6.98076 12.4587 7.21449 12.2411 7.48175 11.915C7.58659 11.7849 7.70703 11.6217 7.81379 11.5111C7.97302 11.3382 8.09731 11.2897 8.09731 11.1228C8.09731 10.781 7.74774 10.6276 7.23318 10.4742C6.71862 10.3209 6.25449 10.3398 6.01372 10.4448C5.77884 10.5592 5.67785 10.6797 5.61564 10.8681L5.61577 10.8679Z" fill="#252211"/>
<path fill-rule="evenodd" clip-rule="evenodd" d="M7.26796 13.1418L7.30636 13.1223C7.30636 13.1223 7.31596 12.9687 7.37816 12.9728C7.44023 12.9825 7.46941 13.0642 7.46352 13.0933C7.45968 13.1223 7.4442 13.171 7.382 13.1651C7.30047 13.167 7.26758 13.1418 7.26758 13.1418H7.26796Z" fill="#3F3824"/>
<path fill-rule="evenodd" clip-rule="evenodd" d="M7.09473 12.4893C7.09473 12.4893 7.13313 12.4758 7.1801 12.5224C7.2185 12.5224 7.38593 12.5029 7.43841 12.5359C7.49089 12.5689 7.50637 12.598 7.50637 12.598C7.50637 12.598 7.31028 12.6407 7.2034 12.598C7.09473 12.5611 7.09473 12.4893 7.09473 12.4893Z" fill="#2D2815"/>
<path fill-rule="evenodd" clip-rule="evenodd" d="M7.95972 12.5184C7.95972 12.5087 7.8549 12.4369 7.7442 12.4134C7.72474 12.4096 7.72078 12.4232 7.7058 12.4232C7.69607 12.4193 7.69224 12.3902 7.69224 12.3902L7.62927 12.4233C7.62927 12.4233 7.61954 12.4369 7.65256 12.4617C7.68161 12.485 7.73025 12.5044 7.74381 12.5432C7.75738 12.582 7.75738 12.5955 7.76327 12.6014C7.76711 12.6053 7.83507 12.6014 7.86809 12.582C7.90111 12.5625 7.96331 12.5308 7.95934 12.518L7.95972 12.5184Z" fill="#82764F"/>
<path fill-rule="evenodd" clip-rule="evenodd" d="M6.97852 12.9126C6.97852 12.9126 6.99784 12.7787 7.12802 12.7729C7.26191 12.7631 7.28725 12.8932 7.28725 12.8932L7.20955 12.9709C7.20955 12.969 7.15132 12.8874 6.97916 12.9126H6.97852Z" fill="#2D2816"/>
<path fill-rule="evenodd" clip-rule="evenodd" d="M7.82373 12.3359C7.82373 12.3359 7.7518 12.4136 7.5927 12.4369C7.57913 12.4174 7.54995 12.3786 7.5927 12.3165C7.63545 12.2544 7.68396 12.2349 7.73247 12.2543C7.75388 12.2578 7.77384 12.2673 7.79001 12.2817C7.80618 12.2962 7.81788 12.315 7.82373 12.3359Z" fill="#574F35"/>
<path fill-rule="evenodd" clip-rule="evenodd" d="M8.11688 12.4311C8.12085 12.4116 8.10728 12.4078 8.11688 12.3981C8.12648 12.3883 8.17909 12.369 8.18882 12.3786C8.19266 12.3826 8.18882 12.3981 8.18882 12.417C8.18882 12.4359 8.18882 12.4554 8.17909 12.4693C8.16552 12.4888 8.12674 12.4985 8.10728 12.4928C8.08782 12.487 8.08398 12.4598 8.08398 12.4544C8.09358 12.4505 8.11688 12.4408 8.11688 12.4311ZM8.4484 12.2214C8.4484 12.2117 8.48142 12.1923 8.50088 12.1923C8.52994 12.1923 8.52994 12.2156 8.5339 12.2214C8.5435 12.2253 8.5435 12.2175 8.55323 12.235C8.56296 12.2525 8.57666 12.2835 8.5668 12.303C8.55694 12.3224 8.51829 12.3359 8.50869 12.332C8.49512 12.3223 8.45237 12.235 8.4484 12.2214Z" fill="#82764F"/>
<path fill-rule="evenodd" clip-rule="evenodd" d="M7.78027 12.4758C7.78027 12.4758 7.82303 12.4854 7.88127 12.534C7.86181 12.5476 7.83263 12.5631 7.83263 12.5631C7.83263 12.5631 7.82879 12.5184 7.78027 12.4756V12.4758Z" fill="#6E6342"/>
<path fill-rule="evenodd" clip-rule="evenodd" d="M7.68513 12.0486C7.6754 12.039 7.71419 12.0157 7.73748 12.0195C7.76078 12.0233 7.77051 12.039 7.79572 12.0428C7.82094 12.0466 7.82491 12.0331 7.83413 12.0233C7.84334 12.0136 7.87688 12.0195 7.88264 12.0233C7.88623 12.0276 7.88948 12.0321 7.89237 12.0369C7.89277 12.0295 7.8947 12.0223 7.89803 12.0157C7.90135 12.0091 7.90601 12.0032 7.9117 11.9985C7.91915 11.993 7.92774 11.9893 7.93682 11.9876C7.94591 11.9859 7.95526 11.9863 7.96418 11.9888C7.96802 12.0023 7.98748 12.0509 7.98363 12.0606C7.97979 12.0703 7.92155 12.084 7.9117 12.0742C7.92142 12.0976 7.96418 12.1461 7.96994 12.1557C7.9757 12.1653 7.92719 12.1887 7.90786 12.1849C7.88072 12.183 7.71367 12.0858 7.68462 12.0489L7.68513 12.0486ZM7.93947 11.7262C7.93588 11.7164 7.929 11.7082 7.92002 11.7029C7.90645 11.6991 7.86177 11.7029 7.86177 11.7262C7.86177 11.7495 7.90018 11.8798 7.94331 11.9477C7.99195 12.0157 8.02485 12.0719 8.05788 12.0875C8.06825 12.0922 8.08002 12.0928 8.09083 12.0892C8.10163 12.0856 8.11067 12.078 8.11612 12.068C8.11996 12.0583 8.12969 11.9865 8.12585 11.8175C8.12201 11.6485 8.11612 11.4854 8.10639 11.4757C8.09666 11.466 8.05788 11.4661 8.04431 11.4854C8.03074 11.5048 7.94331 11.6972 7.93935 11.7262H7.93947Z" fill="#585136"/>
<path fill-rule="evenodd" clip-rule="evenodd" d="M7.76753 12.7204C7.76753 12.7204 7.69955 12.6777 7.63349 12.7069C7.5714 12.736 7.57524 12.8506 7.57524 12.8506C7.58921 12.856 7.6043 12.858 7.61921 12.8563C7.63411 12.8546 7.64838 12.8493 7.66076 12.8408C7.70352 12.8118 7.7578 12.7633 7.76753 12.7206V12.7204Z" fill="#574F35"/>
<path fill-rule="evenodd" clip-rule="evenodd" d="M7.89485 12.8738C7.89101 12.8354 7.85645 12.8354 7.85645 12.8155C7.85882 12.8061 7.86432 12.7977 7.87205 12.7917C7.87978 12.7857 7.88929 12.7825 7.89907 12.7825C7.91853 12.7825 7.93747 12.8058 7.96128 12.8209C7.98457 12.8345 8.01952 12.8593 8.02336 12.8889C8.0272 12.9185 7.98496 12.9995 7.93798 12.9995C7.89101 12.9995 7.90496 12.9121 7.89523 12.8733L7.89485 12.8738ZM8.26963 12.8213C8.26963 12.8213 8.19193 12.8446 8.19769 12.8213C8.20345 12.798 8.22112 12.7923 8.24633 12.7923C8.25915 12.7788 8.27638 12.7705 8.29485 12.7688C8.30541 12.7683 8.31578 12.7718 8.3239 12.7786C8.3239 12.7786 8.37638 12.7553 8.39187 12.7688C8.40736 12.7824 8.39584 12.7824 8.40544 12.798C8.41766 12.8153 8.42568 12.8353 8.42886 12.8563C8.42886 12.8717 8.37062 12.9048 8.3239 12.899C8.26963 12.8874 8.27923 12.831 8.26963 12.8213ZM8.72198 12.7339C8.72198 12.7339 8.74528 12.7474 8.72595 12.7631C8.71238 12.7766 8.64441 12.8015 8.58605 12.8058C8.52781 12.8058 8.47545 12.8154 8.47545 12.7961C8.47545 12.7768 8.52397 12.7378 8.55302 12.7281C8.55885 12.7208 8.56625 12.7149 8.57467 12.7109C8.5831 12.7069 8.59232 12.7048 8.60166 12.7048C8.62496 12.7048 8.71609 12.6951 8.74144 12.6913C8.76473 12.6873 8.78419 12.7009 8.77049 12.7203C8.76473 12.7339 8.72198 12.7339 8.72198 12.7339ZM8.856 12.1343C8.856 12.1343 8.82681 12.1964 8.79392 12.1964C8.76089 12.1925 8.76089 12.1828 8.76089 12.1731C8.76089 12.1595 8.79392 12.1246 8.78995 12.1148C8.78035 12.1148 8.75692 12.1148 8.76089 12.0916C8.76089 12.0721 8.79392 12.0488 8.82297 12.0532C8.84493 12.0351 8.87226 12.0249 8.90067 12.0241C8.93369 12.0241 8.96275 12.0337 8.96275 12.0532C8.96275 12.0726 8.92435 12.1152 8.91027 12.1251C8.89478 12.1406 8.87533 12.1507 8.856 12.1347V12.1343ZM8.41325 13.2819C8.41325 13.2819 8.37485 13.2858 8.37485 13.3052C8.37485 13.3149 8.38445 13.3149 8.39814 13.3091C8.40603 13.3087 8.41385 13.3074 8.42144 13.3052C8.42528 13.3091 8.42528 13.3285 8.45446 13.3285C8.47843 13.3252 8.50152 13.3173 8.52243 13.3052C8.54573 13.2956 8.56518 13.2857 8.56518 13.2668C8.55545 13.2337 8.536 13.2181 8.50694 13.2181C8.49205 13.2172 8.4772 13.2206 8.46419 13.2279C8.46419 13.2279 8.45446 13.2084 8.42144 13.2279C8.38841 13.2473 8.39225 13.2473 8.40198 13.257C8.41939 13.2725 8.41363 13.2826 8.41363 13.2826L8.41325 13.2819ZM8.19385 13.4839C8.19385 13.4741 8.24237 13.4547 8.25593 13.4606C8.2695 13.4644 8.30829 13.5381 8.30829 13.5459C8.30829 13.5557 8.25977 13.579 8.24032 13.579C8.22086 13.579 8.18797 13.5459 8.18797 13.5406C8.18797 13.5367 8.21126 13.531 8.21126 13.527C8.21702 13.5174 8.19385 13.494 8.19385 13.4842V13.4839ZM8.04025 13.2003C8.04998 13.1965 8.04998 13.1868 8.06355 13.177C8.0678 13.1742 8.07264 13.1724 8.0777 13.1717C8.08275 13.1711 8.0879 13.1716 8.09273 13.1732C8.09616 13.1671 8.1009 13.1618 8.10661 13.1578C8.11232 13.1537 8.11886 13.151 8.12576 13.1498C8.14905 13.1459 8.16851 13.1498 8.16416 13.1595C8.16416 13.1887 8.18361 13.208 8.18361 13.2313C8.18361 13.2546 8.17005 13.2838 8.12153 13.3032C8.07302 13.3168 8.00697 13.3168 7.99725 13.313C7.98752 13.3091 7.97779 13.2702 7.98752 13.2508C7.99725 13.2313 8.02438 13.2101 8.04 13.2003H8.04025Z" fill="#82764F"/>
<path fill-rule="evenodd" clip-rule="evenodd" d="M8.10336 13.2135C8.10336 13.2135 8.07031 13.233 8.07031 13.2427C8.06739 13.2521 8.06609 13.2619 8.06647 13.2718C8.06647 13.2775 8.10925 13.2679 8.11501 13.262C8.11693 13.2582 8.10336 13.2237 8.10336 13.2135Z" fill="#6E6342"/>
<path fill-rule="evenodd" clip-rule="evenodd" d="M7.81324 13.1223C7.83257 13.1263 7.86559 13.1223 7.8908 13.1321C7.91026 13.1418 7.92382 13.1612 7.90437 13.1845C7.88491 13.2078 7.86597 13.2427 7.82284 13.2369C7.77433 13.233 7.72774 13.2078 7.72774 13.1884C7.72693 13.1761 7.72857 13.1637 7.73257 13.152C7.73656 13.1404 7.74284 13.1296 7.75104 13.1204C7.77049 13.1049 7.78009 13.1147 7.81311 13.1223H7.81324Z" fill="#585136"/>
<path fill-rule="evenodd" clip-rule="evenodd" d="M7.78991 13.1418C7.78991 13.1418 7.72783 13.1903 7.71221 13.2137C7.69276 13.237 7.59765 13.3573 7.56859 13.3825C7.57824 13.3655 7.58924 13.3493 7.60149 13.334C7.56309 13.3586 7.5343 13.3956 7.51995 13.4389C7.49665 13.5108 7.65013 13.5496 7.751 13.5788C7.85187 13.6079 7.89091 13.6172 7.89091 13.6172C7.85377 13.5614 7.82189 13.5022 7.79567 13.4405C7.75727 13.3493 7.73743 13.3395 7.76265 13.2968C7.78211 13.254 7.81129 13.225 7.81129 13.1919C7.79964 13.1612 7.78991 13.1418 7.78991 13.1418Z" fill="#574F35"/>
<path fill-rule="evenodd" clip-rule="evenodd" d="M5.57643 13.2952C5.59056 13.2978 5.60505 13.2978 5.61918 13.2952C5.64824 13.2913 5.95121 13.18 6.26775 13.2C6.50472 13.2143 6.73959 13.2529 6.96868 13.3152C7.36675 13.42 7.86185 13.6278 8.18224 13.7463C8.26761 13.7792 8.3512 13.8376 8.41263 13.8608C8.65737 13.956 8.66697 13.956 8.81071 13.9812C8.97967 14.0045 9.15247 13.9482 9.33308 13.9094C9.55439 13.8608 9.93301 13.8375 10.265 13.7889C10.3724 13.7741 10.4783 13.75 10.5816 13.7171C10.5816 13.7171 10.3175 13.9812 9.68444 14.0763C9.42854 14.1152 9.1685 14.1184 8.9117 14.086C8.70972 14.0666 8.57583 14.0374 8.47484 14.0083C8.36028 13.9753 8.12528 13.8879 7.836 13.8163C7.63402 13.7639 7.40874 13.7251 7.15056 13.6766C6.51364 13.5599 5.82244 13.426 5.57617 13.296L5.57643 13.2952Z" fill="#252211"/>
<path fill-rule="evenodd" clip-rule="evenodd" d="M4.86281 12.0952C4.70921 12.2253 4.54626 12.3496 4.38716 12.4699L3.90755 12.8384C3.74448 12.9587 3.58525 13.083 3.42205 13.2034C3.25885 13.3239 3.09591 13.4383 2.92285 13.549C3.07645 13.419 3.23939 13.2985 3.40246 13.1801C3.56554 13.0617 3.73462 12.9456 3.89193 12.8256L4.37155 12.4566C4.53654 12.3362 4.69577 12.212 4.86281 12.0955V12.0952ZM4.0143 13.4544C4.0143 13.4544 4.1871 13.3107 4.40265 13.1088C4.67055 12.8585 4.99874 12.538 5.10357 12.4799L4.01417 13.4546L4.0143 13.4544Z" fill="#CFB66C"/>
<path fill-rule="evenodd" clip-rule="evenodd" d="M4.01367 13.4543C4.09918 13.3689 4.19044 13.2855 4.2817 13.2038L4.42148 13.0835C4.46423 13.0451 4.51287 13.002 4.5555 12.9592C4.64087 12.8738 4.72446 12.7824 4.80983 12.6952C4.85215 12.6513 4.89689 12.6098 4.94385 12.5709C4.96732 12.5501 4.9934 12.5324 5.02142 12.5184C5.04484 12.5048 5.07006 12.48 5.10295 12.4756C5.08362 12.5048 5.06033 12.5184 5.04087 12.5436C5.01758 12.5631 4.99812 12.5864 4.97879 12.6057C4.93604 12.6484 4.88753 12.6872 4.84478 12.7261C4.75351 12.8038 4.65841 12.8797 4.56714 12.961C4.47588 13.0423 4.3905 13.13 4.29911 13.2115C4.20017 13.2951 4.1089 13.3766 4.01367 13.4547V13.4543ZM5.17489 12.6776C5.17489 12.6776 4.54193 13.2971 4.41175 13.398L5.17489 12.6776Z" fill="#CFB66C"/>
<path fill-rule="evenodd" clip-rule="evenodd" d="M5.17525 12.6776C5.11831 12.7435 5.05726 12.8058 4.99246 12.864L4.80046 13.0465C4.73838 13.1086 4.68001 13.1708 4.61409 13.2329C4.54613 13.2911 4.48405 13.3481 4.41211 13.4019L4.59848 13.2193C4.66069 13.1573 4.72865 13.1049 4.7947 13.0427L4.98107 12.8602C5.04507 12.7962 5.10728 12.734 5.17525 12.6776ZM5.2043 13.0135C5.14596 13.1763 5.07721 13.3353 4.99848 13.4893C4.83541 13.8156 4.5908 14.2232 4.48392 14.4311L5.2043 13.0135Z" fill="#CFB66C"/>
<path fill-rule="evenodd" clip-rule="evenodd" d="M5.20479 13.0136C5.20479 13.0854 5.18534 13.1476 5.16204 13.2097C5.13933 13.2718 5.11344 13.3327 5.08447 13.3922C5.05529 13.4505 5.02226 13.5127 4.98924 13.569C4.95622 13.6253 4.91743 13.6834 4.88825 13.7418L4.69215 14.0874C4.62418 14.2026 4.55814 14.3184 4.48633 14.4291C4.53484 14.3049 4.60089 14.1884 4.6631 14.0738C4.73106 13.9586 4.79314 13.8434 4.8551 13.7243C4.88534 13.6649 4.91256 13.604 4.93663 13.5419C4.96569 13.4796 4.99474 13.4214 5.01817 13.3651C5.04722 13.303 5.07052 13.2446 5.0997 13.1884C5.1326 13.1282 5.15986 13.0699 5.20454 13.0136H5.20479Z" fill="#CFB66C"/>
<path fill-rule="evenodd" clip-rule="evenodd" d="M5.89485 14.6058C5.89485 14.6058 5.70285 14.8601 5.72205 15.1825C5.7744 15.0136 5.84045 14.7553 5.89485 14.6058ZM6.07738 14.8608C6.07738 14.8608 6.00941 15.552 5.95309 15.8918C6.0327 15.499 6.04819 15.532 6.07738 14.8608ZM7.34917 15.9327C7.34917 15.9327 7.06181 16.7775 7.05592 17.0122C7.11813 16.7708 7.23845 16.2776 7.34917 15.932V15.9327Z" fill="#DEC270"/>
<path fill-rule="evenodd" clip-rule="evenodd" d="M8.02148 14.5536C8.02148 14.5536 8.48753 15.3225 8.8371 15.9787C8.74251 15.6485 8.52491 15.0428 8.02148 14.5536Z" fill="#CBAF59"/>
<path fill-rule="evenodd" clip-rule="evenodd" d="M9.27441 15.6855C9.5303 16.1378 9.76105 16.6039 9.96561 17.0816C9.92683 16.7515 9.82187 16.1865 9.27441 15.6855Z" fill="#E3C677"/>
<path fill-rule="evenodd" clip-rule="evenodd" d="M12.9557 16.8191C13.0333 16.7706 13.1868 16.5064 13.3208 16.4405C13.4547 16.3725 13.5557 16.359 13.6761 16.2249C13.7964 16.085 13.8297 15.9997 14.0935 15.8891C14.4625 15.7297 14.2087 15.5239 14.2087 15.5239C14.2494 15.484 14.2928 15.447 14.3388 15.4133C14.434 15.3415 14.5446 15.2541 14.535 15.1006C14.5214 14.8424 14.4729 14.4676 14.2612 14.2502C14.467 14.2074 14.8611 14.1784 15.106 14.1163C15.3894 14.0443 15.5195 13.9433 15.5195 13.9433C15.5195 13.9433 15.3565 13.6657 15.6205 13.3862C15.8846 13.1066 16.1002 12.9396 16.2594 12.6269C16.0769 12.6036 15.7986 12.5065 15.0884 12.7764C15.1268 12.7944 15.1638 12.8152 15.1992 12.8385C15.1992 12.8385 14.7623 12.9589 14.6031 13.0929C14.3253 13.3278 14.2904 13.5201 13.9894 13.6638C13.6885 13.8075 13.3855 13.7686 13.1352 13.8851C12.8848 14.0016 12.8478 14.1007 12.7564 14.1434C12.7759 14.1667 12.7526 14.2055 12.7895 14.2385C12.7662 14.2715 12.6302 14.4929 12.4924 14.4929C12.5059 14.5453 12.6224 14.5841 12.6224 14.5841C12.6224 14.5841 12.537 14.6463 12.3196 14.6618C12.4302 14.777 12.5351 14.9026 12.8244 15.0851C12.8011 15.1336 12.7039 15.2056 12.7429 15.2968C12.7856 15.3881 12.8965 15.5124 13.339 15.6134C13.1137 15.623 12.8497 15.6754 12.4942 15.6269C12.1388 15.5842 12.0806 15.559 11.8612 15.6134C11.8845 15.6367 11.9466 15.6367 12.001 15.6987C11.9427 15.7026 11.5777 15.656 11.4534 15.8192C11.3233 15.988 11.267 16.2658 11.2768 16.4521C11.2088 16.4852 11.1427 16.5434 11.1758 16.6639C11.2088 16.7843 11.3816 16.8231 11.4923 16.8987C11.6029 16.9803 11.6126 17.0093 11.7176 16.99C11.8282 16.9667 11.9912 16.8561 12.0865 16.8561C12.1817 16.8561 12.2495 16.9279 12.2495 16.9279C12.2495 16.9279 12.5079 16.8036 12.5331 16.8269C12.5564 16.8502 12.5369 16.9997 12.5621 17.023C12.5877 17.0406 12.8787 16.8678 12.9564 16.8191H12.9557Z" fill="#ECD592"/>
<path fill-rule="evenodd" clip-rule="evenodd" d="M18.5992 9.04864C17.3856 5.91469 14.3855 5.33408 14.3855 5.33408H5.8263L5.85932 8.52628H7.5639V15.6545H5.82617V18.8409H14.1486C16.1544 18.8409 17.7622 16.8253 17.7622 16.8253C20.3369 13.171 18.599 9.04864 18.599 9.04864H18.5992ZM14.1933 14.6777C14.1933 14.6777 13.5405 15.6195 12.8302 15.6195H11.4094L11.3757 8.53408H13.1991C13.1991 8.53408 14.0439 8.71072 14.6341 10.3825C14.6341 10.3825 15.4166 12.7761 14.1933 14.6777Z" fill="white" fill-opacity="0.8"/>
</svg>
