<svg width="256" height="256" viewBox="0 0 256 256" fill="none" xmlns="http://www.w3.org/2000/svg">
<rect width="256" height="256" rx="128" fill="white"/>
<path d="M111.977 148.909V146.352C111.977 140.493 112.439 135.823 113.362 132.343C114.286 128.863 115.653 126.075 117.464 123.98C119.275 121.849 121.494 119.932 124.122 118.227C126.395 116.736 128.419 115.298 130.195 113.913C132.006 112.528 133.426 111.054 134.456 109.491C135.521 107.929 136.054 106.153 136.054 104.165C136.054 102.389 135.628 100.827 134.776 99.4773C133.923 98.1278 132.769 97.0803 131.313 96.3345C129.857 95.5888 128.241 95.2159 126.466 95.2159C124.548 95.2159 122.773 95.6598 121.139 96.5476C119.541 97.4354 118.245 98.6605 117.251 100.223C116.292 101.786 115.812 103.597 115.812 105.656H88.5398C88.6108 97.8438 90.3864 91.505 93.8665 86.6399C97.3466 81.7393 101.963 78.1527 107.716 75.88C113.469 73.5717 119.79 72.4176 126.679 72.4176C134.278 72.4176 141.061 73.5362 147.027 75.7734C152.993 77.9751 157.698 81.3132 161.143 85.7876C164.587 90.2266 166.31 95.7841 166.31 102.46C166.31 106.757 165.564 110.539 164.072 113.806C162.616 117.038 160.575 119.896 157.947 122.382C155.354 124.832 152.318 127.07 148.838 129.094C146.281 130.585 144.133 132.13 142.393 133.728C140.653 135.29 139.339 137.084 138.451 139.108C137.563 141.097 137.119 143.511 137.119 146.352V148.909H111.977ZM124.974 184.705C120.855 184.705 117.322 183.266 114.374 180.39C111.462 177.478 110.024 173.945 110.06 169.79C110.024 165.741 111.462 162.279 114.374 159.403C117.322 156.526 120.855 155.088 124.974 155.088C128.881 155.088 132.325 156.526 135.308 159.403C138.327 162.279 139.854 165.741 139.889 169.79C139.854 172.56 139.126 175.081 137.705 177.354C136.32 179.591 134.509 181.384 132.272 182.734C130.035 184.048 127.602 184.705 124.974 184.705Z" fill="black"/>
</svg>
